<svg xmlns="http://www.w3.org/2000/svg" xmlns:xlink="http://www.w3.org/1999/xlink" viewBox="0 0 1381.66 1381.66"><defs><style>.cls-1{isolation:isolate;}.cls-2{fill:url(#Безымянный_градиент_14);}.cls-3{fill:#ed1c24;mix-blend-mode:screen;}</style><linearGradient id="Безымянный_градиент_14" x1="202.58" y1="202.57" x2="1179.09" y2="1179.08" gradientUnits="userSpaceOnUse"><stop offset="0" stop-color="#414141"/><stop offset="1"/></linearGradient></defs><g class="cls-1"><g id="Слой_2" data-name="Слой 2"><g id="_Layer_" data-name="&lt;Layer&gt;"><path class="cls-2" d="M331.54,491.55v74h79.73V890.11h92.2V491.55Zm542.69,189c29.59-18.22,46.69-46.13,46.69-82A101.47,101.47,0,0,0,912.84,558c-19.66-46-73.93-73.26-146.24-73.26-90.53,0-153.21,43.84-153.21,113.87,0,35.88,16.55,63.79,46.13,82-38.11,19.39-60.34,51.25-60.34,93.93,0,49.58,28.92,87,77.5,106.69C701.86,891.45,732.22,897,766.6,897c101.34,0,168.53-47.25,168.53-122.46C935.13,731.83,913,700,874.23,680.58ZM766.6,552.44c37.55,0,62.62,18.83,62.62,50.14,0,30.14-24.46,49-62.62,49-37.61,0-61.51-18.83-61.51-49C705.09,571.27,729.61,552.44,766.6,552.44Zm0,276.78a108.33,108.33,0,0,1-32.31-4.51c-26.3-8.14-41.73-27-41.73-53,0-35.27,28.47-56.94,74-56.94,19.78,0,36.43,4,49,11.37,16.71,9.75,26.18,25.46,26.18,45.57C841.75,807,812.73,829.22,766.6,829.22ZM1012.74,522.3V485.81H985.05V522.3H947.89v26.24h37.16v36.55h27.69V548.54h37.38V522.3Zm-681.2-30.75v74h79.73V890.11h92.2V491.55Zm542.69,189c29.59-18.22,46.69-46.13,46.69-82A101.47,101.47,0,0,0,912.84,558c-19.66-46-73.93-73.26-146.24-73.26-90.53,0-153.21,43.84-153.21,113.87,0,35.88,16.55,63.79,46.13,82-38.11,19.39-60.34,51.25-60.34,93.93,0,49.58,28.92,87,77.5,106.69C701.86,891.45,732.22,897,766.6,897c101.34,0,168.53-47.25,168.53-122.46C935.13,731.83,913,700,874.23,680.58ZM766.6,552.44c37.55,0,62.62,18.83,62.62,50.14,0,30.14-24.46,49-62.62,49-37.61,0-61.51-18.83-61.51-49C705.09,571.27,729.61,552.44,766.6,552.44Zm0,276.78a108.33,108.33,0,0,1-32.31-4.51c-26.3-8.14-41.73-27-41.73-53,0-35.27,28.47-56.94,74-56.94,19.78,0,36.43,4,49,11.37,16.71,9.75,26.18,25.46,26.18,45.57C841.75,807,812.73,829.22,766.6,829.22ZM1012.74,522.3V485.81H985.05V522.3H947.89v26.24h37.16v36.55h27.69V548.54h37.38V522.3Zm0,0V485.81H985.05V522.3H947.89v26.24h37.16v36.55h27.69V548.54h37.38V522.3ZM874.23,680.58c29.59-18.22,46.69-46.13,46.69-82A101.47,101.47,0,0,0,912.84,558c-19.66-46-73.93-73.26-146.24-73.26-90.53,0-153.21,43.84-153.21,113.87,0,35.88,16.55,63.79,46.13,82-38.11,19.39-60.34,51.25-60.34,93.93,0,49.58,28.92,87,77.5,106.69C701.86,891.45,732.22,897,766.6,897c101.34,0,168.53-47.25,168.53-122.46C935.13,731.83,913,700,874.23,680.58ZM766.6,552.44c37.55,0,62.62,18.83,62.62,50.14,0,30.14-24.46,49-62.62,49-37.61,0-61.51-18.83-61.51-49C705.09,571.27,729.61,552.44,766.6,552.44Zm0,276.78a108.33,108.33,0,0,1-32.31-4.51c-26.3-8.14-41.73-27-41.73-53,0-35.27,28.47-56.94,74-56.94,19.78,0,36.43,4,49,11.37,16.71,9.75,26.18,25.46,26.18,45.57C841.75,807,812.73,829.22,766.6,829.22ZM331.54,491.55v74h79.73V890.11h92.2V491.55Zm0,0v74h79.73V890.11h92.2V491.55Zm542.69,189c29.59-18.22,46.69-46.13,46.69-82A101.47,101.47,0,0,0,912.84,558c-19.66-46-73.93-73.26-146.24-73.26-90.53,0-153.21,43.84-153.21,113.87,0,35.88,16.55,63.79,46.13,82-38.11,19.39-60.34,51.25-60.34,93.93,0,49.58,28.92,87,77.5,106.69C701.86,891.45,732.22,897,766.6,897c101.34,0,168.53-47.25,168.53-122.46C935.13,731.83,913,700,874.23,680.58ZM766.6,552.44c37.55,0,62.62,18.83,62.62,50.14,0,30.14-24.46,49-62.62,49-37.61,0-61.51-18.83-61.51-49C705.09,571.27,729.61,552.44,766.6,552.44Zm0,276.78a108.33,108.33,0,0,1-32.31-4.51c-26.3-8.14-41.73-27-41.73-53,0-35.27,28.47-56.94,74-56.94,19.78,0,36.43,4,49,11.37,16.71,9.75,26.18,25.46,26.18,45.57C841.75,807,812.73,829.22,766.6,829.22ZM1012.74,522.3V485.81H985.05V522.3H947.89v26.24h37.16v36.55h27.69V548.54h37.38V522.3Zm0,0V485.81H985.05V522.3H947.89v26.24h37.16v36.55h27.69V548.54h37.38V522.3ZM874.23,680.58c29.59-18.22,46.69-46.13,46.69-82A101.47,101.47,0,0,0,912.84,558c-19.66-46-73.93-73.26-146.24-73.26-90.53,0-153.21,43.84-153.21,113.87,0,35.88,16.55,63.79,46.13,82-38.11,19.39-60.34,51.25-60.34,93.93,0,49.58,28.92,87,77.5,106.69C701.86,891.45,732.22,897,766.6,897c101.34,0,168.53-47.25,168.53-122.46C935.13,731.83,913,700,874.23,680.58ZM766.6,552.44c37.55,0,62.62,18.83,62.62,50.14,0,30.14-24.46,49-62.62,49-37.61,0-61.51-18.83-61.51-49C705.09,571.27,729.61,552.44,766.6,552.44Zm0,276.78a108.33,108.33,0,0,1-32.31-4.51c-26.3-8.14-41.73-27-41.73-53,0-35.27,28.47-56.94,74-56.94,19.78,0,36.43,4,49,11.37,16.71,9.75,26.18,25.46,26.18,45.57C841.75,807,812.73,829.22,766.6,829.22ZM331.54,565.53h79.73V890.11h92.2V491.55H331.54ZM995.3,70.81A686.26,686.26,0,0,0,690.83,0C309.93,0,0,309.93,0,690.83A687.42,687.42,0,0,0,153.1,1124c126.74,157,320.68,257.67,537.73,257.67,380.9,0,690.83-309.93,690.83-690.83C1381.66,419.12,1223.94,183.52,995.3,70.81ZM690.83,1270.24c-160.67,0-306.25-65.74-411.32-171.71C175.66,993.79,111.42,849.67,111.42,690.83c0-319.51,259.9-579.41,579.41-579.41A575.92,575.92,0,0,1,998,199.73c163.35,102.56,272.21,284.35,272.21,491.1C1270.24,1010.34,1010.34,1270.24,690.83,1270.24Zm321.91-784.43H985.05V522.3H947.89v26.24h37.16v36.55h27.69V548.54h37.38V522.3h-37.38ZM874.23,680.58c29.59-18.22,46.69-46.13,46.69-82A101.47,101.47,0,0,0,912.84,558c-19.66-46-73.93-73.26-146.24-73.26-90.53,0-153.21,43.84-153.21,113.87,0,35.88,16.55,63.79,46.13,82-38.11,19.39-60.34,51.25-60.34,93.93,0,49.58,28.92,87,77.5,106.69C701.86,891.45,732.22,897,766.6,897c101.34,0,168.53-47.25,168.53-122.46C935.13,731.83,913,700,874.23,680.58ZM766.6,552.44c37.55,0,62.62,18.83,62.62,50.14,0,30.14-24.46,49-62.62,49-37.61,0-61.51-18.83-61.51-49C705.09,571.27,729.61,552.44,766.6,552.44Zm0,276.78a108.33,108.33,0,0,1-32.31-4.51c-26.3-8.14-41.73-27-41.73-53,0-35.27,28.47-56.94,74-56.94,19.78,0,36.43,4,49,11.37,16.71,9.75,26.18,25.46,26.18,45.57C841.75,807,812.73,829.22,766.6,829.22ZM331.54,565.53h79.73V890.11h92.2V491.55H331.54Zm0-74v74h79.73V890.11h92.2V491.55Zm542.69,189c29.59-18.22,46.69-46.13,46.69-82A101.47,101.47,0,0,0,912.84,558c-19.66-46-73.93-73.26-146.24-73.26-90.53,0-153.21,43.84-153.21,113.87,0,35.88,16.55,63.79,46.13,82-38.11,19.39-60.34,51.25-60.34,93.93,0,49.58,28.92,87,77.5,106.69C701.86,891.45,732.22,897,766.6,897c101.34,0,168.53-47.25,168.53-122.46C935.13,731.83,913,700,874.23,680.58ZM766.6,552.44c37.55,0,62.62,18.83,62.62,50.14,0,30.14-24.46,49-62.62,49-37.61,0-61.51-18.83-61.51-49C705.09,571.27,729.61,552.44,766.6,552.44Zm0,276.78a108.33,108.33,0,0,1-32.31-4.51c-26.3-8.14-41.73-27-41.73-53,0-35.27,28.47-56.94,74-56.94,19.78,0,36.43,4,49,11.37,16.71,9.75,26.18,25.46,26.18,45.57C841.75,807,812.73,829.22,766.6,829.22ZM1012.74,522.3V485.81H985.05V522.3H947.89v26.24h37.16v36.55h27.69V548.54h37.38V522.3Zm0,0V485.81H985.05V522.3H947.89v26.24h37.16v36.55h27.69V548.54h37.38V522.3ZM874.23,680.58c29.59-18.22,46.69-46.13,46.69-82A101.47,101.47,0,0,0,912.84,558c-19.66-46-73.93-73.26-146.24-73.26-90.53,0-153.21,43.84-153.21,113.87,0,35.88,16.55,63.79,46.13,82-38.11,19.39-60.34,51.25-60.34,93.93,0,49.58,28.92,87,77.5,106.69C701.86,891.45,732.22,897,766.6,897c101.34,0,168.53-47.25,168.53-122.46C935.13,731.83,913,700,874.23,680.58ZM766.6,552.44c37.55,0,62.62,18.83,62.62,50.14,0,30.14-24.46,49-62.62,49-37.61,0-61.51-18.83-61.51-49C705.09,571.27,729.61,552.44,766.6,552.44Zm0,276.78a108.33,108.33,0,0,1-32.31-4.51c-26.3-8.14-41.73-27-41.73-53,0-35.27,28.47-56.94,74-56.94,19.78,0,36.43,4,49,11.37,16.71,9.75,26.18,25.46,26.18,45.57C841.75,807,812.73,829.22,766.6,829.22ZM331.54,491.55v74h79.73V890.11h92.2V491.55Zm0,0v74h79.73V890.11h92.2V491.55Zm542.69,189c29.59-18.22,46.69-46.13,46.69-82A101.47,101.47,0,0,0,912.84,558c-19.66-46-73.93-73.26-146.24-73.26-90.53,0-153.21,43.84-153.21,113.87,0,35.88,16.55,63.79,46.13,82-38.11,19.39-60.34,51.25-60.34,93.93,0,49.58,28.92,87,77.5,106.69C701.86,891.45,732.22,897,766.6,897c101.34,0,168.53-47.25,168.53-122.46C935.13,731.83,913,700,874.23,680.58ZM766.6,552.44c37.55,0,62.62,18.83,62.62,50.14,0,30.14-24.46,49-62.62,49-37.61,0-61.51-18.83-61.51-49C705.09,571.27,729.61,552.44,766.6,552.44Zm0,276.78a108.33,108.33,0,0,1-32.31-4.51c-26.3-8.14-41.73-27-41.73-53,0-35.27,28.47-56.94,74-56.94,19.78,0,36.43,4,49,11.37,16.71,9.75,26.18,25.46,26.18,45.57C841.75,807,812.73,829.22,766.6,829.22ZM1012.74,522.3V485.81H985.05V522.3H947.89v26.24h37.16v36.55h27.69V548.54h37.38V522.3Z"/><path class="cls-3" d="M331.54,491.55v74h79.73V890.11h92.2V491.55Zm542.69,189c29.59-18.22,46.69-46.13,46.69-82A101.47,101.47,0,0,0,912.84,558c-19.66-46-73.93-73.26-146.24-73.26-90.53,0-153.21,43.84-153.21,113.87,0,35.88,16.55,63.79,46.13,82-38.11,19.39-60.34,51.25-60.34,93.93,0,49.58,28.92,87,77.5,106.69C701.86,891.45,732.22,897,766.6,897c101.34,0,168.53-47.25,168.53-122.46C935.13,731.83,913,700,874.23,680.58ZM766.6,552.44c37.55,0,62.62,18.83,62.62,50.14,0,30.14-24.46,49-62.62,49-37.61,0-61.51-18.83-61.51-49C705.09,571.27,729.61,552.44,766.6,552.44Zm0,276.78a108.33,108.33,0,0,1-32.31-4.51c-26.3-8.14-41.73-27-41.73-53,0-35.27,28.47-56.94,74-56.94,19.78,0,36.43,4,49,11.37,16.71,9.75,26.18,25.46,26.18,45.57C841.75,807,812.73,829.22,766.6,829.22ZM1012.74,522.3V485.81H985.05V522.3H947.89v26.24h37.16v36.55h27.69V548.54h37.38V522.3Zm-681.2-30.75v74h79.73V890.11h92.2V491.55Zm542.69,189c29.59-18.22,46.69-46.13,46.69-82A101.47,101.47,0,0,0,912.84,558c-19.66-46-73.93-73.26-146.24-73.26-90.53,0-153.21,43.84-153.21,113.87,0,35.88,16.55,63.79,46.13,82-38.11,19.39-60.34,51.25-60.34,93.93,0,49.58,28.92,87,77.5,106.69C701.86,891.45,732.22,897,766.6,897c101.34,0,168.53-47.25,168.53-122.46C935.13,731.83,913,700,874.23,680.58ZM766.6,552.44c37.55,0,62.62,18.83,62.62,50.14,0,30.14-24.46,49-62.62,49-37.61,0-61.51-18.83-61.51-49C705.09,571.27,729.61,552.44,766.6,552.44Zm0,276.78a108.33,108.33,0,0,1-32.31-4.51c-26.3-8.14-41.73-27-41.73-53,0-35.27,28.47-56.94,74-56.94,19.78,0,36.43,4,49,11.37,16.71,9.75,26.18,25.46,26.18,45.57C841.75,807,812.73,829.22,766.6,829.22ZM1012.74,522.3V485.81H985.05V522.3H947.89v26.24h37.16v36.55h27.69V548.54h37.38V522.3Zm0,0V485.81H985.05V522.3H947.89v26.24h37.16v36.55h27.69V548.54h37.38V522.3ZM874.23,680.58c29.59-18.22,46.69-46.13,46.69-82A101.47,101.47,0,0,0,912.84,558c-19.66-46-73.93-73.26-146.24-73.26-90.53,0-153.21,43.84-153.21,113.87,0,35.88,16.55,63.79,46.13,82-38.11,19.39-60.34,51.25-60.34,93.93,0,49.58,28.92,87,77.5,106.69C701.86,891.45,732.22,897,766.6,897c101.34,0,168.53-47.25,168.53-122.46C935.13,731.83,913,700,874.23,680.58ZM766.6,552.44c37.55,0,62.62,18.83,62.62,50.14,0,30.14-24.46,49-62.62,49-37.61,0-61.51-18.83-61.51-49C705.09,571.27,729.61,552.44,766.6,552.44Zm0,276.78a108.33,108.33,0,0,1-32.31-4.51c-26.3-8.14-41.73-27-41.73-53,0-35.27,28.47-56.94,74-56.94,19.78,0,36.43,4,49,11.37,16.71,9.75,26.18,25.46,26.18,45.57C841.75,807,812.73,829.22,766.6,829.22ZM331.54,491.55v74h79.73V890.11h92.2V491.55Zm0,0v74h79.73V890.11h92.2V491.55Zm542.69,189c29.59-18.22,46.69-46.13,46.69-82A101.47,101.47,0,0,0,912.84,558c-19.66-46-73.93-73.26-146.24-73.26-90.53,0-153.21,43.84-153.21,113.87,0,35.88,16.55,63.79,46.13,82-38.11,19.39-60.34,51.25-60.34,93.93,0,49.58,28.92,87,77.5,106.69C701.86,891.45,732.22,897,766.6,897c101.34,0,168.53-47.25,168.53-122.46C935.13,731.83,913,700,874.23,680.58ZM766.6,552.44c37.55,0,62.62,18.83,62.62,50.14,0,30.14-24.46,49-62.62,49-37.61,0-61.51-18.83-61.51-49C705.09,571.27,729.61,552.44,766.6,552.44Zm0,276.78a108.33,108.33,0,0,1-32.31-4.51c-26.3-8.14-41.73-27-41.73-53,0-35.27,28.47-56.94,74-56.94,19.78,0,36.43,4,49,11.37,16.71,9.75,26.18,25.46,26.18,45.57C841.75,807,812.73,829.22,766.6,829.22ZM1012.74,522.3V485.81H985.05V522.3H947.89v26.24h37.16v36.55h27.69V548.54h37.38V522.3Zm0,0V485.81H985.05V522.3H947.89v26.24h37.16v36.55h27.69V548.54h37.38V522.3ZM874.23,680.58c29.59-18.22,46.69-46.13,46.69-82A101.47,101.47,0,0,0,912.84,558c-19.66-46-73.93-73.26-146.24-73.26-90.53,0-153.21,43.84-153.21,113.87,0,35.88,16.55,63.79,46.13,82-38.11,19.39-60.34,51.25-60.34,93.93,0,49.58,28.92,87,77.5,106.69C701.86,891.45,732.22,897,766.6,897c101.34,0,168.53-47.25,168.53-122.46C935.13,731.83,913,700,874.23,680.58ZM766.6,552.44c37.55,0,62.62,18.83,62.62,50.14,0,30.14-24.46,49-62.62,49-37.61,0-61.51-18.83-61.51-49C705.09,571.27,729.61,552.44,766.6,552.44Zm0,276.78a108.33,108.33,0,0,1-32.31-4.51c-26.3-8.14-41.73-27-41.73-53,0-35.27,28.47-56.94,74-56.94,19.78,0,36.43,4,49,11.37,16.71,9.75,26.18,25.46,26.18,45.57C841.75,807,812.73,829.22,766.6,829.22ZM331.54,565.53h79.73V890.11h92.2V491.55H331.54ZM995.3,70.81A686.26,686.26,0,0,0,690.83,0C309.93,0,0,309.93,0,690.83A687.42,687.42,0,0,0,153.1,1124c126.74,157,320.68,257.67,537.73,257.67,380.9,0,690.83-309.93,690.83-690.83C1381.66,419.12,1223.94,183.52,995.3,70.81ZM690.83,1270.24c-160.67,0-306.25-65.74-411.32-171.71C175.66,993.79,111.42,849.67,111.42,690.83c0-319.51,259.9-579.41,579.41-579.41A575.92,575.92,0,0,1,998,199.73c163.35,102.56,272.21,284.35,272.21,491.1C1270.24,1010.34,1010.34,1270.24,690.83,1270.24Zm321.91-784.43H985.05V522.3H947.89v26.24h37.16v36.55h27.69V548.54h37.38V522.3h-37.38ZM874.23,680.58c29.59-18.22,46.69-46.13,46.69-82A101.47,101.47,0,0,0,912.84,558c-19.66-46-73.93-73.26-146.24-73.26-90.53,0-153.21,43.84-153.21,113.87,0,35.88,16.55,63.79,46.13,82-38.11,19.39-60.34,51.25-60.34,93.93,0,49.58,28.92,87,77.5,106.69C701.86,891.45,732.22,897,766.6,897c101.34,0,168.53-47.25,168.53-122.46C935.13,731.83,913,700,874.23,680.58ZM766.6,552.44c37.55,0,62.62,18.83,62.62,50.14,0,30.14-24.46,49-62.62,49-37.61,0-61.51-18.83-61.51-49C705.09,571.27,729.61,552.44,766.6,552.44Zm0,276.78a108.33,108.33,0,0,1-32.31-4.51c-26.3-8.14-41.73-27-41.73-53,0-35.27,28.47-56.94,74-56.94,19.78,0,36.43,4,49,11.37,16.71,9.75,26.18,25.46,26.18,45.57C841.75,807,812.73,829.22,766.6,829.22ZM331.54,565.53h79.73V890.11h92.2V491.55H331.54Zm0-74v74h79.73V890.11h92.2V491.55Zm542.69,189c29.59-18.22,46.69-46.13,46.69-82A101.47,101.47,0,0,0,912.84,558c-19.66-46-73.93-73.26-146.24-73.26-90.53,0-153.21,43.84-153.21,113.87,0,35.88,16.55,63.79,46.13,82-38.11,19.39-60.34,51.25-60.34,93.93,0,49.58,28.92,87,77.5,106.69C701.86,891.45,732.22,897,766.6,897c101.34,0,168.53-47.25,168.53-122.46C935.13,731.83,913,700,874.23,680.58ZM766.6,552.44c37.55,0,62.62,18.83,62.62,50.14,0,30.14-24.46,49-62.62,49-37.61,0-61.51-18.83-61.51-49C705.09,571.27,729.61,552.44,766.6,552.44Zm0,276.78a108.33,108.33,0,0,1-32.31-4.51c-26.3-8.14-41.73-27-41.73-53,0-35.27,28.47-56.94,74-56.94,19.78,0,36.43,4,49,11.37,16.71,9.75,26.18,25.46,26.18,45.57C841.75,807,812.73,829.22,766.6,829.22ZM1012.74,522.3V485.81H985.05V522.3H947.89v26.24h37.16v36.55h27.69V548.54h37.38V522.3Zm0,0V485.81H985.05V522.3H947.89v26.24h37.16v36.55h27.69V548.54h37.38V522.3ZM874.23,680.58c29.59-18.22,46.69-46.13,46.69-82A101.47,101.47,0,0,0,912.84,558c-19.66-46-73.93-73.26-146.24-73.26-90.53,0-153.21,43.84-153.21,113.87,0,35.88,16.55,63.79,46.13,82-38.11,19.39-60.34,51.25-60.34,93.93,0,49.58,28.92,87,77.5,106.69C701.86,891.45,732.22,897,766.6,897c101.34,0,168.53-47.25,168.53-122.46C935.13,731.83,913,700,874.23,680.58ZM766.6,552.44c37.55,0,62.62,18.83,62.62,50.14,0,30.14-24.46,49-62.62,49-37.61,0-61.51-18.83-61.51-49C705.09,571.27,729.61,552.44,766.6,552.44Zm0,276.78a108.33,108.33,0,0,1-32.31-4.51c-26.3-8.14-41.73-27-41.73-53,0-35.27,28.47-56.94,74-56.94,19.78,0,36.43,4,49,11.37,16.71,9.75,26.18,25.46,26.18,45.57C841.75,807,812.73,829.22,766.6,829.22ZM331.54,491.55v74h79.73V890.11h92.2V491.55Zm0,0v74h79.73V890.11h92.2V491.55Zm542.69,189c29.59-18.22,46.69-46.13,46.69-82A101.47,101.47,0,0,0,912.84,558c-19.66-46-73.93-73.26-146.24-73.26-90.53,0-153.21,43.84-153.21,113.87,0,35.88,16.55,63.79,46.13,82-38.11,19.39-60.34,51.25-60.34,93.93,0,49.58,28.92,87,77.5,106.69C701.86,891.45,732.22,897,766.6,897c101.34,0,168.53-47.25,168.53-122.46C935.13,731.83,913,700,874.23,680.58ZM766.6,552.44c37.55,0,62.62,18.83,62.62,50.14,0,30.14-24.46,49-62.62,49-37.61,0-61.51-18.83-61.51-49C705.09,571.27,729.61,552.44,766.6,552.44Zm0,276.78a108.33,108.33,0,0,1-32.31-4.51c-26.3-8.14-41.73-27-41.73-53,0-35.27,28.47-56.94,74-56.94,19.78,0,36.43,4,49,11.37,16.71,9.75,26.18,25.46,26.18,45.57C841.75,807,812.73,829.22,766.6,829.22ZM1012.74,522.3V485.81H985.05V522.3H947.89v26.24h37.16v36.55h27.69V548.54h37.38V522.3Z"/></g></g></g></svg>