<svg xmlns="http://www.w3.org/2000/svg" xmlns:xlink="http://www.w3.org/1999/xlink" viewBox="0 0 91.62 104.08"><defs><style>.cls-1{isolation:isolate;}.cls-2{fill:url(#Безымянный_градиент_276);}.cls-20,.cls-21,.cls-22,.cls-23,.cls-27,.cls-28,.cls-29,.cls-3,.cls-31,.cls-39,.cls-40,.cls-46,.cls-47,.cls-48,.cls-52,.cls-63,.cls-67,.cls-73,.cls-77,.cls-84,.cls-86,.cls-89,.cls-90,.cls-94,.cls-95,.cls-97,.cls-98,.cls-99{mix-blend-mode:multiply;}.cls-13,.cls-14,.cls-15,.cls-3,.cls-67,.cls-68,.cls-69,.cls-70{opacity:0.52;}.cls-3{fill:url(#Безымянный_градиент_276-2);}.cls-4{fill:#ff2721;}.cls-5{fill:#d4131f;}.cls-6,.cls-7,.cls-9{fill:#ed424c;}.cls-103,.cls-104,.cls-105,.cls-106,.cls-107,.cls-108,.cls-109,.cls-110,.cls-111,.cls-112,.cls-113,.cls-114,.cls-115,.cls-116,.cls-12,.cls-13,.cls-14,.cls-15,.cls-33,.cls-41,.cls-42,.cls-49,.cls-50,.cls-51,.cls-53,.cls-54,.cls-55,.cls-56,.cls-57,.cls-59,.cls-6,.cls-61,.cls-64,.cls-65,.cls-68,.cls-69,.cls-7,.cls-70,.cls-8,.cls-92,.cls-93{mix-blend-mode:screen;}.cls-21,.cls-22,.cls-6{opacity:0.78;}.cls-10,.cls-12{fill:#ffd61f;}.cls-11{fill:#ffac1f;}.cls-12,.cls-27,.cls-93{opacity:0.46;}.cls-13{fill:url(#Безымянный_градиент_276-3);}.cls-14{fill:url(#Безымянный_градиент_276-4);}.cls-15{fill:url(#Безымянный_градиент_276-5);}.cls-16{fill:url(#Безымянный_градиент_276-6);}.cls-17{fill:url(#linear-gradient);}.cls-18{fill:url(#linear-gradient-2);}.cls-19{fill:url(#linear-gradient-3);}.cls-20,.cls-50,.cls-51{opacity:0.26;}.cls-20{fill:url(#linear-gradient-4);}.cls-21{fill:#eb2732;}.cls-22{fill:#d6111d;}.cls-23,.cls-63,.cls-73,.cls-77,.cls-86,.cls-89,.cls-90,.cls-94,.cls-95,.cls-97,.cls-98,.cls-99{opacity:0.41;}.cls-23{fill:url(#Безымянный_градиент_38);}.cls-24,.cls-27,.cls-31{fill:#9d3d1f;}.cls-25{fill:#712200;}.cls-26,.cls-40,.cls-41,.cls-53{fill:#ac5700;}.cls-28{opacity:0.22;}.cls-29{opacity:0.2;}.cls-30{fill:#ffb800;}.cls-31{opacity:0.17;}.cls-32{fill:#ff8e00;}.cls-33{opacity:0.49;}.cls-34{fill:#ff6d74;}.cls-35{fill:#9a634f;}.cls-36,.cls-42{fill:#7f391f;}.cls-37,.cls-39{fill:#59b0ca;}.cls-38{fill:#59d9e6;}.cls-39{opacity:0.36;}.cls-40{opacity:0.12;}.cls-41{opacity:0.4;}.cls-43{fill:url(#linear-gradient-5);}.cls-44{fill:url(#linear-gradient-6);}.cls-45{fill:#d8d8d8;}.cls-46,.cls-47,.cls-52,.cls-54,.cls-55,.cls-56,.cls-57{opacity:0.28;}.cls-46{fill:url(#linear-gradient-7);}.cls-47{fill:url(#linear-gradient-8);}.cls-48,.cls-49{fill:#c4c4c4;opacity:0.86;}.cls-50{fill:url(#linear-gradient-9);}.cls-51{fill:url(#linear-gradient-10);}.cls-52{fill:url(#linear-gradient-12);}.cls-53{opacity:0.56;}.cls-54{fill:url(#linear-gradient-13);}.cls-55{fill:url(#linear-gradient-14);}.cls-56{fill:url(#linear-gradient-15);}.cls-57{fill:url(#linear-gradient-16);}.cls-58{fill:url(#linear-gradient-17);}.cls-59{opacity:0.32;fill:url(#Безымянный_градиент_38-2);}.cls-60{fill:url(#linear-gradient-18);}.cls-61,.cls-64,.cls-65,.cls-92{opacity:0.42;}.cls-61{fill:url(#Безымянный_градиент_38-3);}.cls-62{fill:url(#linear-gradient-19);}.cls-63{fill:url(#Безымянный_градиент_38-4);}.cls-64{fill:url(#Безымянный_градиент_38-5);}.cls-65{fill:url(#Безымянный_градиент_38-6);}.cls-66{fill:url(#Безымянный_градиент_276-7);}.cls-67{fill:url(#Безымянный_градиент_276-8);}.cls-68{fill:url(#Безымянный_градиент_276-9);}.cls-69{fill:url(#Безымянный_градиент_276-10);}.cls-70{fill:url(#Безымянный_градиент_276-11);}.cls-71{fill:url(#Безымянный_градиент_276-12);}.cls-72{fill:url(#linear-gradient-20);}.cls-74{fill:url(#Безымянный_градиент_38-7);}.cls-75{fill:url(#Безымянный_градиент_38-8);}.cls-76{fill:url(#linear-gradient-21);}.cls-77{fill:url(#Безымянный_градиент_38-9);}.cls-78{fill:url(#Безымянный_градиент_142);}.cls-79{fill:url(#linear-gradient-22);}.cls-80{fill:url(#Безымянный_градиент_38-10);}.cls-81{fill:url(#Безымянный_градиент_85);}.cls-82{fill:url(#Безымянный_градиент_38-11);}.cls-83{fill:url(#linear-gradient-23);}.cls-84{opacity:0.31;fill:url(#Безымянный_градиент_38-12);}.cls-85{fill:url(#Безымянный_градиент_38-13);}.cls-86{fill:url(#Безымянный_градиент_38-14);}.cls-87{fill:url(#Безымянный_градиент_38-15);}.cls-88{fill:url(#linear-gradient-24);}.cls-89{fill:url(#Безымянный_градиент_38-16);}.cls-90{fill:url(#Безымянный_градиент_38-17);}.cls-91{fill:url(#Безымянный_градиент_38-18);}.cls-92{fill:url(#Безымянный_градиент_38-19);}.cls-93{fill:url(#Безымянный_градиент_38-20);}.cls-94{fill:url(#Безымянный_градиент_38-21);}.cls-95{fill:url(#Безымянный_градиент_38-22);}.cls-96{fill:url(#Безымянный_градиент_38-23);}.cls-97{fill:url(#Безымянный_градиент_38-24);}.cls-98{fill:url(#Безымянный_градиент_38-25);}.cls-99{fill:url(#Безымянный_градиент_38-26);}.cls-100{fill:url(#Безымянный_градиент_38-27);}.cls-101{fill:url(#Безымянный_градиент_38-28);}.cls-102{fill:url(#Безымянный_градиент_38-29);}.cls-103,.cls-104,.cls-105,.cls-106,.cls-107,.cls-108,.cls-109,.cls-110,.cls-111,.cls-112,.cls-113,.cls-114,.cls-115,.cls-116{opacity:0.29;}.cls-103{fill:url(#Безымянный_градиент_38-30);}.cls-104{fill:url(#Безымянный_градиент_38-31);}.cls-105{fill:url(#Безымянный_градиент_38-32);}.cls-106{fill:url(#Безымянный_градиент_38-33);}.cls-107{fill:url(#Безымянный_градиент_38-34);}.cls-108{fill:url(#Безымянный_градиент_38-35);}.cls-109{fill:url(#Безымянный_градиент_38-36);}.cls-110{fill:url(#Безымянный_градиент_38-37);}.cls-111{fill:url(#Безымянный_градиент_38-38);}.cls-112{fill:url(#Безымянный_градиент_38-39);}.cls-113{fill:url(#Безымянный_градиент_38-40);}.cls-114{fill:url(#Безымянный_градиент_38-41);}.cls-115{fill:url(#Безымянный_градиент_38-42);}.cls-116{fill:url(#Безымянный_градиент_38-43);}</style><linearGradient id="Безымянный_градиент_276" x1="2.48" y1="42" x2="9.4" y2="47.71" gradientUnits="userSpaceOnUse"><stop offset="0" stop-color="#7ad400"/><stop offset="1" stop-color="#4e9a00"/></linearGradient><linearGradient id="Безымянный_градиент_276-2" x1="2.86" y1="42.32" x2="9.48" y2="47.77" xlink:href="#Безымянный_градиент_276"/><linearGradient id="Безымянный_градиент_276-3" x1="3.97" y1="43" x2="9.05" y2="43" xlink:href="#Безымянный_градиент_276"/><linearGradient id="Безымянный_градиент_276-4" x1="0.44" y1="49.47" x2="2.68" y2="49.47" xlink:href="#Безымянный_градиент_276"/><linearGradient id="Безымянный_градиент_276-5" x1="12.91" y1="43.03" x2="13.69" y2="43.03" xlink:href="#Безымянный_градиент_276"/><linearGradient id="Безымянный_градиент_276-6" x1="2.02" y1="50.98" x2="4.43" y2="52.97" xlink:href="#Безымянный_градиент_276"/><linearGradient id="linear-gradient" x1="89.8" y1="70.65" x2="84.37" y2="77.77" gradientUnits="userSpaceOnUse"><stop offset="0" stop-color="#47bb00"/><stop offset="1" stop-color="#258e00"/></linearGradient><linearGradient id="linear-gradient-2" x1="3.78" y1="67.61" x2="13.52" y2="74.6" xlink:href="#linear-gradient"/><linearGradient id="linear-gradient-3" x1="4.89" y1="91.47" x2="88.2" y2="91.47" gradientUnits="userSpaceOnUse"><stop offset="0" stop-color="#5ac000"/><stop offset="1" stop-color="#007c00"/></linearGradient><linearGradient id="linear-gradient-4" x1="4.89" y1="91.14" x2="86.07" y2="91.14" xlink:href="#linear-gradient-3"/><linearGradient id="Безымянный_градиент_38" x1="28.65" y1="31.58" x2="42.61" y2="27.3" gradientUnits="userSpaceOnUse"><stop offset="0" stop-color="#90cc40"/><stop offset="1" stop-color="#68ae25"/></linearGradient><linearGradient id="linear-gradient-5" x1="74.69" y1="70.56" x2="72.71" y2="86.28" xlink:href="#linear-gradient"/><linearGradient id="linear-gradient-6" x1="18.5" y1="74.19" x2="19.5" y2="88.07" xlink:href="#linear-gradient"/><linearGradient id="linear-gradient-7" x1="74.32" y1="73.43" x2="72.64" y2="86.84" xlink:href="#linear-gradient"/><linearGradient id="linear-gradient-8" x1="18.92" y1="80.19" x2="19.52" y2="88.55" xlink:href="#linear-gradient"/><linearGradient id="linear-gradient-9" x1="57.48" y1="93.84" x2="61.5" y2="93.84" xlink:href="#linear-gradient-3"/><linearGradient id="linear-gradient-10" x1="72.27" y1="92.05" x2="75.26" y2="92.05" xlink:href="#linear-gradient-3"/><linearGradient id="linear-gradient-12" x1="19.3" y1="80.16" x2="19.9" y2="88.53" xlink:href="#linear-gradient"/><linearGradient id="linear-gradient-13" x1="65.11" y1="81.95" x2="73.69" y2="81.95" xlink:href="#linear-gradient"/><linearGradient id="linear-gradient-14" x1="73.56" y1="73.78" x2="79.1" y2="73.78" xlink:href="#linear-gradient"/><linearGradient id="linear-gradient-15" x1="10.92" y1="74.23" x2="19.4" y2="74.23" xlink:href="#linear-gradient"/><linearGradient id="linear-gradient-16" x1="20.67" y1="78.4" x2="25.16" y2="78.4" xlink:href="#linear-gradient"/><linearGradient id="linear-gradient-17" x1="56.77" y1="47.71" x2="81.6" y2="47.71" xlink:href="#linear-gradient"/><linearGradient id="Безымянный_градиент_38-2" x1="60.03" y1="47.28" x2="81.12" y2="47.28" xlink:href="#Безымянный_градиент_38"/><linearGradient id="linear-gradient-18" x1="-3668.53" y1="61.32" x2="-3644.52" y2="61.32" gradientTransform="matrix(-1, 0, 0, 1, -3622.27, 0)" xlink:href="#linear-gradient"/><linearGradient id="Безымянный_градиент_38-3" x1="-3665.22" y1="61.03" x2="-3644.94" y2="61.03" gradientTransform="matrix(-1, 0, 0, 1, -3622.27, 0)" xlink:href="#Безымянный_градиент_38"/><linearGradient id="linear-gradient-19" x1="-245.79" y1="706.21" x2="-231.96" y2="706.21" gradientTransform="translate(36.56 -680.67) rotate(-18.94)" xlink:href="#linear-gradient"/><linearGradient id="Безымянный_градиент_38-4" x1="-242.15" y1="705.59" x2="-234.25" y2="705.59" gradientTransform="translate(36.56 -680.67) rotate(-18.94)" xlink:href="#Безымянный_градиент_38"/><linearGradient id="Безымянный_градиент_38-5" x1="-243.93" y1="705.46" x2="-236.28" y2="705.46" gradientTransform="translate(36.56 -680.67) rotate(-18.94)" xlink:href="#Безымянный_градиент_38"/><linearGradient id="Безымянный_градиент_38-6" x1="-244.36" y1="706.75" x2="-232.45" y2="706.75" gradientTransform="translate(36.56 -680.67) rotate(-18.94)" xlink:href="#Безымянный_градиент_38"/><linearGradient id="Безымянный_градиент_276-7" x1="8.49" y1="44.74" x2="17.58" y2="52.23" xlink:href="#Безымянный_градиент_276"/><linearGradient id="Безымянный_градиент_276-8" x1="9.16" y1="45.29" x2="17.71" y2="52.34" xlink:href="#Безымянный_градиент_276"/><linearGradient id="Безымянный_градиент_276-9" x1="10.35" y1="46.6" x2="17.1" y2="46.6" xlink:href="#Безымянный_градиент_276"/><linearGradient id="Безымянный_градиент_276-10" x1="5.67" y1="53.71" x2="8.64" y2="53.71" xlink:href="#Безымянный_градиент_276"/><linearGradient id="Безымянный_градиент_276-11" x1="22.22" y1="46.63" x2="23.25" y2="46.63" xlink:href="#Безымянный_градиент_276"/><linearGradient id="Безымянный_градиент_276-12" x1="8.02" y1="55.39" x2="10.74" y2="57.63" xlink:href="#Безымянный_градиент_276"/><linearGradient id="linear-gradient-20" x1="37.96" y1="2.92" x2="40.44" y2="16.93" xlink:href="#linear-gradient"/><linearGradient id="Безымянный_градиент_38-7" x1="36.8" y1="10.42" x2="36.89" y2="10.96" xlink:href="#Безымянный_градиент_38"/><linearGradient id="Безымянный_градиент_38-8" x1="38.38" y1="4.76" x2="40.65" y2="17.56" xlink:href="#Безымянный_градиент_38"/><linearGradient id="linear-gradient-21" x1="138.8" y1="-52.16" x2="133.16" y2="-40.68" gradientTransform="translate(-86.29 49.45) rotate(5.92)" xlink:href="#linear-gradient"/><linearGradient id="Безымянный_градиент_38-9" x1="137.99" y1="-50.51" x2="132.93" y2="-40.21" gradientTransform="translate(-86.29 49.45) rotate(5.92)" xlink:href="#Безымянный_градиент_38"/><linearGradient id="Безымянный_градиент_142" x1="68.38" y1="24.61" x2="55.85" y2="30.73" gradientUnits="userSpaceOnUse"><stop offset="0" stop-color="#508b00"/><stop offset="1" stop-color="#2b8600"/></linearGradient><linearGradient id="linear-gradient-22" x1="-205.62" y1="465.22" x2="-185.03" y2="465.22" gradientTransform="translate(118.79 -473.78) rotate(-12.57)" xlink:href="#linear-gradient"/><linearGradient id="Безымянный_градиент_38-10" x1="68.38" y1="24.61" x2="55.85" y2="30.73" xlink:href="#Безымянный_градиент_38"/><linearGradient id="Безымянный_градиент_85" x1="41.75" y1="6.89" x2="48.44" y2="14.54" gradientUnits="userSpaceOnUse"><stop offset="0" stop-color="#90cc40"/><stop offset="1" stop-color="#3a7000"/></linearGradient><linearGradient id="Безымянный_градиент_38-11" x1="12.31" y1="42.66" x2="33.7" y2="42.66" gradientTransform="translate(6.87 -18.21) rotate(-0.52)" xlink:href="#Безымянный_градиент_38"/><linearGradient id="linear-gradient-23" x1="41.55" y1="29.57" x2="48.6" y2="29.57" xlink:href="#linear-gradient"/><linearGradient id="Безымянный_градиент_38-12" x1="42.96" y1="10.96" x2="46.8" y2="13.72" xlink:href="#Безымянный_градиент_38"/><linearGradient id="Безымянный_градиент_38-13" x1="57.11" y1="20.12" x2="48.4" y2="30.74" xlink:href="#Безымянный_градиент_38"/><linearGradient id="Безымянный_градиент_38-14" x1="56.02" y1="21.45" x2="48.35" y2="30.81" xlink:href="#Безымянный_градиент_38"/><linearGradient id="Безымянный_градиент_38-15" x1="12.31" y1="42.66" x2="33.68" y2="42.66" gradientTransform="translate(6.87 -18.21) rotate(-0.52)" xlink:href="#Безымянный_градиент_38"/><linearGradient id="linear-gradient-24" x1="-83.15" y1="97.93" x2="-70.7" y2="111.25" gradientTransform="translate(98.38 -92.84) rotate(-7.58)" xlink:href="#linear-gradient-3"/><linearGradient id="Безымянный_градиент_38-16" x1="55.27" y1="20.84" x2="47.6" y2="30.19" xlink:href="#Безымянный_градиент_38"/><linearGradient id="Безымянный_градиент_38-17" x1="56.43" y1="21.79" x2="48.76" y2="31.15" xlink:href="#Безымянный_градиент_38"/><linearGradient id="Безымянный_градиент_38-18" x1="59.02" y1="28.07" x2="50.15" y2="35.13" xlink:href="#Безымянный_градиент_38"/><linearGradient id="Безымянный_градиент_38-19" x1="47.45" y1="1.9" x2="52.49" y2="1.9" xlink:href="#Безымянный_градиент_38"/><linearGradient id="Безымянный_градиент_38-20" x1="43.29" y1="9.37" x2="47.38" y2="9.37" xlink:href="#Безымянный_градиент_38"/><linearGradient id="Безымянный_градиент_38-21" x1="43.95" y1="8.05" x2="48.19" y2="11.1" xlink:href="#Безымянный_градиент_38"/><linearGradient id="Безымянный_градиент_38-22" x1="-81.55" y1="96.3" x2="-70.36" y2="108.26" gradientTransform="translate(98.38 -92.84) rotate(-7.58)" xlink:href="#Безымянный_градиент_38"/><linearGradient id="Безымянный_градиент_38-23" x1="31.72" y1="27.07" x2="32.01" y2="34.63" xlink:href="#Безымянный_градиент_38"/><linearGradient id="Безымянный_градиент_38-24" x1="24.55" y1="32.58" x2="42.22" y2="27.16" xlink:href="#Безымянный_градиент_38"/><linearGradient id="Безымянный_градиент_38-25" x1="24.16" y1="31.31" x2="41.83" y2="25.89" xlink:href="#Безымянный_градиент_38"/><linearGradient id="Безымянный_градиент_38-26" x1="25.09" y1="34.36" x2="42.76" y2="28.93" xlink:href="#Безымянный_градиент_38"/><linearGradient id="Безымянный_градиент_38-27" x1="55.44" y1="29.81" x2="49.38" y2="34.63" xlink:href="#Безымянный_градиент_38"/><linearGradient id="Безымянный_градиент_38-28" x1="60.81" y1="34.41" x2="60.61" y2="34.56" xlink:href="#Безымянный_градиент_38"/><linearGradient id="Безымянный_градиент_38-29" x1="54.93" y1="29.17" x2="48.88" y2="33.99" xlink:href="#Безымянный_градиент_38"/><linearGradient id="Безымянный_градиент_38-30" x1="48.87" y1="31.52" x2="59.63" y2="31.52" xlink:href="#Безымянный_градиент_38"/><linearGradient id="Безымянный_градиент_38-31" x1="54.07" y1="29.65" x2="59.36" y2="29.65" xlink:href="#Безымянный_градиент_38"/><linearGradient id="Безымянный_градиент_38-32" x1="28.91" y1="29.5" x2="38.41" y2="29.5" xlink:href="#Безымянный_градиент_38"/><linearGradient id="Безымянный_градиент_38-33" x1="26.65" y1="28.19" x2="33.54" y2="28.19" xlink:href="#Безымянный_градиент_38"/><linearGradient id="Безымянный_градиент_38-34" x1="29.58" y1="20.7" x2="39.73" y2="20.7" xlink:href="#Безымянный_градиент_38"/><linearGradient id="Безымянный_градиент_38-35" x1="36.94" y1="20.46" x2="43.04" y2="20.46" xlink:href="#Безымянный_градиент_38"/><linearGradient id="Безымянный_градиент_38-36" x1="19.36" y1="23.17" x2="29.11" y2="23.17" xlink:href="#Безымянный_градиент_38"/><linearGradient id="Безымянный_градиент_38-37" x1="51.53" y1="16.94" x2="59.01" y2="16.94" xlink:href="#Безымянный_градиент_38"/><linearGradient id="Безымянный_градиент_38-38" x1="49.05" y1="16.49" x2="55.97" y2="16.49" xlink:href="#Безымянный_градиент_38"/><linearGradient id="Безымянный_градиент_38-39" x1="50.73" y1="23.94" x2="59.9" y2="23.94" xlink:href="#Безымянный_градиент_38"/><linearGradient id="Безымянный_градиент_38-40" x1="59.28" y1="28.97" x2="68.46" y2="28.97" xlink:href="#Безымянный_градиент_38"/><linearGradient id="Безымянный_градиент_38-41" x1="61.41" y1="25.98" x2="68.35" y2="25.98" xlink:href="#Безымянный_градиент_38"/><linearGradient id="Безымянный_градиент_38-42" x1="36.18" y1="14.41" x2="38.8" y2="14.41" xlink:href="#Безымянный_градиент_38"/><linearGradient id="Безымянный_градиент_38-43" x1="37.44" y1="14" x2="40.71" y2="14" xlink:href="#Безымянный_градиент_38"/></defs><g class="cls-1"><g id="Слой_2" data-name="Слой 2"><g id="Layer_1" data-name="Layer 1"><path class="cls-2" d="M12,42.65a7.13,7.13,0,0,1-.84-.07A22.9,22.9,0,0,0,8,42.22a10.39,10.39,0,0,0-4.27,1.06A5.9,5.9,0,0,0,.62,48.56c0,.27-.74.37-.6,1,.1.49.57.63.93.74a4.47,4.47,0,0,0,2.91-.38c.53-.22,1.57-.65,1.56-1.47s-1.14-.73-1.19-1c-.33-1.64.08-3,1.5-3.63a8.49,8.49,0,0,1,4.13-.55,3.22,3.22,0,0,1,2.74,1.63c.33.63.2,1.47.83,1.22a1.14,1.14,0,0,0,.57-.54A4.76,4.76,0,0,0,14.12,42c-.14-.35-.36-.74-.72-.64C12.78,41.58,12.65,42.63,12,42.65Z"/><path class="cls-3" d="M13.89,42.4a3.59,3.59,0,0,1-.11,2.13c-.15.34-.69,1.07-.74.26a10.94,10.94,0,0,0-.42-2.43s-.62.47-.64.41c.27.62-1.17.37-1.37.35A12.66,12.66,0,0,0,7.08,43a13.28,13.28,0,0,0-1.52.33c-.5.11-.95.45-1.45.55-.3.06-.46-.13-.69-.26,0,.2.12.35.1.58A5.78,5.78,0,0,1,3,45.85c-.3.71-1.18,2-2,1.56a.88.88,0,0,0,.17,1.19,1.5,1.5,0,0,0,1.45,0c.35-.13,1.85-1.24,1.84-.11,0,1-1.39,1.37-1.95,1.51a2.53,2.53,0,0,1-2.27-.27A1,1,0,0,1,0,49.29a.57.57,0,0,0,0,.29c.1.49.57.63.93.74a4.47,4.47,0,0,0,2.91-.38c.53-.22,1.57-.65,1.56-1.47s-1.14-.73-1.19-1c-.33-1.64.08-3,1.5-3.63a8.49,8.49,0,0,1,4.13-.55,3.22,3.22,0,0,1,2.74,1.63c.33.63.2,1.47.83,1.22a1.14,1.14,0,0,0,.57-.54A4.76,4.76,0,0,0,14.12,42c-.13-.35-.35-.73-.71-.64a1.58,1.58,0,0,0,.12.15A1.91,1.91,0,0,1,13.89,42.4Z"/><path class="cls-4" d="M3,43.28c1.58.61,0,4.22-1,4.73S0,47.17.07,45.9C.14,44.44,1.76,42.8,3,43.28Z"/><path class="cls-4" d="M3.84,48.23a.7.7,0,0,0-.5-.68c-.32-.07-.6.22-.79.5l-.1.17a.83.83,0,0,0-.14.32.64.64,0,0,0,.08.49.54.54,0,0,0,.34.22.92.92,0,0,0,.71-.18.93.93,0,0,0,.3-.35,1.54,1.54,0,0,0,.08-.19A1,1,0,0,0,3.84,48.23Z"/><polygon class="cls-4" points="2.85 48.64 2.85 48.64 2.85 48.64 2.84 48.63 2.85 48.64"/><path class="cls-5" d="M3.42,43.62A2.86,2.86,0,0,1,3,45.88c-.52.86-1.58,1.81-2.43.95a1.81,1.81,0,0,1-.45-1.25,1.75,1.75,0,0,0,0,.32C0,47.17.78,48.58,2,48,2.89,47.56,4.2,44.72,3.42,43.62Z"/><path class="cls-5" d="M3.84,48.23a1,1,0,0,0-.09-.34.74.74,0,0,1,0,.39.84.84,0,0,1-.74.57.52.52,0,0,1-.57-.53.57.57,0,0,1,0-.13l0,0a.83.83,0,0,0-.14.32.64.64,0,0,0,.08.49.54.54,0,0,0,.34.22.92.92,0,0,0,.71-.18.93.93,0,0,0,.3-.35,1.54,1.54,0,0,0,.08-.19A1,1,0,0,0,3.84,48.23Z"/><path class="cls-6" d="M2.15,45.3c.38-.25,1-1,.93-1.54s-.79-.57-1.17-.36c-.58.32-1.83,1.39-1.4,2.33C.77,46.3,1.82,45.53,2.15,45.3Z"/><path class="cls-6" d="M3.5,48.24l0,0c.32-.38-.19-.63-.48-.52s-.54.4-.45.62S3.31,48.39,3.5,48.24Z"/><path class="cls-7" d="M2,43.56a1.41,1.41,0,0,1,1.67.66A1.07,1.07,0,0,0,3,43.28C1.77,42.81.18,44.4.07,45.83a3.43,3.43,0,0,1,1.38-2A1.81,1.81,0,0,1,2,43.56Z"/><g class="cls-8"><path class="cls-9" d="M2.81,47.93a.64.64,0,0,1,.89-.12.59.59,0,0,0-.36-.26c-.32-.07-.6.22-.79.5l-.1.17a.83.83,0,0,0-.14.32.65.65,0,0,0,0,.19A2.06,2.06,0,0,1,2.81,47.93Z"/></g><path class="cls-10" d="M5,49.3a4.15,4.15,0,0,1-1.14.64A4.47,4.47,0,0,1,1,50.32a2.12,2.12,0,0,1-.4-.14A3,3,0,0,0,.62,51.6c.29,1,1.26,2.09,2.16,2.11,1.77,0,2.8-2.54,2.23-4.36Z"/><path class="cls-11" d="M5,49.35V49.3a4.15,4.15,0,0,1-1.14.64A4.47,4.47,0,0,1,1,50.32a2.12,2.12,0,0,1-.4-.14c0,.11,0,.23-.05.35a2.29,2.29,0,0,0,2,.42c.52-.08,1.18-.26,1.52.39a1.83,1.83,0,0,1-.39,1.87,2,2,0,0,1-.59.48C4.65,53.49,5.55,51.08,5,49.35Z"/><path class="cls-12" d="M2,51.76c.4-.24,1.75-.58,1.87.26.08.56-.57,1.22-1,1.37a1.1,1.1,0,0,1-1.13-.22C1.16,52.66,1.48,52.1,2,51.76Z"/><path class="cls-13" d="M5.89,43c-.46.12-.9.31-1.36.47a.85.85,0,0,1-.56.09c0-.4.47-.43.72-.51a17.63,17.63,0,0,1,1.87-.47,11.56,11.56,0,0,1,2.49-.13,10.72,10.72,0,0,0-1.58.22A14.3,14.3,0,0,0,5.89,43Z"/><path class="cls-14" d="M2,49.35c.16,0,.81.07.61.39s-.84.22-1.07.19S.64,49.81.48,49.5.76,49,1,49C1.35,49,1.67,49.27,2,49.35Z"/><path class="cls-15" d="M13.28,41.68a.38.38,0,0,0-.19.13.54.54,0,0,0-.11.68,4.65,4.65,0,0,1,.34,1,5.8,5.8,0,0,1,0,.93c.26-.08.28-.63.31-.88S13.71,41.59,13.28,41.68Z"/><path class="cls-16" d="M4.09,51.2a3.67,3.67,0,0,0-.23-1.14c-.09-.22-.42-.72-.67-.5s.14.61.21.79a5.16,5.16,0,0,1,.31,1.88c0,.53,0,1.3-.41,1.65s-.57.24-.63-.19l-.21,0A.61.61,0,0,0,3,54.3a.92.92,0,0,0,.74-.59,4.08,4.08,0,0,0,.35-1.9C4.1,51.61,4.1,51.4,4.09,51.2Z"/><path class="cls-17" d="M84.4,87.1a8.32,8.32,0,0,0-1.1.13c-1,.18-3.19,1.45-4.07,1.06-1.07-.48-1.51-3.05-1.69-4a14.08,14.08,0,0,1,.72-6.65,16.44,16.44,0,0,0,.39-5.85c-.1-2.43.77-3.86,2.62-5.43a6,6,0,0,0-1.59,3.13c1-1.4,3.24-3.22,5-3.3a13,13,0,0,0-3.6,3.6c1.18-.64,3.12-1.26,4.43-.86a7.25,7.25,0,0,0-2.92,1.46c1.87-.58,5.64-.94,7.16.47a5.65,5.65,0,0,0-4.29.83c.7.12,2.35.1,2.63.83-.2-.52-2.56.77-2.85.94a13,13,0,0,1,4,1.7,5.78,5.78,0,0,0-1.43.18,5.86,5.86,0,0,1,2.6,1.36,9.84,9.84,0,0,1,1.2,2.69,5.52,5.52,0,0,0-1.18-1.79,3.56,3.56,0,0,0-4.71.18s0,0,0,0a9.07,9.07,0,0,1,3.52.13c-1.26.71-2.74.74-4,1.67,2-.27,4.78,1.83,4.44,4a3.58,3.58,0,0,0-4.16-1.77c1.11,1.16,2.59,1.76,3,3.5a4,4,0,0,0-1.9-.56,3.79,3.79,0,0,1,1.21,2.41c0,.67-.11,1.35-.07,2C87.73,87.39,85.92,87,84.4,87.1Z"/><path class="cls-18" d="M15.11,71.28c0,.14,0,.27,0,.4-.07,1-.36,1.91-.51,2.86A19.11,19.11,0,0,0,14.48,79c.16,1.58,1,3,.17,4.55a4,4,0,0,1-3,2.23c-1.25,0-1.95-1.14-2.74-1.92-1.27-1.24-2.65-2.25-4.5-2.19a6,6,0,0,1,3.31-.84A4.5,4.5,0,0,0,5,79.78a5,5,0,0,1,1.89-.3A5.75,5.75,0,0,0,5,78a3.58,3.58,0,0,1,2.22.31c-.77-1.46-1.53-2.9-2.38-4.32,1.59.45,2.69,2.56,3.39,3.91.07-2.11-1.53-4.24-.78-6.39A11.55,11.55,0,0,0,9.14,77c-.73-1.17-.46-2.8-.75-4.1A6.64,6.64,0,0,0,6.44,69a8.14,8.14,0,0,1,3.14,5c.2.81.58,1.56.8,2.35-.61-2.18.42-4.91-1.6-6.6a3.16,3.16,0,0,1,1.4,1c-.28-1.89-1.74-4-3.9-4a3.65,3.65,0,0,1,4,1.58,34.26,34.26,0,0,0-1.55-3.62,8.63,8.63,0,0,1,2.05,2.39,6.64,6.64,0,0,1,1.79-6.85c-1.12,2.3.48,4.87,1.46,6.91A9.27,9.27,0,0,1,15.11,71.28Z"/><path class="cls-19" d="M14,90.51c-.5.51-1.19.83-1.34,1.63,0-.46-.1-1.42.26-1.81a2.8,2.8,0,0,0-.72,2c-.41-.57-.59-1.41-1.15-1.85.28.73.41,1.54.71,2.25a2.76,2.76,0,0,0-2.07-1.24,5,5,0,0,1,1.54,1.66c-.42-.21-1.33-.65-1.78-.4a3.69,3.69,0,0,1,2.13,1.11,11.26,11.26,0,0,0-1.72-.39,12.14,12.14,0,0,1-2.07-.55,5.76,5.76,0,0,1-2.47-2.19,3.37,3.37,0,0,1,.49-4A9.79,9.79,0,0,1,8.9,85.36c-.67-.58-2.1-1.21-2.19-2.24.78,0,1.73,1.06,2.56,1.28a4.07,4.07,0,0,1-1.63-2.81c.85.14,1.76,1.67,2.67,2.13-.16-1.34-1.41-2.63-1.12-4.07a8.86,8.86,0,0,1,.91,1.88c.3.6.63,1.21.93,1.81-.13-1.12-.44-3,.38-4,.28,1-.09,2.24.35,3.24.48-1.07.3-3.09,1.47-3.77.28,1.11-.61,2.29-.25,3.42.7-.9.87-2.29,2-2.9,0,1-.95,1.71-.84,2.69,1.1-.44,1.73-1.95,3.11-1.83-.26.74-1.42,1.2-1.37,2.05.9-.21,1.94-1,2.88-.77a2.27,2.27,0,0,1-.66.61c1.69-1,2.92-.76,4.78-.43a15.81,15.81,0,0,1,4.09,1c1.43.66,2.76,1.51,4.18,2.18a29,29,0,0,0,8.73,2.35c3.25.4,6.52.61,9.79.71,1.65,0,3.3.21,5,.21.5,0,4.45-.17,3.72-1,.21-.18,2-.3,1.93-.08a1.64,1.64,0,0,0-.15-1,3.42,3.42,0,0,1,1.15,1.12,4.49,4.49,0,0,0-.34-1.79A17.09,17.09,0,0,0,62.4,87a8.12,8.12,0,0,1,.43-4c.16,1.06-.2,2.37.27,3.41A7.56,7.56,0,0,1,64.85,82a10.52,10.52,0,0,0-.76,3.09,5.55,5.55,0,0,1,2.11-2.62,8.66,8.66,0,0,0-1.27,2.43,15.29,15.29,0,0,1,2.63-1.58A5.76,5.76,0,0,0,67,84.91c.9,0,1.78-.79,2.7-.81a1.56,1.56,0,0,0-.75.81c.75.25,1.63,0,2.35.3-.12,0-.24.11-.36.15a5.59,5.59,0,0,0,3.38.76,15,15,0,0,0,.09-2c.35.24.58.76.89,1A5,5,0,0,0,75.74,84c.5,2,1.74-1.37,2.63-1.54,0,.54-.44,1.12-.65,1.63.52-.52,1.16-1.49,1.94-1.54-.37.43-1,.93-1.06,1.52,1.22-.53,2.11-1.49,3.57-1.36-.45.5-1.48.74-1.68,1.44,1,.22,2-.53,3-.09-.27.33-.77.41-1,.67a17.29,17.29,0,0,1,2.7.45,2.19,2.19,0,0,0-.34.1c1-.25,2.6,1.54,3.07,2.33.91,1.56.07,3-1.15,4-2.88,2.53-6.7,3.65-10.4,4.39-.63.13-1.28.14-1.9.27a2,2,0,0,1-.62.1c.32-.28,1-.25,1.2-.6-.46-.15-.89.29-1.33.31.29-.53,1.1-.68,1.44-1.17-.58-.21-1.51.79-2,1.1a12,12,0,0,1,1.23-1.63c-.68.12-1.12,1-1.43,1.5a7.84,7.84,0,0,1,.37-1.28c-.47.44-.5,1-.79,1.55a6.3,6.3,0,0,1-.3-1c-.17.35,0,.79.16,1.13A5.47,5.47,0,0,0,70.26,96c.36.37,1,.45,1.46.83-2.86-.07-6-.07-8.76.91a3.54,3.54,0,0,0-2.31,2.07,2.9,2.9,0,0,1-1.76,1.81,13.62,13.62,0,0,1-3.27,1.13s.06,0,.07-.06c-.27,0-.52.06-.78,0a1.92,1.92,0,0,1,.78-.45,2.55,2.55,0,0,0-1.24.3,4.82,4.82,0,0,1,.75-1,2.12,2.12,0,0,0-1.11,1.15,6.21,6.21,0,0,1,.58-2.1,6.09,6.09,0,0,0-.84,2,4,4,0,0,1-.14-1.16,10.77,10.77,0,0,0,0,1.39c-.22-.2-.62-.17-.9-.33a2.09,2.09,0,0,1,.64.54,10.49,10.49,0,0,1-3.18.43c-3.15.34-6.36.39-9.53.52a33.46,33.46,0,0,1-10.83-.94A15.94,15.94,0,0,1,22.32,99a2.65,2.65,0,0,1-.89-2c0-.25.47-.86.41-1.06-.27-.89-2.72-1-3.33-1-1.59-.18-4.36.47-5.39-1.15a2.9,2.9,0,0,1,2.2-.17,2.73,2.73,0,0,0-1.7-.56,2.67,2.67,0,0,1,1.86-.61c-.44-.57-1.54-.09-2.06.16.35-.52,1.09-.67,1.46-1.14a3.47,3.47,0,0,0-1.76,1A3.47,3.47,0,0,1,14,90.51Z"/><path class="cls-20" d="M34.77,89.76a9.51,9.51,0,0,0-1.35,1c-.5.47-.35.55,0,1-.22.26-.7.32-1,.45a7.13,7.13,0,0,0-1.67.86,1.44,1.44,0,0,0-.14,2.32c1,.75,2.62,0,3.67-.26s2.43-.2,3.62-.39c1-.15,2-.32,3-.41s3.56-.41,3.91,1.06c-.46,0-.4.2-.66.48.42.23,1,.42,1.23.88s-2.83.7-3,.7a17.29,17.29,0,0,1-3.57-.59c-1.12-.26-2.3-.89-3.3-.13a3.24,3.24,0,0,1-2.49.43c-1-.05-2.7-.85-3.47.29a5.54,5.54,0,0,1,.29-.52c-.42.11-.63.5-.9.75a12.75,12.75,0,0,0,.85-2.2,7.22,7.22,0,0,0-1.45,2.35c-.1-.93.5-1.83.59-2.72a7,7,0,0,0-1.26,3c-.13-.83-.11-1.68-.17-2.51a8.51,8.51,0,0,1-.44,2.2A3.93,3.93,0,0,1,26.81,96a3.76,3.76,0,0,0-.45,2.08,7,7,0,0,1-.73-2,8.17,8.17,0,0,0,0,2.21c-.29-.31-.6-.68-.91-1-.1.37.24.83.46,1.11a3.69,3.69,0,0,1-1.41-.91,2.48,2.48,0,0,0,.9,1.22,3.3,3.3,0,0,1-2.87-2.06c-.09,2.31,2.66,4.16,4.56,4.9a29,29,0,0,0,6.88,1.83c-.27-.38-.73-.76-.84-1.24-.18-.76.53-.74,1.11-.8a22.35,22.35,0,0,1,2.58-.17c.65,0,6.67.53,5.18,2,0,0,1,.14,1.13.14a5.84,5.84,0,0,0,1.23-.2c.41-.1,1.34-.25,1.35-.81,0-.33-.45-.48-.45-.84,0-1.11,2-1.36,2.76-1.45a10.6,10.6,0,0,0,2.39-.25c.65-.23,1.41-1.79,2-1.81a8,8,0,0,0-1,.21,3.19,3.19,0,0,0,1-1,4.2,4.2,0,0,0-1.47.9c.18-.75,1.12-1.37,1.37-2.13-.64.53-1.1,1.33-1.72,1.81a13.52,13.52,0,0,1,.68-2.13A5.42,5.42,0,0,0,49.37,98a6.52,6.52,0,0,1-.47-2,8.64,8.64,0,0,0,0,1.76c-.59-.35-2-.63-1.86-1.58.06-.46.62-.6.61-1.11,0-.36-.48-.49-.53-.74-.1-.49.69-1,1-1.1A10.49,10.49,0,0,1,54,92.75c.58.1,1.16.17,1.75.23a5,5,0,0,1,1.44.19A10.14,10.14,0,0,1,56,92c.21.06.53,0,.74.09a8.9,8.9,0,0,1-1.3-1,11.06,11.06,0,0,1,1.45.55A2,2,0,0,1,56.37,90a10.06,10.06,0,0,0,1.34,2,3.92,3.92,0,0,1-.26-2.38c.36.61.36,1.37.73,2A6.39,6.39,0,0,1,59.37,90,6,6,0,0,0,59,91.73c.59-.85,1.65-.55,2.49-.81a3.48,3.48,0,0,0-1.69,1.36A2.84,2.84,0,0,1,61.43,92a7.35,7.35,0,0,0-1.23.86c.31-.24.9-.12,1.25-.14a2,2,0,0,0-.71.52c.35-.36,1.94-.31,2.45-.34a13.6,13.6,0,0,1,2.77.32c-.22-.4-.36-.87-.59-1.28a4.33,4.33,0,0,0,1,.87,3.55,3.55,0,0,1,0-1.34,3.81,3.81,0,0,0,.52,1.25,3.18,3.18,0,0,1,.61-1.11A8.82,8.82,0,0,0,67.36,93a2.17,2.17,0,0,1,.58-.59c0,.15,0,.24,0,.38s1-.22,1.11-.22c.52,0,.91.29,1.43.27.23,0,1.43-.49,1.51-.44a2.81,2.81,0,0,1-1.15-1.71,5.21,5.21,0,0,0,1.72,1A2.54,2.54,0,0,1,72.49,90c.14.42.08.94.41,1.27a2.14,2.14,0,0,1,.72-1.48c-.08.36-.17,1,.11,1.25A4.44,4.44,0,0,1,76,89.21,2.62,2.62,0,0,0,75,91a1.94,1.94,0,0,1,1.35-.58,2.84,2.84,0,0,0-1.28,1.85A5.41,5.41,0,0,1,76.79,91c-.37.14-.58.94-.76,1.25.66-.16,5.41-.69,4-2-.26-.25-.92-.35-1-.73s.47-.58.82-.7a14.65,14.65,0,0,1,2.1-.38c.42-.08,1.43-.16,1.69-.54a1.38,1.38,0,0,0-.75-.38c.34,0,.6.19.91.27,0-.26-.11-.52.07-.75,0,.21,0,.5.08.67a3.83,3.83,0,0,1,.6-.67c-.09.24-.22.45-.32.68.2-.15.43-.41.7-.42.12.24.77-.11.77-.26,0-.47-.92-.15-1.09-.4s.29-.43.51-.48c0,0,1.15-.24,1-.36a1.73,1.73,0,0,0-1.3-.42,2.19,2.19,0,0,1,.34-.1,17.29,17.29,0,0,0-2.7-.45c.28-.26.78-.34,1-.67-1-.44-2,.31-3,.09.2-.7,1.23-.94,1.68-1.44-1.46-.13-2.35.83-3.57,1.36,0-.59.69-1.09,1.06-1.52-.78,0-1.42,1-1.94,1.54.21-.51.69-1.09.65-1.63-.89.17-2.13,3.57-2.63,1.54a5,5,0,0,1-.46,1.12c-.31-.28-.54-.8-.89-1a15,15,0,0,1-.09,2,5.59,5.59,0,0,1-3.38-.76c.12,0,.24-.12.36-.15-.72-.3-1.6,0-2.35-.3a1.56,1.56,0,0,1,.75-.81c-.92,0-1.8.81-2.7.81a5.76,5.76,0,0,1,.58-1.63,15.29,15.29,0,0,0-2.63,1.58,8.66,8.66,0,0,1,1.27-2.43,5.55,5.55,0,0,0-2.11,2.62A10.52,10.52,0,0,1,64.85,82a7.56,7.56,0,0,0-1.75,4.39c-.47-1-.11-2.35-.27-3.41a8.12,8.12,0,0,0-.43,4,17.09,17.09,0,0,1-1.49-1.58,4.49,4.49,0,0,1,.34,1.79,3.42,3.42,0,0,0-1.15-1.12,1.64,1.64,0,0,1,.15,1c.06-.22-1.72-.1-1.93.08.73.81-3.22,1-3.72,1-1.66,0-3.31-.16-5-.21-3.27-.1-6.54-.31-9.79-.71a29,29,0,0,1-8.73-2.35c-1.42-.67-2.75-1.52-4.18-2.18a15.81,15.81,0,0,0-4.09-1c-1.86-.33-3.09-.54-4.78.43a2.27,2.27,0,0,0,.66-.61c-.94-.19-2,.56-2.88.77,0-.85,1.11-1.31,1.37-2.05-1.38-.12-2,1.39-3.11,1.83-.11-1,.83-1.72.84-2.69-1.1.61-1.27,2-2,2.9-.36-1.13.53-2.31.25-3.42-1.17.68-1,2.7-1.47,3.77-.44-1-.07-2.23-.35-3.24-.82.92-.51,2.83-.38,4-.3-.6-.63-1.21-.93-1.81a8.86,8.86,0,0,0-.91-1.88c-.29,1.44,1,2.73,1.12,4.07-.91-.46-1.82-2-2.67-2.13A4.07,4.07,0,0,0,9.27,84.4c-.83-.22-1.78-1.29-2.56-1.28.09,1,1.52,1.66,2.19,2.24a9.79,9.79,0,0,0-3.09,1.39,3.37,3.37,0,0,0-.49,4,4.86,4.86,0,0,0,.83,1c-.58-1-.93-2.16-.51-2.93.71-1.28,2.55-.36,3.52,0,.47.18,1.37.52,1.84.21-.44-.21-3.23-1.53-2-2a7.33,7.33,0,0,1,2.18.11,13.17,13.17,0,0,1,3,.8,19.66,19.66,0,0,1,3.23,1A1.87,1.87,0,0,1,16.91,88a8.4,8.4,0,0,0,1,1.16A2.35,2.35,0,0,1,18,87.61c.11.56.09,1.21.22,1.77.16-.57.6-1.43,1.21-1.58-.22.49-.6.85-.79,1.36a3.52,3.52,0,0,1,1.11-.52c-.12.37-.7.53-.9.89.34-.08.81-.21,1,.16a2.17,2.17,0,0,1-.58.17c1,.41,1.77,1.11,2.76,1.51a5,5,0,0,0,1.57.4c.26,0,1.25-.42,1.33-.39-.66-.24-3.16-.83-3.06-1.86.06-.64,1.61,0,1.87.15,1,.38,1.84,1.1,2.92,1.06.81,0,1.67-.27.75-1,.27.24.6.42.86.67-.27-.48-.23-1.14-.55-1.58a3.51,3.51,0,0,1,.86,1.54,2.31,2.31,0,0,1,.29-1.85c0,.55,0,1.14,0,1.69A3.35,3.35,0,0,1,29.66,89a9.67,9.67,0,0,0-.51,1.14,4.37,4.37,0,0,1,.89-.66,2.65,2.65,0,0,1-.46.65,5.23,5.23,0,0,1,2.6-.51A8,8,0,0,1,34.77,89.76Z"/><path class="cls-4" d="M46,28.71c-5-.07-6.51,1.36-10.59,3.33,0,0-10-2.73-16.63,1.21S7,52.15,11.4,63.49A132.2,132.2,0,0,0,23.19,85.87S27.88,89.34,46,89.34s24.19-3.17,25.1-4.53,13-19,11-36-16-18.9-19.2-18.29-6.67,1.11-6.67,1.11S50.45,28.77,46,28.71Z"/><path class="cls-21" d="M57.83,77.93c-.71,1.22-2,4.27-3.71,2.43-1-1.1-1.13-2.85-1.59-4.21-1.77-5.23-2.84-11.47-7-15.48-2.33-2.28-5.85-2.07-8.49-.55-.62.37-1.86,1.14-1.65,1.82.13.4.64.32.58,1-.09,1.29-2,2.52-2.8,3.46-1.06,1.27-2.05,2.6-3.05,3.93-2,2.68-4.65,8.35-8.84,7.53a9.61,9.61,0,0,1-4-1.88c3.13,5.76,5.88,9.86,5.88,9.86S27.88,89.34,46,89.34s24.19-3.17,25.1-4.53,13-19,11-36-16-18.9-19.2-18.29-6.67,1.11-6.67,1.11S50.45,28.77,46,28.71a20.84,20.84,0,0,0-7.63,1.56,26.76,26.76,0,0,1-6.46,2c-.53.07-5.82-.14-5.78-.64-.15,1.7,2.24,2.63,3.57,3,.89.24,2.35-.06,3.08.49a3.48,3.48,0,0,1-1.22.74,15.9,15.9,0,0,0,4.5-.93A20.71,20.71,0,0,1,42,33.62a14.34,14.34,0,0,1,4.56,1,37.13,37.13,0,0,0,5.63,1.59c1.47.28,3.32.9,4.69-.06-.74,0-1.89.06-2.31-.6,2.11-1.47,6.15-1.91,7.56.61,1.66,3,1.15,6.36-.32,9.29s-3.75,5.18-5.42,7.94a30.08,30.08,0,0,0-1.81,3.41,15,15,0,0,0-.77,4.33,17.18,17.18,0,0,0-.11,3,12.41,12.41,0,0,0,.11,2.67,1.08,1.08,0,0,0,1.7.51c1-.75,1-2.27,1.47-3.36.33.55.2,1.38.46,2A5.6,5.6,0,0,0,60,68.31a10,10,0,0,0,4,.81c1.73.12,1.81,1.55,1.13,2.86a9.28,9.28,0,0,1-3.27,3.26C60.38,76.24,58.74,76.37,57.83,77.93Z"/><path class="cls-22" d="M49.68,69.88c-1.37-4.6-4.56-11.62-10.51-10.44a3.65,3.65,0,0,1,2.52,3.23,3.93,3.93,0,0,1-2.08,3.56l-.17.1c-1.11.62-2.52.56-3.71,1.07-4.37,1.87-5.77,7.06-7.22,11.09a7.8,7.8,0,0,1-3.21,4,2.94,2.94,0,0,1-2.33.35,7.45,7.45,0,0,1-2.55-1.38c1.63,2.7,2.75,4.37,2.75,4.37S27.85,89.33,46,89.33s24.19-3.17,25.1-4.53,13-19,11-36-16-18.9-19.21-18.3-6.66,1.12-6.66,1.12S50.43,28.76,46,28.7a20.84,20.84,0,0,0-7.63,1.56A34.9,34.9,0,0,1,34,31.79c-1.11.3-2.34,1.16-3.53.87.72,2.16,4.34,1,5.73.65,3.18-.84,5.83-1.87,9.13-.81,1.78.57,3.42,1.53,5.33,1.63,1.48.08,2.85-.72,4.29-.51a17.74,17.74,0,0,0,4.24.23,9.18,9.18,0,0,0,3.17-.91c2.42-1.11,4.73-1.28,6.94.46,1.62,1.28,2.25,4-.53,4.13-.86.06-2.59-.28-3-1.19,0,.1-.43,1-.47,1.16a2.91,2.91,0,0,0,0,1.21,4.31,4.31,0,0,0,1.38,2.1A8.7,8.7,0,0,0,71.86,43c-.39,0,.19-2,.3-2.19a2,2,0,0,1,1.86-1c1.9.15,3,2.17,3.37,3.85s-.34,3.32-2.12,3.65-3.63-.81-5.23-1.6a6.68,6.68,0,0,0-5.56-.63,3.28,3.28,0,0,0-1.76,1.37c.14-.24,1.94.43,2.2.54,2.6,1.09,4.68,2.45,5.73,5.21A9.61,9.61,0,0,1,70.11,60a45.78,45.78,0,0,1-2.66,3.87,9,9,0,0,0,3-1.76c1.55-1.24,4-2.49,5.92-1.48,1.7.88,2,2.86,1.81,4.63-.34,3.3-4.59,4.8-7.07,2.74a3,3,0,0,1-1-2.21c0-.68-.15-1.84-1.1-1.43-.64.28-1,1-1.6,1.39a8.22,8.22,0,0,1-4.65,1.2c-1.19,0-3.73-.16-4.16-1.65a3.12,3.12,0,0,0,0,1,3.25,3.25,0,0,0,1.09,1.24,6,6,0,0,0,3.94.8c1,0,2.5-.38,3.39.35,1.29,1-.06,3-.84,4,.91-1.1,2.88-2.73,4.3-1.61,3.14,2.5-.75,9.83-4.17,10.28a3.71,3.71,0,0,1-2.95-1.26c-.41-.38-.56-1.17-1.3-.68-.53.36-.17,1.11-.28,1.7a4.63,4.63,0,0,1-1.7,2.47,5.86,5.86,0,0,1-4.89,1.34c-2.18-.59-2.53-3.18-3.08-5C51.16,76.59,50.66,73.18,49.68,69.88Z"/><path class="cls-22" d="M80,61.59A63.83,63.83,0,0,1,75,75.18c-1.51,3-4.53,7.63-8.27,7.78-1.28.06-2.35-.58-3.48.16-1.29.84-1.8,2.52-3.11,3.36-2.34,1.48-5.52.47-7.43-1.32A10,10,0,0,1,50.12,80c-.64-2.67-1-5.39-1.69-8.06-1-3.89-2.86-11-7.62-11.4a4.07,4.07,0,0,1,.88,2.15,3.93,3.93,0,0,1-2.08,3.56l-.17.1c-1.11.62-2.52.56-3.71,1.07-4.37,1.87-5.77,7.06-7.22,11.09a7.8,7.8,0,0,1-3.21,4,2.94,2.94,0,0,1-2.33.35,7.45,7.45,0,0,1-2.55-1.38c1.63,2.7,2.75,4.37,2.75,4.37S27.85,89.33,46,89.33s24.19-3.17,25.1-4.53,13-19,11-36c-.93-8-4.53-12.62-8.41-15.25,1.77,1.2,3.39,4.12,4.41,6C81.81,46.36,81.79,54.15,80,61.59Z"/><path class="cls-23" d="M27.64,32.92a3.32,3.32,0,0,1-1.47-2.54c-.41-.09-.89-.11-1.23-.16a6.72,6.72,0,0,0,4.55,3.6A5.58,5.58,0,0,1,27.64,32.92Z"/><path class="cls-5" d="M24.89,35a4.63,4.63,0,0,0-1.16.79c-1.14,1.08-1.21,3.08.78,2.52.91-.26,4.06-2.3,2.29-3.37A2,2,0,0,0,24.89,35Z"/><path class="cls-5" d="M17.66,41.29a1.14,1.14,0,0,0-1.72-1,3.66,3.66,0,0,0-1.3,2.2c-.31.87-.29,1.84.38,2.25C16.54,45.7,17.77,42.34,17.66,41.29Z"/><path class="cls-5" d="M35.61,42.21a2.22,2.22,0,0,0-.55-2.07,1.39,1.39,0,0,0-1.92.18,4.19,4.19,0,0,0-1,2.27,2.23,2.23,0,0,0,.37,1.86,1,1,0,0,0,.22.32c.51.47,1.36.06,1.79-.32A3.48,3.48,0,0,0,35.61,42.21Z"/><path class="cls-5" d="M17.32,66.1a4.14,4.14,0,0,0-1.1-2.31c-.9-.74-1.65.1-1.82,1a3.74,3.74,0,0,0,.38,2.48c.33.57,1,1.57,1.8,1.5C17.75,68.67,17.47,66.84,17.32,66.1Z"/><path class="cls-5" d="M25.3,74c-.35-.86-2.2-3.65-2.81-1.54a4.46,4.46,0,0,0,.3,3.09c.32.58,1,1.41,1.76,1.34C25.92,76.7,25.67,74.83,25.3,74Z"/><path class="cls-5" d="M43.43,54a1.35,1.35,0,0,0-2-.26,3.54,3.54,0,0,0-.79,2.22,2.88,2.88,0,0,0,.57,2.1.75.75,0,0,0,.07.12,1,1,0,0,0,1.61.18,3.31,3.31,0,0,0,1-2.1A3.37,3.37,0,0,0,43.43,54Z"/><path class="cls-5" d="M20,51.91c-.82-.12-1.16.77-1.31,1.42a3.05,3.05,0,0,0,.4,2.38.82.82,0,0,0,.88.34.84.84,0,0,0,.68-.24C21.59,55,21.46,52.14,20,51.91Z"/><path class="cls-5" d="M30.73,56.07a1.15,1.15,0,0,0-1.82.42,3.14,3.14,0,0,0-.09,2.58,1.45,1.45,0,0,0,.26.4.92.92,0,0,0,.83.68c.85.08,1.25-1,1.37-1.7A2.58,2.58,0,0,0,30.73,56.07Z"/><path class="cls-5" d="M47.45,36.53a1.33,1.33,0,0,0-1.93.31,2.67,2.67,0,0,0-.39,2.06c-.06.9.32,1.75,1.31,1.69C48.27,40.49,48.78,37.54,47.45,36.53Z"/><path class="cls-10" d="M23.86,38c-.4.06-.66,0-.76-.24A1.76,1.76,0,0,1,23.72,36a3.87,3.87,0,0,1,1.07-.72A2.78,2.78,0,0,1,25.5,35a1.25,1.25,0,0,1,.87.15c.35.21.37.41.35.55-.11.83-1.91,2-2.56,2.18l-.3.06Z"/><path class="cls-10" d="M15.32,44.45a.6.6,0,0,1-.35-.11c-.54-.33-.46-1.19-.23-1.83v0a3.27,3.27,0,0,1,1.15-2,.74.74,0,0,1,.39-.12.88.88,0,0,1,.79.83A5,5,0,0,1,16,44.06a1,1,0,0,1-.68.39Z"/><path class="cls-10" d="M33.07,44.18c-.68-.19-.81-1-.71-1.73a3.75,3.75,0,0,1,.85-2.07,1.08,1.08,0,0,1,1.1-.33,1.24,1.24,0,0,1,.34.18A1.86,1.86,0,0,1,35.07,42c-.11.92-.52,2.15-1.59,2.22A1.34,1.34,0,0,1,33.07,44.18Z"/><path class="cls-10" d="M16.27,68.31c-.48,0-1-.69-1.42-1.33a3.48,3.48,0,0,1-.34-2.24c.1-.49.42-1,.79-1a.73.73,0,0,1,.46.21,3.64,3.64,0,0,1,1,2.11,3,3,0,0,1-.07,2.06.47.47,0,0,1-.36.18Z"/><path class="cls-10" d="M24.22,76.37c-.48,0-1-.58-1.35-1.16a4,4,0,0,1-.27-2.82c0-.15.17-.52.35-.52.51,0,1.5,1.39,1.79,2.09a2.79,2.79,0,0,1,.1,2.08.69.69,0,0,1-.56.33Z"/><path class="cls-10" d="M41.93,58.18a.65.65,0,0,1-.55-.32l0-.07-.05-.08,0,0a2.59,2.59,0,0,1-.47-1.83,3.05,3.05,0,0,1,.67-2,.86.86,0,0,1,.59-.23,1.09,1.09,0,0,1,.85.44,3.05,3.05,0,0,1,.4,2A3,3,0,0,1,42.46,58a.83.83,0,0,1-.53.22Z"/><path class="cls-10" d="M19.5,55.6a.56.56,0,0,1-.38-.24,2.71,2.71,0,0,1-.33-2.08c.12-.54.36-1.17.83-1.15h.08c.52.09.76.64.85,1a2.53,2.53,0,0,1-.38,2.32.6.6,0,0,1-.39.16h-.15A.3.3,0,0,1,19.5,55.6Z"/><path class="cls-10" d="M29.66,59.63c-.15,0-.33-.1-.46-.44l0-.06,0-.05a1.41,1.41,0,0,1-.21-.31A2.8,2.8,0,0,1,29,56.49.84.84,0,0,1,29.9,56a.91.91,0,0,1,.39.2,2.26,2.26,0,0,1,.44,2c-.11.55-.43,1.48-1,1.42Z"/><path class="cls-10" d="M46.11,40.12a.75.75,0,0,1-.58-.23,1.46,1.46,0,0,1-.29-1.08v-.08a2.38,2.38,0,0,1,.33-1.79,1,1,0,0,1,.84-.46,1,1,0,0,1,.59.21,2.09,2.09,0,0,1,.5,2.22,1.52,1.52,0,0,1-1.31,1.21Z"/><path class="cls-11" d="M26.37,35.19a.66.66,0,0,0-.19-.09c.25.64-.48,1.34-.95,1.65a2.67,2.67,0,0,1-1.9.52.81.81,0,0,1-.27-.11.92.92,0,0,0,0,.58c.1.22.36.3.76.24h0l.3-.06c.65-.19,2.45-1.35,2.56-2.18C26.74,35.6,26.72,35.4,26.37,35.19Z"/><path class="cls-11" d="M17.08,41.2a1,1,0,0,0-.1-.34,2.22,2.22,0,0,1-.29,1.3A3,3,0,0,1,15,43.48a.94.94,0,0,1-.44,0,1,1,0,0,0,.4.85.6.6,0,0,0,.35.11h0a1,1,0,0,0,.68-.39A5,5,0,0,0,17.08,41.2Z"/><path class="cls-11" d="M35.07,42a4.55,4.55,0,0,0,0-.61v0a2.56,2.56,0,0,1-1.86,1.77,1.09,1.09,0,0,1-.91-.22,1.17,1.17,0,0,0,.74,1.22,1.34,1.34,0,0,0,.41,0C34.55,44.14,35,42.91,35.07,42Z"/><path class="cls-11" d="M16.74,66.06a6.14,6.14,0,0,0-.17-.68s0,.08,0,.11c.11.88,0,2.09-1,2.45h0a1.06,1.06,0,0,0,.68.36h0a.47.47,0,0,0,.36-.18A3,3,0,0,0,16.74,66.06Z"/><path class="cls-11" d="M24.74,74c-.29-.7-1.28-2.09-1.79-2.09a.16.16,0,0,0-.11,0l.09,0c1.26.39,1.89,2.65.89,3.56a1,1,0,0,1-.56.29,1.45,1.45,0,0,0,1,.58h.06a.69.69,0,0,0,.56-.33A2.79,2.79,0,0,0,24.74,74Z"/><path class="cls-11" d="M43.27,55.36c-.18.87-.91,2-1.94,1.8A1.28,1.28,0,0,1,40.9,57a1.52,1.52,0,0,0,.37.67l0,0,.05.08,0,.07a.65.65,0,0,0,.55.32.83.83,0,0,0,.53-.22,3,3,0,0,0,.85-1.87,4.44,4.44,0,0,0,0-.89Z"/><path class="cls-11" d="M19.07,55a1,1,0,0,1-.24-.23,1.65,1.65,0,0,0,.29.61.56.56,0,0,0,.38.24.3.3,0,0,0,.13,0h.15a.6.6,0,0,0,.39-.16A2,2,0,0,0,20.66,54C20.35,54.68,19.77,55.41,19.07,55Z"/><path class="cls-11" d="M30.68,56.81a3.93,3.93,0,0,1-.2.54,1.35,1.35,0,0,1-.28.51s0,0,0,0a2.2,2.2,0,0,1-.61.71.41.41,0,0,1-.46,0,.58.58,0,0,1-.29-.15c0,.1.07.2.11.3a1.41,1.41,0,0,0,.21.31l0,.05,0,.06c.13.34.31.42.46.44h.07c.57.06.89-.87,1-1.42A3.06,3.06,0,0,0,30.68,56.81Z"/><path class="cls-11" d="M47.37,37.13a1.28,1.28,0,0,1,0,.51c-.18.73-.76,1.73-1.64,1.67a1,1,0,0,1-.44-.12,1.18,1.18,0,0,0,.28.7.75.75,0,0,0,.58.23h.08a1.52,1.52,0,0,0,1.31-1.21A2.39,2.39,0,0,0,47.37,37.13Z"/><path class="cls-5" d="M68,33.18a4.42,4.42,0,0,1,1.27.62c1.28.9,1.63,2.87-.41,2.6-1-.12-4.35-1.69-2.76-3A2,2,0,0,1,68,33.18Z"/><path class="cls-5" d="M72.68,42.19a1.14,1.14,0,0,1,1.72-1,3.72,3.72,0,0,1,1.3,2.2c.31.87.3,1.84-.38,2.25C73.8,46.6,72.58,43.24,72.68,42.19Z"/><path class="cls-5" d="M56.59,44.15a2.22,2.22,0,0,1,1.17-1.8,1.38,1.38,0,0,1,1.76.76,4.11,4.11,0,0,1,.21,2.45c-.11.6-.33,1.38-.92,1.65a.9.9,0,0,1-.31.24c-.63.29-1.31-.35-1.6-.85A3.47,3.47,0,0,1,56.59,44.15Z"/><path class="cls-5" d="M74.62,64.84a4.1,4.1,0,0,1,1.1-2.31c.9-.74,1.65.1,1.82,1A3.74,3.74,0,0,1,77.16,66c-.32.56-1,1.57-1.8,1.5C74.19,67.41,74.47,65.57,74.62,64.84Z"/><path class="cls-5" d="M66.46,75.66c.35-.86,2.19-3.65,2.81-1.54a4.46,4.46,0,0,1-.3,3.09c-.32.58-1,1.41-1.76,1.34C65.83,78.41,66.09,76.54,66.46,75.66Z"/><path class="cls-5" d="M47.69,49a1.35,1.35,0,0,1,2-.26,3.51,3.51,0,0,1,.79,2.21,2.85,2.85,0,0,1-.57,2.1l-.06.13a1,1,0,0,1-1.62.18,3.73,3.73,0,0,1-.5-4.36Z"/><path class="cls-5" d="M58.46,67.87c.83-.09,1.13.82,1.25,1.48a3,3,0,0,1-.51,2.35.82.82,0,0,1-.89.31.86.86,0,0,1-.67-.27C56.72,70.87,57,68,58.46,67.87Z"/><path class="cls-5" d="M59.12,78.23a1.14,1.14,0,0,1,1.71.74,3.2,3.2,0,0,1-.38,2.56,1.56,1.56,0,0,1-.33.35.94.94,0,0,1-.94.51c-.85-.08-1-1.26-1-1.93A2.57,2.57,0,0,1,59.12,78.23Z"/><path class="cls-10" d="M69.45,36c.4,0,.64-.12.71-.35A1.75,1.75,0,0,0,69.3,34a4.32,4.32,0,0,0-1.16-.57,2.64,2.64,0,0,0-.74-.12,1.28,1.28,0,0,0-.84.27c-.32.26-.31.46-.27.6.23.8,2.18,1.7,2.85,1.79l.31,0Z"/><path class="cls-10" d="M75,45.35a.62.62,0,0,0,.35-.11c.53-.33.45-1.19.23-1.83v0a3.32,3.32,0,0,0-1.15-2,.74.74,0,0,0-.39-.12.87.87,0,0,0-.79.83A5,5,0,0,0,74.35,45a1,1,0,0,0,.68.39Z"/><path class="cls-10" d="M58.41,46.8c.71,0,1.07-.69,1.21-1.42a3.74,3.74,0,0,0-.18-2.23,1.07,1.07,0,0,0-.94-.66,1.27,1.27,0,0,0-.38.07c-.47.19-.78.69-.95,1.54S57,46.31,58,46.7A1.36,1.36,0,0,0,58.41,46.8Z"/><path class="cls-10" d="M75.67,67c.48,0,1-.68,1.42-1.32a3.48,3.48,0,0,0,.34-2.24c-.1-.49-.42-1-.79-1a.77.77,0,0,0-.46.2,3.71,3.71,0,0,0-1,2.11,3,3,0,0,0,.07,2.06.45.45,0,0,0,.36.19Z"/><path class="cls-10" d="M67.54,78.09c.48,0,1-.59,1.35-1.16a4.05,4.05,0,0,0,.27-2.83c0-.15-.17-.51-.35-.51-.51,0-1.5,1.38-1.79,2.09a2.76,2.76,0,0,0-.1,2.07.69.69,0,0,0,.56.33Z"/><path class="cls-10" d="M49.2,53.17a.62.62,0,0,0,.54-.31l0-.07,0-.09,0,0a2.58,2.58,0,0,0,.46-1.83,3.05,3.05,0,0,0-.67-2,.84.84,0,0,0-.59-.23,1.11,1.11,0,0,0-.85.43,3.06,3.06,0,0,0-.39,2A2.89,2.89,0,0,0,48.66,53a.78.78,0,0,0,.54.22Z"/><path class="cls-10" d="M58.77,71.58a.58.58,0,0,0,.4-.22,2.7,2.7,0,0,0,.42-2.07c-.09-.54-.3-1.19-.78-1.19h-.07c-.53,0-.79.6-.9.92a2.57,2.57,0,0,0,.27,2.34.59.59,0,0,0,.39.17h.09l.06,0Z"/><path class="cls-10" d="M59.52,81.93a.58.58,0,0,0,.53-.35l0-.06.06,0a1.33,1.33,0,0,0,.26-.27A2.84,2.84,0,0,0,60.73,79,.82.82,0,0,0,60,78.3a.88.88,0,0,0-.43.12,2.25,2.25,0,0,0-.8,1.92c0,.56.15,1.53.72,1.59Z"/><path class="cls-11" d="M66.56,33.55l.17-.11c-.15.67.68,1.25,1.18,1.49a2.68,2.68,0,0,0,2,.25,1,1,0,0,0,.25-.15.91.91,0,0,1,0,.58c-.07.23-.31.35-.71.35h0l-.31,0c-.67-.09-2.62-1-2.85-1.79C66.25,34,66.24,33.81,66.56,33.55Z"/><path class="cls-11" d="M73.27,42.1a1,1,0,0,1,.09-.34,2.3,2.3,0,0,0,.29,1.3,3,3,0,0,0,1.69,1.32.94.94,0,0,0,.44,0,1,1,0,0,1-.4.85.62.62,0,0,1-.35.11h0a1,1,0,0,1-.68-.39A5,5,0,0,1,73.27,42.1Z"/><path class="cls-11" d="M57.17,44.1c0-.22.1-.41.16-.59v0a2.56,2.56,0,0,0,1.22,2.26,1.08,1.08,0,0,0,.94.07c-.19.53-.54,1-1.08.93a1.36,1.36,0,0,1-.41-.1C57,46.31,57,45,57.17,44.1Z"/><path class="cls-11" d="M75.2,64.79c0-.24.11-.46.17-.67,0,0,0,.08,0,.11-.11.88,0,2.08,1,2.45h0a1.09,1.09,0,0,1-.68.35h0a.45.45,0,0,1-.36-.19A3,3,0,0,1,75.2,64.79Z"/><path class="cls-11" d="M67,75.68c.29-.71,1.28-2.09,1.79-2.09a.15.15,0,0,1,.11,0l-.09,0c-1.26.39-1.89,2.65-.89,3.56a1,1,0,0,0,.56.29,1.47,1.47,0,0,1-1,.59h-.06a.69.69,0,0,1-.56-.33A2.76,2.76,0,0,1,67,75.68Z"/><path class="cls-11" d="M47.85,50.36c.18.86.91,2,1.95,1.8a1.32,1.32,0,0,0,.42-.17,1.6,1.6,0,0,1-.36.68l0,0,0,.09,0,.07a.62.62,0,0,1-.54.31.78.78,0,0,1-.54-.22,2.89,2.89,0,0,1-.84-1.86,3.78,3.78,0,0,1,0-.89Z"/><path class="cls-11" d="M59.23,71a1,1,0,0,0,.26-.21,1.81,1.81,0,0,1-.32.6.58.58,0,0,1-.4.22l-.12,0-.06,0H58.5a.59.59,0,0,1-.39-.17A2,2,0,0,1,57.69,70C58,70.62,58.52,71.38,59.23,71Z"/><path class="cls-11" d="M59,79a2.82,2.82,0,0,0,.09.57,1.47,1.47,0,0,0,.18.56s0,0,0,0a2,2,0,0,0,.47.81.4.4,0,0,0,.44.09.52.52,0,0,0,.31-.09,1.82,1.82,0,0,1-.15.27,1.33,1.33,0,0,1-.26.27l-.06,0,0,.06a.58.58,0,0,1-.53.35h-.07c-.57-.06-.72-1-.72-1.59A3.06,3.06,0,0,1,59,79Z"/><path class="cls-24" d="M29.24,88.26S27.43,59.69,39.77,59.38c12-.3,10.48,30.39,10.48,30.39a7,7,0,0,1-3.28,0s1.74-27.36-7.76-27.15c-8.23.17-7.05,26-7.05,26A7.53,7.53,0,0,1,29.24,88.26Z"/><path class="cls-25" d="M39.21,62.6c-8.23.17-7.05,26-7.05,26l.68-.53S31.71,64.33,39,62.83c3.06-.63,5.17,3.25,6.46,6.87C44.34,65.6,42.42,62.53,39.21,62.6Z"/><path class="cls-26" d="M45.38,69.32l.11.38c-1.29-3.62-3.4-7.5-6.46-6.87-7.32,1.5-6.19,25.23-6.19,25.23L47,88.69h0C47.15,85.53,47.34,76,45.38,69.32Z"/><path class="cls-27" d="M34.83,75.46c.33.29.12.69,0,1-.31.56.06,1.28.16,1.85a1.82,1.82,0,0,1,0,1c0,.14-.16.32-.32.35-.65.1-.66-1.45-.66-1.77a4.44,4.44,0,0,1,.38-1.75C34.4,76,34.6,75.49,34.83,75.46Z"/><g class="cls-28"><path class="cls-24" d="M37.16,87.3a11.87,11.87,0,0,1-3-6.35,21.08,21.08,0,0,1,.22-8.84,17.88,17.88,0,0,1,2.71-6.6A6.05,6.05,0,0,1,41,63.06a3.07,3.07,0,0,0-2-.23c-7.32,1.5-6.19,25.23-6.19,25.23l5.59.25A7.61,7.61,0,0,1,37.16,87.3Z"/></g><path class="cls-27" d="M34.24,81.05c-.05.19.06.63.3.63s.39-.48.42-.67a.71.71,0,0,0-.2-.71C34.39,80.06,34.24,80.81,34.24,81.05Z"/><g class="cls-29"><path class="cls-26" d="M46.63,75.88a8,8,0,0,1-.39-1.61,8.37,8.37,0,0,1-.06-1.5c-.19-1.07-.42-2.1-.69-3.07-.21-.6-.45-1.2-.71-1.79a7.22,7.22,0,0,1-.77-.56,6.94,6.94,0,0,1-.78-2.27,5.21,5.21,0,0,0-2.81-2.22c0,.1,0,.21,0,.32-.09,1.19-.21,2.37-.23,3.56,0,1.52,0,3,.07,4.53-.05.85,0,1.7-.06,2.56a5.5,5.5,0,0,1-.24,1.45c-.15.42-.36.82-.5,1.24A12.22,12.22,0,0,0,39,79.14c0,.39-.09,1.29-.66,1.32a8.31,8.31,0,0,0,.17-3.22c0-.78-.51-2.08.12-2.73.56,1.12.75-.88.72-1.27a13.3,13.3,0,0,1-.1-2.09c.1-1.22.32-2.4.3-3.63a41.73,41.73,0,0,1,.19-4.75c-.1,0-.21,0-.31,0-.22,2.23,0,4.53-.47,6.71a7.87,7.87,0,0,0-.06,1.75,4.51,4.51,0,0,1-.14-1.9,36,36,0,0,0-.08-5c0-.47-.05-.95-.07-1.42a3.74,3.74,0,0,0-.88.42,14.23,14.23,0,0,0,.08,3.32,12.37,12.37,0,0,1,0,3.1A15,15,0,0,0,38,72.61a12.91,12.91,0,0,1,0,3,19.51,19.51,0,0,0-.28,3,9.61,9.61,0,0,1-.06,3,15.9,15.9,0,0,1-1.05,2.35A7.8,7.8,0,0,0,36,85.53c.1-.88.42-1.71.51-2.61.12-1.15,0-2.31.15-3.46a31.32,31.32,0,0,1,.72-3.33,4.33,4.33,0,0,0,.08-1.48c-.08-.55-.32-1.07-.4-1.63-.16-1.14.17-2.29,0-3.45A21.37,21.37,0,0,1,36.73,66,13,13,0,0,1,37,64a8.8,8.8,0,0,0-1.65,2.6c0,.23-.06.47-.08.71a10.22,10.22,0,0,0,.13,2.59,8.84,8.84,0,0,1,.2,2.76,17.24,17.24,0,0,0-.29,2.77,25.28,25.28,0,0,0,.39,2.75,8,8,0,0,1-.28,3c-.18.8-.17,1.63-.29,2.44-.23,1.53-1.18,3-1.12,4.51h.16a7.65,7.65,0,0,1,.66-2.67,11.35,11.35,0,0,0,.62-2.77,11,11,0,0,1,.48-2c0,.18,0,.35,0,.53A11,11,0,0,1,35.6,84a7.23,7.23,0,0,0-.27,2.7c.06.51.13,1,.21,1.51l.88,0a9.52,9.52,0,0,1,.76-4.1c.21-.43.44-.86.64-1.3.06.29.14.57.19.84a32.87,32.87,0,0,1,.55,3.84c0,.27,0,.54,0,.81l.83,0a7.17,7.17,0,0,1,.37-1.83A7.57,7.57,0,0,1,40.63,85l0,0A8.59,8.59,0,0,0,41,86.27a21.38,21.38,0,0,1,.72,2.18h.12a5.28,5.28,0,0,0-.16-.66,19.29,19.29,0,0,1-.81-2.91,2,2,0,0,1,0-.26,2.72,2.72,0,0,0,.12-1.07c0-.32,0-.64-.08-1A2,2,0,0,1,41.1,82a2.13,2.13,0,0,0,.27-1.36c0-.18,0-.37,0-.55a1.93,1.93,0,0,1,0-.24,14.84,14.84,0,0,1,.47-3,7.35,7.35,0,0,0,.3-2.55v0a13.11,13.11,0,0,1,0-1.88,13.77,13.77,0,0,0,.51-2.54v-.13c0-.91-.55-1.85-.28-2.76.23,1,.63,2,.94,3a4.3,4.3,0,0,1,.15,2.72,7.91,7.91,0,0,0-.33,1.65c0,.46.14.91.17,1.36S43.46,77.65,43,78a4.55,4.55,0,0,1-.09-2.32c.13-.83-.14-1.61,0-2.45a6,6,0,0,0-.12,2.1c0,.81-.45,1.68-.31,2.5,0,.24.22.43.27.68a8.17,8.17,0,0,1,0,1.64,11.32,11.32,0,0,0,.09,1.43c.19,1.44-.39,2.86-.16,4.34a21.51,21.51,0,0,0,.69,2.59l.77,0c-.11-1.93-.15-3.87-.09-5.79,0-1.11.13-2.21.22-3.31a11.17,11.17,0,0,1,.43,1.8c.28,2.44-.35,4.86-.55,7.3l.51,0c.27-2.44.83-4.86.58-7.31a13.67,13.67,0,0,1,0-3.78c.34.79.91,1.63,1.3,2.45,1,2.16-.89,4.16-1.14,6.25-.06.52-.07,1-.1,1.56a3.87,3.87,0,0,1-.15.85l.54,0a5.74,5.74,0,0,0,.25-1,12.68,12.68,0,0,1,1.24-3.79A79.39,79.39,0,0,0,46.63,75.88ZM36,67.61a12.87,12.87,0,0,0,.67,2.52,3.26,3.26,0,0,1-.34,2.45,7.82,7.82,0,0,0-.23-3.22A7.92,7.92,0,0,1,36,67.61ZM36,76c.06-.86.19-1.7.31-2.56a6.64,6.64,0,0,1,.35,2.21c-.11.92-.4,1.82-.56,2.73A21,21,0,0,1,36,76Zm3.46,6.81A8.54,8.54,0,0,1,39,84.72a3.14,3.14,0,0,0-.13.68c0,.1-.06.21-.08.31h0c-.06-.4-.13-.81-.19-1.23-.14-.91-.6-2.39.25-3.11.26-.22.53-.29.68-.63a.08.08,0,0,1,0,0C39.51,81.39,39.51,82.09,39.47,82.79Zm2.1-10.37a16.13,16.13,0,0,0-.1,2.78,19.64,19.64,0,0,1-.58,2.47c-.09.72.4,2.2-.11,2.79a8.79,8.79,0,0,1-.54-2.25,16,16,0,0,1,.31-2.49,4.7,4.7,0,0,0,.35-1.5,25.75,25.75,0,0,0-.29-2.77,23.23,23.23,0,0,1,0-2.5c0-.7.19-2.39.82-2.83a16.86,16.86,0,0,0,0,2c.07.69.56,1.26.64,1.91a8.65,8.65,0,0,1-.49,2.33A.09.09,0,0,1,41.57,72.42Zm2.8-2.32a13.49,13.49,0,0,0-1.1-2.34,7.4,7.4,0,0,1-.74-2.88.11.11,0,0,1,0,0,.05.05,0,0,0,0,0c0-.15,0-.31,0-.46a8.3,8.3,0,0,0,.58,2.33,2.77,2.77,0,0,0,.55.85,3.74,3.74,0,0,0,.37.87,1,1,0,0,0,.54.35c.05.07.11.13.16.19a.15.15,0,0,0,.18,0,1.86,1.86,0,0,1,.29,1.2c0,1.24-.11,2.47,0,3.7a10.27,10.27,0,0,1-.32-1.21C44.63,71.81,44.61,70.93,44.37,70.1Zm2.23,8.28a16.6,16.6,0,0,1-1.21-1.91,8.67,8.67,0,0,1-.52-1.89c.5,1.3,1.16,2.54,1.73,3.81Z"/><path class="cls-26" d="M45.48,69.67v0h0A0,0,0,0,1,45.48,69.67Z"/><path class="cls-26" d="M34.43,82.63a18.74,18.74,0,0,0,.33-3.18c0-1.12-.18-2.22-.14-3.34a36.52,36.52,0,0,0-.14-6.53c0-.17,0-.34-.06-.5l-.06.23a.13.13,0,0,0,0,.06c.06.52.16,1,.17,1.56a12.07,12.07,0,0,1-.18,2C34.22,74,34,75.13,34,76.27a28.51,28.51,0,0,0,.22,3.2,11.25,11.25,0,0,1-.27,3.32c-.12.6-.31,1.18-.48,1.76A17.48,17.48,0,0,0,33.38,81c-.12-1.08-.26-2.15-.35-3.23C33,78.87,32.89,80,32.85,81A17.05,17.05,0,0,1,33,83a6.91,6.91,0,0,1-.25,1.51c0,1.89,0,3.21.06,3.52,0,0,0,0,0,.06l.92,0A15.16,15.16,0,0,1,34,85.78C34.14,84.73,34.24,83.68,34.43,82.63Z"/></g><path class="cls-30" d="M33.88,75.75a3.63,3.63,0,0,0-.38,2c0,.48.13,1.39.66,1.58a.47.47,0,0,0,.66-.52c0-.22-.27-.26-.36-.46A2.69,2.69,0,0,1,34.68,76c.1-.12.23-.2.19-.39s-.29-.36-.55-.25A1,1,0,0,0,33.88,75.75Z"/><path class="cls-30" d="M34.46,80.07c-.41-.18-.7.76-.22,1.12s.65-.66.44-.93A.53.53,0,0,0,34.46,80.07Z"/><path class="cls-31" d="M29.15,85.39c0,1.77.09,2.87.09,2.87a.66.66,0,0,0,.19.09A14.7,14.7,0,0,0,29.15,85.39Z"/><path class="cls-31" d="M30.62,88.58a55.44,55.44,0,0,0-.75-5.89c-.2-1-.41-2-.59-2.93a.57.57,0,0,1,0,.13c0,.27,0,.54.05.81.15,2.57,1,5.09.94,7.67a.71.71,0,0,1,0,.17Z"/><path class="cls-31" d="M32.47,65.84c0-.34,0-.69,0-1a.91.91,0,0,1-.07.14c-.29,1.37-.51,2.76-.8,4.13-.23,1-.42,2.1-.55,3.16.29-1,.73-1.94,1-2.94A13.8,13.8,0,0,0,32.47,65.84Z"/><path class="cls-31" d="M31.12,82.23a67.06,67.06,0,0,1-1-6.75,21.27,21.27,0,0,1,.31-4.43c-.36,1.67-.62,3.39-.81,5.06a59.27,59.27,0,0,0,1.12,6.59,58.53,58.53,0,0,1,.74,5.91h.29A46.89,46.89,0,0,0,31.12,82.23Z"/><path class="cls-31" d="M32.72,74.24a9.78,9.78,0,0,1,.18-3.81c.22-1,.68-1.93.92-2.91s.44-2,.74-3a9.88,9.88,0,0,1,2.26-4.14,6.73,6.73,0,0,1,.72-.6,8.53,8.53,0,0,0-4.28,3.68,13.59,13.59,0,0,1,0,2.21,15.38,15.38,0,0,1-.45,3.83,34.93,34.93,0,0,0-1.11,3.32c-.08.39-.39,2.79-1,2.51a10.66,10.66,0,0,0,.58,3.75c.27,1.11.49,2.24.66,3.38,0,.3.09.6.13.91a79.85,79.85,0,0,1,.64-9A.56.56,0,0,1,32.72,74.24Z"/><path class="cls-31" d="M37.07,63.21a5,5,0,0,1,3-2.21c.7-.12,1.39,0,2.09-.14a9.92,9.92,0,0,0,1.26-.44,6.15,6.15,0,0,0-3.14-1,9,9,0,0,0-3.52,3.5A13.84,13.84,0,0,0,36,64.37a5.5,5.5,0,0,1,1-1A.51.51,0,0,1,37.07,63.21Z"/><path class="cls-31" d="M46.7,65.26a5.3,5.3,0,0,0,.66.68,17.74,17.74,0,0,0-1.29-2.58A2.9,2.9,0,0,0,46.7,65.26Z"/><path class="cls-31" d="M48.11,68.08,48,68a8.65,8.65,0,0,1-2.63-2.82A4.56,4.56,0,0,1,45.07,62a8.18,8.18,0,0,0-.81-.85,8.32,8.32,0,0,1-2.6,1.1,12.47,12.47,0,0,1-1.58.37l-.25,0a4.48,4.48,0,0,1,1.72.57h0a2.76,2.76,0,0,1,2.36.75,11.78,11.78,0,0,1,1.27,2.71,5.16,5.16,0,0,0,1.62,1.6c.48.36,1.66,1.09,1.81,1.68C48.46,69.3,48.29,68.68,48.11,68.08Z"/><path class="cls-31" d="M46.36,72.08c.45,1.22.91,2.43,1.37,3.66a25.31,25.31,0,0,0,1.19,2.46,18.42,18.42,0,0,1,1.25,3.29c-.1-1.91-.27-4-.55-6.12a15.05,15.05,0,0,0-1.78-3.48c-.77-1.14-1.75-2.19-2.4-3.4s-1.2-3.16-2.39-4a5.42,5.42,0,0,1,1.18,1.85,17.08,17.08,0,0,1,1,2.39C45.56,69.87,46,71,46.36,72.08Z"/><path class="cls-31" d="M49.48,83.6a27.65,27.65,0,0,1-1,6.36c.27,0,.51,0,.73,0A23.64,23.64,0,0,0,49.48,83.6Z"/><path class="cls-31" d="M47.11,89.78c-.14-2.54.6-5.09.54-7.66a36.61,36.61,0,0,0-.89-5.07l0-.22A90.21,90.21,0,0,1,47,89.75Z"/><path class="cls-31" d="M48.42,81.37a.78.78,0,0,0,0,.16c.24,2.49-.51,5-.54,7.44C48.48,86.46,49,83.88,48.42,81.37Z"/><g class="cls-8"><path class="cls-24" d="M40,59.87c3.63-.09,6,2.67,7.59,6.55-1.57-4.14-4-7.14-7.78-7-12.34.31-10.53,28.88-10.53,28.88l.17.09C29.24,84.86,28.49,60.16,40,59.87Z"/><path class="cls-24" d="M47.19,89.8c.12-2.47.57-14.91-2.29-21.91,3,7.9,2.07,21.86,2.07,21.86Z"/></g><polygon class="cls-24" points="32.85 88.06 31.74 88.86 31.91 89.24 47.19 89.8 47.02 88.69 32.85 88.06"/><polygon class="cls-25" points="31.74 88.86 47.13 89.38 47.19 89.8 31.91 89.24 31.74 88.86"/><path class="cls-32" d="M34.46,78.38A2.69,2.69,0,0,1,34.68,76c.1-.12.23-.2.19-.39a.42.42,0,0,0-.11-.22.56.56,0,0,1,0,.12A6.65,6.65,0,0,0,34,76.82c-.12.52.08,1,0,1.53a1,1,0,0,1,0,.17v0a.41.41,0,0,1-.26.37h0a.78.78,0,0,0,.43.44.47.47,0,0,0,.66-.52C34.78,78.62,34.55,78.58,34.46,78.38Z"/><path class="cls-32" d="M34.68,80.26l-.09-.1s0,0,0,0a.87.87,0,0,1-.19.75.38.38,0,0,1-.29.12.63.63,0,0,0,.11.12C34.69,81.53,34.89,80.53,34.68,80.26Z"/><g class="cls-33"><path class="cls-34" d="M31.28,58.45c-.12.66-.52,1.78-1.37,1.7a.92.92,0,0,1-.83-.68,1.45,1.45,0,0,1-.26-.4,2.53,2.53,0,0,1-.22-.91,2.8,2.8,0,0,0,.22,1.38,1.45,1.45,0,0,0,.26.4,1,1,0,0,0,.83.69c.85.07,1.25-1.05,1.37-1.72a3.53,3.53,0,0,0,.06-.93A3.55,3.55,0,0,1,31.28,58.45Z"/><path class="cls-34" d="M43.89,56.24a3.31,3.31,0,0,1-1,2.1,1,1,0,0,1-1.61-.18.75.75,0,0,1-.07-.12,2.42,2.42,0,0,1-.57-1.57,2.79,2.79,0,0,0,.57,2,.75.75,0,0,0,.07.12,1,1,0,0,0,1.61.18,3.31,3.31,0,0,0,1-2.1,5.45,5.45,0,0,0,0-.71A1.66,1.66,0,0,1,43.89,56.24Z"/><path class="cls-34" d="M35.61,42.21a3.48,3.48,0,0,1-1,2.24c-.43.38-1.28.79-1.79.32a1,1,0,0,1-.22-.32,1.43,1.43,0,0,1-.4-1,1.77,1.77,0,0,0,.4,1.46,1,1,0,0,0,.22.33c.51.47,1.36.06,1.79-.31a3.53,3.53,0,0,0,1-2.25,3.94,3.94,0,0,0,0-.77A1.53,1.53,0,0,1,35.61,42.21Z"/><path class="cls-34" d="M24.51,38.34c-1,.28-1.47-.07-1.56-.63-.12.8.32,1.45,1.56,1.1.77-.22,3.13-1.71,2.79-2.81C27,37,25.17,38.15,24.51,38.34Z"/><path class="cls-34" d="M17.65,41.68C17.51,43,16.39,45.6,15,44.76a1.25,1.25,0,0,1-.56-1A1.44,1.44,0,0,0,15,45.23c1.52.94,2.75-2.42,2.64-3.47A.19.19,0,0,0,17.65,41.68Z"/><path class="cls-34" d="M24.55,76.84c-.75.07-1.44-.76-1.76-1.34a4.2,4.2,0,0,1-.44-1.72A4.33,4.33,0,0,0,22.79,76c.32.58,1,1.41,1.76,1.34s1.09-.89,1-1.69C25.53,76.24,25.26,76.77,24.55,76.84Z"/><path class="cls-34" d="M16.58,68.77c-.76.07-1.47-.93-1.8-1.5a3.64,3.64,0,0,1-.44-1.53,3.81,3.81,0,0,0,.44,2c.33.56,1,1.56,1.8,1.49s.92-.91.88-1.69C17.42,68.17,17.2,68.72,16.58,68.77Z"/><path class="cls-34" d="M20.63,55.81a.84.84,0,0,1-.68.24.82.82,0,0,1-.88-.34,2.6,2.6,0,0,1-.47-1.4,2.84,2.84,0,0,0,.47,1.87.84.84,0,0,0,.88.35.91.91,0,0,0,.68-.24,2.55,2.55,0,0,0,.61-2A2.24,2.24,0,0,1,20.63,55.81Z"/><path class="cls-34" d="M48.19,38.5a2.06,2.06,0,0,1-1.75,2.09c-1,.06-1.37-.79-1.31-1.69a2,2,0,0,1,0-.35,2.83,2.83,0,0,0,0,.82c-.06.9.32,1.75,1.31,1.69A2.19,2.19,0,0,0,48.19,38.5Z"/><path class="cls-34" d="M68.86,36.4c-.72-.09-2.83-1-3.14-2-.38,1.18,2.31,2.39,3.14,2.49,1.17.16,1.55-.42,1.43-1.12C70.18,36.21,69.75,36.52,68.86,36.4Z"/><path class="cls-34" d="M75.32,46.13a1.44,1.44,0,0,0,.57-1.45,1.26,1.26,0,0,1-.57,1c-1.36.84-2.48-1.78-2.63-3.08,0,0,0,.05,0,.08C72.58,43.71,73.8,47.07,75.32,46.13Z"/><path class="cls-34" d="M69,77.21c-.32.58-1,1.41-1.76,1.34s-1-.6-1-1.22c-.06.8.15,1.6,1,1.69s1.44-.75,1.76-1.34a4.33,4.33,0,0,0,.44-2.19A4.16,4.16,0,0,1,69,77.21Z"/><path class="cls-34" d="M77.16,66c-.32.56-1,1.57-1.8,1.5s-.83-.61-.87-1.22c0,.77.09,1.62.87,1.69s1.48-.94,1.8-1.5a3.8,3.8,0,0,0,.44-2A3.58,3.58,0,0,1,77.16,66Z"/><path class="cls-34" d="M58.31,72.48a.83.83,0,0,0,.89-.3,2.9,2.9,0,0,0,.54-2,2.58,2.58,0,0,1-.54,1.54.82.82,0,0,1-.89.31.86.86,0,0,1-.67-.27,2.12,2.12,0,0,1-.53-1.39,2.43,2.43,0,0,0,.53,1.86A.86.86,0,0,0,58.31,72.48Z"/><path class="cls-34" d="M58.5,47.92a.79.79,0,0,0,.31-.24c.59-.27.81-1,.92-1.64a5.4,5.4,0,0,0,.09-1.21c0,.25,0,.5-.09.73-.11.6-.33,1.38-.92,1.65a.9.9,0,0,1-.31.24c-.63.29-1.31-.35-1.6-.85a2.86,2.86,0,0,1-.39-1.34,3.15,3.15,0,0,0,.39,1.81C57.19,47.57,57.87,48.21,58.5,47.92Z"/><path class="cls-34" d="M49.87,53l-.06.13a1,1,0,0,1-1.62.18,3.36,3.36,0,0,1-1-2.1c0-.08,0-.16,0-.24a5.45,5.45,0,0,0,0,.71,3.36,3.36,0,0,0,1,2.1,1,1,0,0,0,1.62-.18l.06-.13a2.72,2.72,0,0,0,.57-2A2.39,2.39,0,0,1,49.87,53Z"/><path class="cls-34" d="M60.45,81.53a1.56,1.56,0,0,1-.33.35.94.94,0,0,1-.94.51c-.76-.07-1-1-1-1.7a1.93,1.93,0,0,0,0,.24c0,.67.19,1.85,1,1.94a1,1,0,0,0,.94-.52,1.56,1.56,0,0,0,.33-.35,3.12,3.12,0,0,0,.49-1.94A3,3,0,0,1,60.45,81.53Z"/></g><path class="cls-35" d="M72,56.24c-.41,5.62-4.51,9.9-9.16,9.56S54.73,60.63,55.14,55s4.5-9.9,9.15-9.56S72.37,50.62,72,56.24Z"/><path class="cls-36" d="M71.32,56.19c-.4,5.39-4.34,9.49-8.81,9.17s-7.77-5-7.37-10.35,4.33-9.49,8.8-9.17S71.71,50.8,71.32,56.19Z"/><path class="cls-37" d="M62.56,55.38l.23-8.22a.17.17,0,0,0-.18-.17c-3.68.21-6.79,3.74-7.12,8.27l0,.45a.16.16,0,0,0,.18.16c1.74-.13,5.77-.29,6.76-.33A.16.16,0,0,0,62.56,55.38Z"/><path class="cls-37" d="M55.66,56.65a.15.15,0,0,0-.17.17c.31,4.16,3.06,7.5,6.65,7.77h0a.17.17,0,0,0,.17-.16l.22-8a.16.16,0,0,0-.17-.17C61.37,56.31,56.68,56.72,55.66,56.65Z"/><path class="cls-37" d="M70.09,55c-.2-4.19-2.87-7.61-6.41-8a.16.16,0,0,0-.18.16l-.23,8.15a.18.18,0,0,0,.17.17l6.49-.29A.17.17,0,0,0,70.09,55Z"/><path class="cls-37" d="M63.25,56.33,63,64.4a.17.17,0,0,0,.18.17c3.57-.36,6.55-3.82,6.87-8.25,0-.09,0-.18,0-.26a.18.18,0,0,0-.17-.18c-1.44.07-5.35.25-6.52.29A.17.17,0,0,0,63.25,56.33Z"/><path class="cls-38" d="M55.64,55.87h0q3.45-3.3,7-6.41l.07-2.3a.17.17,0,0,0-.18-.17c-3.68.21-6.79,3.74-7.12,8.27l0,.45A.16.16,0,0,0,55.64,55.87Z"/><path class="cls-38" d="M61,55.6l1.45-.06a.16.16,0,0,0,.16-.16l0-1.32Z"/><path class="cls-38" d="M62.53,56.56v-.17a.16.16,0,0,0-.17-.17l-2.27.2c-1.27,1.21-2.53,2.45-3.78,3.7a8.8,8.8,0,0,0,.79,1.41C58.88,59.84,60.69,58.19,62.53,56.56Z"/><path class="cls-38" d="M59.75,63.91a6.11,6.11,0,0,0,2.39.68h0a.17.17,0,0,0,.17-.16l.08-3C61.51,62.28,60.62,63.09,59.75,63.91Z"/><path class="cls-38" d="M65.18,47.39a6.33,6.33,0,0,0-1.5-.37.16.16,0,0,0-.18.16l0,1.66C64,48.35,64.6,47.87,65.18,47.39Z"/><path class="cls-38" d="M63.44,55.5l.32,0Q66.37,53.22,69,51a8.53,8.53,0,0,0-1.15-1.71L66,50.93c-.91.81-1.82,1.63-2.71,2.45l-.06,1.95A.18.18,0,0,0,63.44,55.5Z"/><path class="cls-38" d="M69.36,55.24l.57,0a.17.17,0,0,0,.16-.17l0-.43Z"/><path class="cls-38" d="M69.92,55.88,68.56,56c-1.81,1.61-3.63,3.23-5.44,4.86L63,64.4a.17.17,0,0,0,.18.17c3.57-.36,6.55-3.82,6.87-8.25,0-.09,0-.18,0-.26A.18.18,0,0,0,69.92,55.88Z"/><path class="cls-39" d="M56.33,55.48A9.63,9.63,0,0,1,60,49.34a4.86,4.86,0,0,1,2.76-.79l0-1.39a.17.17,0,0,0-.18-.17c-3.68.21-6.79,3.74-7.12,8.27l0,.45a.16.16,0,0,0,.18.16l.62,0C56.29,55.71,56.31,55.6,56.33,55.48Z"/><path class="cls-39" d="M56.14,56.66h-.48a.15.15,0,0,0-.17.17,10,10,0,0,0,.6,2.77A12,12,0,0,1,56.14,56.66Z"/><path class="cls-39" d="M63.68,47a.16.16,0,0,0-.18.16l0,1.43a6,6,0,0,1,3.66,2A8.76,8.76,0,0,1,69,55.25l.92,0a.17.17,0,0,0,.16-.17C69.89,50.85,67.22,47.43,63.68,47Z"/><path class="cls-39" d="M69.92,55.88l-.84,0a13.36,13.36,0,0,1-.82,5.52,0,0,0,0,0,0,0,10,10,0,0,0,1.82-5.15c0-.09,0-.18,0-.26A.18.18,0,0,0,69.92,55.88Z"/><path class="cls-36" d="M77,44.42c-3.54.37-6.12,4.75-5.8,9.93s3.26,9,6.71,9.13A51.35,51.35,0,0,0,77,44.42Z"/><path class="cls-26" d="M77.75,44c-3.53.38-6.1,4.92-5.78,10.28s3.29,9.35,6.74,9.49A55,55,0,0,0,77.75,44Z"/><path class="cls-40" d="M75.72,62.06a10.29,10.29,0,0,1-.15-2.71c0-.12,0-.25.05-.39v-.18a48.37,48.37,0,0,0-.3-5.52,45.3,45.3,0,0,1-.34-5.7c0-.79.09-1.59.15-2.38l-.16.13a31.34,31.34,0,0,0,0,7.31,23.89,23.89,0,0,1,.06,5.73,10.53,10.53,0,0,0-.12,3.17c0,.14,0,.29.07.43a6.58,6.58,0,0,0,.79.71C75.76,62.46,75.74,62.26,75.72,62.06Z"/><path class="cls-40" d="M77.87,48.66c0,1-.07,2.07-.15,3.1s-.25,1.9-.3,2.85a13.58,13.58,0,0,1-.22,2.55,2.46,2.46,0,0,1-.54,1,2,2,0,0,0-.36.87,26,26,0,0,0,.1,3.06l.21,1.12.09,0A8.24,8.24,0,0,1,77.14,60l.09-.57a25.92,25.92,0,0,1,.6-2.75c.26-.91.7-1.75,1-2.66.57-1.91-.1-3.69-.33-5.59-.08-.68-.13-1.37-.18-2.05-.08-.37-.15-.75-.23-1.12C78,46.41,77.91,47.54,77.87,48.66Z"/><path class="cls-40" d="M72.35,50A14.15,14.15,0,0,0,72,54.3a14.42,14.42,0,0,0,.8,4C72.53,55.52,72.6,52.75,72.35,50Z"/><path class="cls-40" d="M74.21,59.2c.11-.82.28-1.62.32-2.45a22.1,22.1,0,0,0-.08-2.44c-.1-1.42-.24-2.84-.3-4.27a27.18,27.18,0,0,1,.06-3.93,9.65,9.65,0,0,0-.78,1.15c.09,2.41.31,4.82.44,7.22.1,1.94-.3,3.91-.12,5.83a7.74,7.74,0,0,0,.44.67A8.83,8.83,0,0,1,74.21,59.2Z"/><path class="cls-40" d="M77.06,51.54c.07-1,.1-2.07.14-3.11,0-1.46.12-2.92.31-4.37a4.63,4.63,0,0,0-1.66.61c-.07,1-.15,1.94-.19,2.91A43.84,43.84,0,0,0,76,53.07c.14,1.49.29,3,.32,4.46a.21.21,0,0,1,0-.06c.52-.75.35-2,.4-2.88S77,52.56,77.06,51.54Z"/><path class="cls-40" d="M78.88,58.1a.3.3,0,0,1-.37.23l-.3.73c-.16.41-.31.83-.44,1.25a10.08,10.08,0,0,0-.17,1.81c0,.51.08,1,.13,1.52a4.08,4.08,0,0,0,1,.15c.25-2.21.41-4.44.45-6.67C79.07,57.45,79,57.78,78.88,58.1Z"/><path class="cls-41" d="M77.75,44c-3.53.38-6.1,4.92-5.78,10.28a14.35,14.35,0,0,0,.24,1.89,16,16,0,0,1,.23-4.73,10.1,10.1,0,0,1,1.76-4.59c.53-.73,1.35-1.81,2.36-1.85s1.31,1.09,1.83,1.76A17.36,17.36,0,0,0,77.75,44Z"/><path class="cls-26" d="M51.08,47.59l2.25,19.85s3.23.16,2.59-9.65S51.08,47.59,51.08,47.59Z"/><polygon class="cls-36" points="51.08 47.59 50.02 48.27 52.38 66.9 53.34 67.44 51.08 47.59"/><path class="cls-40" d="M55.92,57.79c-.39-5.93-2.07-8.42-3.34-9.46a7.08,7.08,0,0,1,.86,1.51,26,26,0,0,1,1.77,6.23,28.43,28.43,0,0,1,.12,3.81,19.13,19.13,0,0,1-.39,4.27c-.23,1.1-.74,2-1,3.11C54.82,66.77,56.38,64.9,55.92,57.79Z"/><path class="cls-40" d="M55.05,58.84q.06,2.22.15,4.44c0,.78,0,1.56,0,2.34.57-1.36,1-3.72.71-7.83a21.44,21.44,0,0,0-1.14-6.06C54.93,54.1,55,56.47,55.05,58.84Z"/><path class="cls-40" d="M53,57.64c0,.73.15,1.46.27,2.18q-.06-1.26-.09-2.52c0-1.79-.05-3.58-.19-5.37-.1-1.18-.22-2.37-.31-3.56l-.13-.1C53.07,51.36,52.75,54.52,53,57.64Z"/><path class="cls-40" d="M53.17,63.14a51.69,51.69,0,0,1-.86-5.1c-.31-3.42.16-6.89-.61-10.26a2.13,2.13,0,0,0-.62-.19l2.25,19.85a1.23,1.23,0,0,0,.59-.18C53.54,65.92,53.43,64.51,53.17,63.14Z"/><path class="cls-40" d="M54.16,62.84c0,.13,0,.27.07.41a42.1,42.1,0,0,0-.14-6.83c-.11-.71-.23-1.42-.35-2.13,0,1,0,2,.07,3A51,51,0,0,0,54.16,62.84Z"/><path class="cls-42" d="M51.69,52.94a43.77,43.77,0,0,0,.38,4.7c.19,1.35.41,2.71.61,4.06Z"/><path class="cls-42" d="M50.68,53.24a21.75,21.75,0,0,1-.32-3.42,4.12,4.12,0,0,1,.42-2l-.76.49L51,55.74C50.89,54.9,50.8,54.07,50.68,53.24Z"/><path class="cls-6" d="M18.54,43.51C17.68,45.28,16,46.84,14,45.64c-.91-.54-1.29-1-2,.08-2.31,3.59-1.34,9.22-.71,13.16a21.38,21.38,0,0,0,1,3.84c.25.66.55,1.9,1.24,2.2.41-.88.73-2.08,2-2,.38,0,.87.5,1.22.37,1.05-.39.06-3.81,0-4.52a9.64,9.64,0,0,1,1.06-5.6c.73-1.3,1.78-1.92,3.23-1.37.33-.81.4-1.83.73-2.7s2-3.07,2.37-.91a6.14,6.14,0,0,1-1,4.42c-.16.2-.5.38-.59.64-.13.42.18.85.2,1.26a6.35,6.35,0,0,1-.18,1.37A5.18,5.18,0,0,1,21,58.56c-.89.85-1.24.65-1.48,1.79-.42,1.91.44,3.64,1.09,5.38.59,1.55,1,3.33-.48,4.53-.49.39-.56.34-.7,1a4.45,4.45,0,0,0,.24,2.42c.41,1.22,1.15,2.55,2.48,2.82-.49-1.6-1.77-3.76-.16-5.25,1.24-1.15,2.76.45,3.45,1.5.26.41.38,1,.9,1s1.36-1.36,1.66-1.8c.65-1,1.85-2.56,1.48-3.82a5.91,5.91,0,0,0-.88-1.35,12.2,12.2,0,0,1-1.07-2.32,13.46,13.46,0,0,1-1-5.59C26.68,57.12,27.7,54,30,54.51c.65.14,1,.72,1.57,1,1.39.56,2.22-2.37,2.51-3.4s1.36-4.27.23-5c-.43-.28-1.65,0-2.2-.12-1.22-.25-1.89-1.64-2-2.78-.26-2.62,1.33-5.57,4.17-5.8,3.11-.26,3.58,3.3,3.25,5.59-.29,2-1.66,6,1.63,5.52,2.57-.37,6-3,6.87-5.54.58-1.71-.78-1.81-1.73-3a2.79,2.79,0,0,1-.67-3c.22-.68,1.17-1.68,1.15-2.35,0-2-4.55-1.37-5.69-1.19a30,30,0,0,0-5,1.72c-1,.36-3.14,1.34-4.23,1-.86-.26-.87-1.13-1.08-1.91-.84,1.56-4.56,6.51-6.72,4-1.54-1.8,1.78-5.4,2.7-6.91-4.55-1.25-9.84,4.22-10.63,8.22,1-.79,2.05-2.2,3.5-1.77C19.29,39.28,19.1,42.35,18.54,43.51Z"/><path class="cls-6" d="M23.21,53.26a2.94,2.94,0,0,0-.13,1.06c.12,1.53.16,2.77-.88,4.09a8.56,8.56,0,0,1-1.33,1.09c-.75.65-.86,2.65.07,3.28,1.1.74,2.46-1.43,2.86-2.16,1-1.7,1.14-3.64,1.82-5.45a8.25,8.25,0,0,1,2.93-3.76c.51-.43,2.38-1.94,1.53-2.59-.18-.15-.74,0-1-.24a4,4,0,0,1-1.18-2c-.62-1.87,0-3.8.39-5.65.08-.34.46-3.36-.31-3.32-.16,0-.51.71-.61.85a3.84,3.84,0,0,1-4,2,2.55,2.55,0,0,1-2.27-2.88,21.9,21.9,0,0,1,.43-2.43c0-.4.69-1.46.47-1.77s-1.37-.1-1.67,0A6.68,6.68,0,0,0,16.18,38c1,.2,1.65-1,2.77-.08a5.21,5.21,0,0,1,1.7,3.25,5.51,5.51,0,0,1-2.42,4.9,4.25,4.25,0,0,1-2.53.8c-1.09,0-1.63-.7-2.55-1.08-2-.81-2.23,3.89-2.34,5.08a25.25,25.25,0,0,0,.06,4.84c.1.95.16,3.33.82,4.09s.68,0,.77-.68c.29-2.14.51-4.22,1.76-6.06a5.88,5.88,0,0,1,3-2.18,6.45,6.45,0,0,1,1.55-.41c.46,0,1.27.45,1.69.14s.29-1.38.44-1.83c.29-.84,1.37-3.22,2.67-2.79s1,3.74.73,4.77C24,51.6,23.47,52.4,23.21,53.26Z"/><path class="cls-6" d="M49.89,54.79c0-.12,0-.23,0-.34-.77.35-1.06.83-2,.31-1.79-1-2.43-3.45-2-5.36a3.79,3.79,0,0,0-3.06.74c-.64.49-2.06,1.87-1.55,2.8,1.56-.34,2.85,0,3.1,1.75a11.63,11.63,0,0,1,.21,1.74c0,.65-.56,1.39-.25,2,.08.16.44.28.57.39a17.42,17.42,0,0,1,1.51,1.59c.94,1,1.75,2.18,2.69,3.21,1.51,1.62,1.81-.42,1.73-1.7C50.65,59.54,50.05,57.19,49.89,54.79Z"/><path class="cls-43" d="M76.28,88a.36.36,0,0,1-.22-.41,21,21,0,0,1-4.34,1.11,3.55,3.55,0,0,1-1.33.13c-.1,0-.69-.48-.5-.46-2.19-.21-4.27.92-6.51.65a4.35,4.35,0,0,1-1.89-.49c-.9-.66.2-1.94.81-1.37-.09-.07-.17-.19-.25-.24.28-.37.72-.76,1.17-.54a3.58,3.58,0,0,1,.8-3.69,3,3,0,0,1,1.82-.84,2.51,2.51,0,0,1,1.33.2,2.2,2.2,0,0,1,2.11-1.8c-.17,0,0-1,0-1.09a2.09,2.09,0,0,1,.89-1,1.25,1.25,0,0,1,2,.62A1.69,1.69,0,0,1,73.3,77.3c-2.84-.7.07-5.15,1.17-4.57-1.5-.79.57-3.25,1.92-2.82a2.65,2.65,0,0,1,3.69-1.19,1.84,1.84,0,0,1,.48,2.57c.62-.51,1,.26.45.73a1.68,1.68,0,0,1,2.43.73c.44,1.07-.42,1.88-1.3,2.31a.54.54,0,0,1,.32,1c.67-.38,1.36.36,1.67.89,1,1.81.6,4.46.25,6.41a5,5,0,0,1-3.15,4C80.7,87.58,77.2,88.44,76.28,88Z"/><path class="cls-44" d="M28.12,84.48c0,.93-.37,2.09-1.1,2.42a1,1,0,0,1,.13,1.63,1.51,1.51,0,0,1-1.33.14c-.94-.22-1.35-.92-2.12-1.37a7.85,7.85,0,0,0-2.81-.55A19.41,19.41,0,0,1,16,85.2c-.82-.37-2.54-1-2-2.14-.34,0-.73-.36-.45-.69-2.92-.72-5.46-6.09-2.39-8a.72.72,0,0,1,.08-1.2,9.69,9.69,0,0,1-.11-2.31,1.65,1.65,0,0,1,1.49-1.34c0-.67,0-1.43.6-1.8a15.77,15.77,0,0,0,2.36,4.73c.72-.23,1.38-.2,1.53.7a6.44,6.44,0,0,1,1.3.21,2.88,2.88,0,0,1,1.17,1,3.52,3.52,0,0,1,.7,2.93c.31-.18.89-.4,1,.06,0,0,0,0,0,0l.27-.06c-.11-.49.34-2.35,1.08-1.63a1.51,1.51,0,0,1,1.81-.12c.94.52.89,1.16.58,2.07.56-.13,1.16.55,1.47.94a3.12,3.12,0,0,1,.5,2.22c0,1.12.73,2,1,3A2.62,2.62,0,0,1,28.12,84.48Z"/><path class="cls-45" d="M28.9,99.78c.94.7.66,1.81-.55,1.71a8.51,8.51,0,0,1-2.18-.49c-.59-.22-1.31-.46-1.16-1.22C25.33,98,28.1,99.17,28.9,99.78Z"/><path class="cls-45" d="M37.45,99.3c1.34.54,2,2.36.34,3a6.07,6.07,0,0,1-1.52.33,14,14,0,0,1-4.77-.49c-.6-.17-.44-.21-.65-.54s-.67-.77-.91-1.19c-.74-1.27,1.33-1.67,2.14-1.77A11.21,11.21,0,0,1,37.45,99.3Z"/><path class="cls-45" d="M29.79,96.2c-.89.11-1.67.5-1.75,1.36-.11,1.2,1.19.7,1.9.67s3.16.31,3.26-.58c0-.47-.55-.86-.88-1.06A4.53,4.53,0,0,0,29.79,96.2Z"/><path class="cls-45" d="M37.15,98.62l-.41-.13c-.76-.28-2.23-.26-2.77-.88-1.14-1.32,2-1.75,2.7-1.77a5.45,5.45,0,0,1,3.67,1c1.09.82.76,1.74-.61,1.93A5.6,5.6,0,0,1,37.15,98.62Z"/><path class="cls-45" d="M37.19,93a10.64,10.64,0,0,0-4.41-.18c-1,.18-3.41,1.19-2.35,2.54,1.3,1.68,4,.1,5.72.06a9.79,9.79,0,0,1,2.75.35c.8.2,2.43.46,2.14-.73s-1.56-1.48-2.51-1.72C38.07,93.15,37.62,93,37.19,93Z"/><path class="cls-45" d="M44.73,91.59c.93-1.34-1.35-1.61-2.06-1.67-1.32-.11-2.64-.12-4-.18a10.06,10.06,0,0,0-3.1,0c-.75.19-2.22,1.12-1.36,2,.56.57,2,.38,2.71.52.93.17,1.78.48,2.68.69a4.83,4.83,0,0,0,2.58-.22C42.82,92.58,44.36,92.14,44.73,91.59Z"/><path class="cls-46" d="M84.13,77c-.31-.53-1-1.27-1.67-.89a.54.54,0,0,0-.32-1,2.32,2.32,0,0,0,1.38-1.44,1.5,1.5,0,0,0-.1-1c-.08-.15-.48-.39-.5-.47.6,1.8-2,2.59-3.25,2.43C80.3,75,81,76,80,76.36a1.47,1.47,0,0,1,1.28.84c.18.56-.24.83-.38,1.28,1.78.49.7,3.1-.46,3.72-.85.45-2.58.4-2.07-.93-1,2-3.39-.28-2-1.81a2.16,2.16,0,0,1-2.33.86c.71.7-.62,1.38-1.25,1.33,1.24.19,2.92,1.24,2.42,2.68-.36,1.07-3.39,2.76-3.94,1.18-.27.48-1.63.68-1.54-.13a3.71,3.71,0,0,1-4.49.54,2.68,2.68,0,0,1-1.07-2.47,3.34,3.34,0,0,1,.27-1.16,2.44,2.44,0,0,0-.43.35,3.58,3.58,0,0,0-.8,3.69c-.45-.22-.89.17-1.17.54.08,0,.16.17.25.24-.61-.57-1.71.71-.81,1.37a4.35,4.35,0,0,0,1.89.49c2.24.27,4.32-.86,6.51-.65-.19,0,.4.43.5.46a3.55,3.55,0,0,0,1.33-.13,21,21,0,0,0,4.34-1.11.36.36,0,0,0,.22.41c.92.49,4.42-.37,5-.6a5,5,0,0,0,3.15-4C84.73,81.44,85.17,78.79,84.13,77Z"/><path class="cls-47" d="M28.1,84.53a4.05,4.05,0,0,0-.08-.91c-.16-.77-.68-1.41-.87-2.17s.16-1.55-.16-2.28a2.85,2.85,0,0,0-1.08-1.34,2.09,2.09,0,0,1,.24,1.85c-.19.58-1,1.84-1.8,1.63.79-.11,1.27,1.17.69.94.95.5,2.17,1.37,1.81,2.67a1.41,1.41,0,0,1-2.09.67c-.48.76-2.26.08-2.31-.78,0-.59.74-.66,1.07-.93-.95-.08-2.59.13-2.64-1.31-.05,1,.48,1.06.94,1.67-.44.35-1-.09-1.32-.38a2,2,0,0,1-.9-2.09,4,4,0,0,1,1.33-2.4c-.78,0-2.27.1-2.86-.51.82.48,1.8,1.75,1,2.64-.91,1-2.79.28-3.11-.93-.4.7-.9-.32-.89-.76a2.09,2.09,0,0,1-2,.75,3.16,3.16,0,0,1-2-1.3A7.75,7.75,0,0,1,9.83,76.7c-.18,2.31,1.7,5.16,3.77,5.67-.28.33.11.64.45.69-.58,1.16,1.14,1.77,2,2.14a19.41,19.41,0,0,0,4.88,1.55,6.8,6.8,0,0,1,3.14.89c.75.48,1.72,1.27,2.68,1.11S27.78,87.5,27,87A3.5,3.5,0,0,0,28.1,84.53Z"/><path class="cls-48" d="M29.08,99.93a.73.73,0,0,1-.49.76,3.18,3.18,0,0,1-3.16-.54,1.61,1.61,0,0,1-.39-.51.58.58,0,0,0,0,.14c-.15.76.57,1,1.16,1.22a8.51,8.51,0,0,0,2.18.49C29.47,101.58,29.8,100.63,29.08,99.93Z"/><path class="cls-48" d="M38.29,99.89a1,1,0,0,1-.54,1.29,5.15,5.15,0,0,1-2.09.43c-1.89.12-4.13,0-5.51-1.42a1.13,1.13,0,0,1-.32-.58.84.84,0,0,0,.11.76c.24.42.68.84.91,1.19s0,.37.65.54a14,14,0,0,0,4.77.49,6.07,6.07,0,0,0,1.52-.33A1.38,1.38,0,0,0,38.29,99.89Z"/><path class="cls-48" d="M32.32,96.59,32,96.42a.7.7,0,0,1-.47,1.17,6.17,6.17,0,0,1-2.92.2,1,1,0,0,1-.51-.36s0,.09,0,.13c-.11,1.2,1.19.7,1.9.67s3.16.31,3.26-.58C33.25,97.18,32.65,96.79,32.32,96.59Z"/><path class="cls-48" d="M40.34,96.87a4.87,4.87,0,0,0-.47-.32.21.21,0,0,1,0,.06,1,1,0,0,1-.17,1.22,1.49,1.49,0,0,1-.94.3,10.91,10.91,0,0,1-2.67-.22,4.11,4.11,0,0,1-2-.64.62.62,0,0,1-.19-.65c-.27.25-.33.58,0,1,.54.62,2,.6,2.77.88l.41.13a5.6,5.6,0,0,0,2.58.18C41.1,98.61,41.43,97.69,40.34,96.87Z"/><path class="cls-48" d="M41,95a1.71,1.71,0,0,0-.57-.9.74.74,0,0,1-.66.86c-1.05.08-2.09-.15-3.15-.08L34.88,95c-.71.11-1.42.25-2.13.4s-1.58.31-2.12-.24a1.2,1.2,0,0,1-.32-1,1,1,0,0,0,.12,1.15c1.3,1.68,4,.1,5.72.06a9.79,9.79,0,0,1,2.75.35C39.7,95.92,41.33,96.18,41,95Z"/><path class="cls-48" d="M44.08,90.18a.85.85,0,0,1-.3.78,5.06,5.06,0,0,1-3.21,1c-1,0-2-.31-2.94-.32a7.4,7.4,0,0,1-2.53-.09,1.08,1.08,0,0,1-.78-1,.81.81,0,0,0-.07,1.25c.56.57,2,.38,2.71.52.93.17,1.78.48,2.68.69a4.83,4.83,0,0,0,2.58-.22c.6-.19,2.14-.63,2.51-1.18C45.26,90.83,44.75,90.41,44.08,90.18Z"/><path class="cls-49" d="M26.29,99.2c.35,0,1.8,0,1.71.58s-1.44.37-1.77.23C25.6,99.74,25.62,99.22,26.29,99.2Z"/><path class="cls-49" d="M30.48,97.12c1-.54-1.06-.87-1.6-.49,0,0-.54.57-.35.61A3.57,3.57,0,0,0,30.48,97.12Z"/><path class="cls-49" d="M37.44,93.29A10.71,10.71,0,0,0,35.06,93c-.33,0-.51-.21-.88-.26a3.55,3.55,0,0,0-1.88.44c-.33.16-1.16.54-1.22,1-.08.65.86.28,1.13.21A14.93,14.93,0,0,1,34.87,94a8.63,8.63,0,0,0,1.77,0c-.16-.11-.36-.2-.44-.35a2.13,2.13,0,0,1,.9.3c.23.09,1,.3,1.24.14C38.9,93.61,37.67,93.36,37.44,93.29Z"/><path class="cls-49" d="M41.66,90.94c.33,0,1.27-.06,1.29-.53s-.8-.41-1.12-.43c-.95,0-1.88-.13-2.83-.15a8.34,8.34,0,0,0-3,.07c-.67.23-1.57,1.13-.38,1.33a3.26,3.26,0,0,0,2.18-.29.65.65,0,0,1-.23-.39,4.54,4.54,0,0,1,1.06.33,3.8,3.8,0,0,0,1.92.09C40.5,90.48,41.37,91,41.66,90.94Z"/><path class="cls-49" d="M37.27,96h-.21a5.43,5.43,0,0,0-2,.38c-.55.39.68.7.93.77a2.76,2.76,0,0,0,1.75,0c0-.41,1.06,0,1.27,0,.39-.08.37-.5,0-.74A2.92,2.92,0,0,0,37.27,96Z"/><path class="cls-49" d="M33.79,98.77c-.41,0-.83,0-1.26.07-.22,0-2.37.25-2,.79.14.24.92.31,1.17.4.46.18,1.4.64,1.86.17-.14-.19-.39-.32-.5-.56a5.62,5.62,0,0,1,1.58.26,3.4,3.4,0,0,0,1.78.34c.24,0,.74-.17.73-.46,0-.71-1.39-.78-1.87-.88A6.56,6.56,0,0,0,33.79,98.77Z"/><path class="cls-50" d="M60,92.77a2.72,2.72,0,0,0-.7,1.5,1.94,1.94,0,0,1,1.06-.75,2.89,2.89,0,0,0-.69.79,3.12,3.12,0,0,1,1.84-.23,3.73,3.73,0,0,0-2.39,1.09c0-.07-.06-.39,0-.45-.12.1-.24.22-.36.31-.33-.49-.81-.55-1.27-.86.42.1.72,0,1.05.33a2.52,2.52,0,0,0-.7-1.28,2.74,2.74,0,0,1,.84.82,2.46,2.46,0,0,1,.17-1.54c0,.53,0,1.07.08,1.6A3.75,3.75,0,0,1,60,92.77Z"/><path class="cls-51" d="M74.57,90.66a4.61,4.61,0,0,0-.51,2,1.53,1.53,0,0,1,1.14-.39c-.46,0-.77.51-1,.85a2.08,2.08,0,0,1,1.05,0,2,2,0,0,0-1.41.7c.13-.23-.16-.81-.19-1.06a3.1,3.1,0,0,0-.11.85,3.54,3.54,0,0,0-1.28-1.24,4.08,4.08,0,0,1,1.19.35,1.42,1.42,0,0,1-.22-1,.87.87,0,0,0,.26.49,4.7,4.7,0,0,1,1.19-1.9C74.72,90.43,74.63,90.51,74.57,90.66Z"/><path class="cls-46" d="M84.13,77c-.31-.53-1-1.27-1.67-.89a.54.54,0,0,0-.32-1,2.32,2.32,0,0,0,1.38-1.44,1.5,1.5,0,0,0-.1-1c-.08-.15-.48-.39-.5-.47.6,1.8-2,2.59-3.25,2.43C80.3,75,81,76,80,76.36a1.47,1.47,0,0,1,1.28.84.83.83,0,0,1-.08.7,2.86,2.86,0,0,1,1.67,2.32,3.76,3.76,0,0,1-2.06,2.92,3.32,3.32,0,0,1-2.81.31,1.54,1.54,0,0,1-.92-1,2.68,2.68,0,0,1-2.13-1.19,3.55,3.55,0,0,1-.43.23,4.83,4.83,0,0,1,.68.35,3,3,0,0,1,1.65,2.62,2.71,2.71,0,0,1-1.76,2.13c-1.14.56-3.14,1-4.1.1l-.19.1a1.77,1.77,0,0,1-1.57.08.71.71,0,0,1-.14-.1,4.41,4.41,0,0,1-3.29.82A3.16,3.16,0,0,1,63.31,85a4.35,4.35,0,0,1,0-1.44,3.79,3.79,0,0,0-.13,2.74c-.45-.22-.89.17-1.17.54.08,0,.16.17.25.24-.61-.57-1.71.71-.81,1.37a4.35,4.35,0,0,0,1.89.49c2.24.27,4.32-.86,6.51-.65-.19,0,.4.43.5.46a3.55,3.55,0,0,0,1.33-.13,21,21,0,0,0,4.34-1.11.36.36,0,0,0,.22.41c.92.49,4.42-.37,5-.6a5,5,0,0,0,3.15-4C84.73,81.44,85.17,78.79,84.13,77Z"/><path class="cls-52" d="M28,83.62c-.16-.77-.68-1.41-.87-2.17s.16-1.55-.16-2.28h0a4.59,4.59,0,0,1-.92,2.74c1,.91,1.73,2.25.9,3.54a1.59,1.59,0,0,1-1.75.75,1.63,1.63,0,0,1-1.28.42,2.6,2.6,0,0,1-2.4-1.79,4.83,4.83,0,0,1-2.47-1.77c-1.52,1.7-3.63.09-4.62-1.68a2.66,2.66,0,0,1-2.18-.19,6.19,6.19,0,0,1-1.48-1.1,5,5,0,0,0,2.82,2.29c-.28.33.11.64.45.69-.58,1.16,1.14,1.77,2,2.14a19.41,19.41,0,0,0,4.88,1.55,6.8,6.8,0,0,1,3.14.89c.75.48,1.72,1.27,2.68,1.11S27.78,87.5,27,87a3.5,3.5,0,0,0,1.1-2.43A4.05,4.05,0,0,0,28,83.62Z"/><path class="cls-26" d="M65.41,65.2a6.58,6.58,0,0,0,1-.35c.66-.31,2.06-1.78,2.83-1.47s.54,1.14.33,1.65c-1.37,3.38-7.09,3.37-9.81,2-.8-.39-2.49-1.84-1.24-2.76.53-.39,1.29,0,1.84.23A8,8,0,0,0,65.41,65.2Z"/><path class="cls-36" d="M63.89,67.45a8.46,8.46,0,0,1-3.41-.7,2.28,2.28,0,0,1-1.14-1.17,1.15,1.15,0,0,1,.4-1.25,1.19,1.19,0,0,0-1.26,0c-1.25.92.44,2.37,1.24,2.76a9.77,9.77,0,0,0,7.93,0A11.12,11.12,0,0,1,63.89,67.45Z"/><path class="cls-53" d="M61.65,65.07a5.91,5.91,0,0,0,2.22.52,6,6,0,0,0,3.57-1.16,3.12,3.12,0,0,1,1.41-.58c.76,0,.61.61.7,1.13.21-.5.26-1.36-.35-1.6-.77-.31-2.17,1.16-2.83,1.47a6.58,6.58,0,0,1-1,.35,7.18,7.18,0,0,1-4.29-.37Z"/><path class="cls-6" d="M27.88,67.4C26.06,65,24,69.48,24.59,71c.51,1.21,1.94,0,2.57-.63C28,69.54,28.63,68.39,27.88,67.4Z"/><path class="cls-6" d="M36.33,52.15c-.81-.14-1.19.68-1.52,1.26s-.65,1.2-.93,1.82-.49,1.19.21,1.49c.51.23,1.31-.13,1.78-.35a3.11,3.11,0,0,0,1.44-1.24C37.85,54.15,37.66,52.38,36.33,52.15Z"/><path class="cls-6" d="M58.15,36c-.91.5-1.13,1.75-2.15,2A1.68,1.68,0,0,1,54.85,38c-.52-.24-1.05-.5-1.56-.05a1,1,0,0,0,0,1.45,2.1,2.1,0,0,0,1.14.57,4.5,4.5,0,0,0,2.38.83A5.77,5.77,0,0,0,60.32,40C62.06,38.66,60.4,34.74,58.15,36Z"/><path class="cls-54" d="M65.35,84.6a1.06,1.06,0,0,1-.24-.57c-.1-1.2,2.07-1.15,2.78-.86-.09-1.15.5-2,1.71-1.93,0-1.7,2.41-3.7,3.08-1.39.11-.53.61-1,1-.54-1.13.31-1.54,1.45-2.56,1.86.71.64,2.27.93,1.75,2.24S70.13,84.8,70,83.33c0,.59-.77,1.22-1,.43C69.3,84.91,66.25,85.62,65.35,84.6Z"/><path class="cls-55" d="M74.69,73.39c-.68.56-1.28,1.55-1.09,2.08.13.34.77,1,1.19.56-.94,1,.58,1.45,1.39.81a2,2,0,0,0,.14-2.71c1.21-.08,3.54-1.8,2.53-3.25-.76-1.1-2.2,0-2.63.81-.6-1.12-1.24.43-.52,1.3A1.36,1.36,0,0,0,74.69,73.39Z"/><path class="cls-56" d="M11.69,78.15l-.24-.23a2.46,2.46,0,0,1-.47-2c.13-.53.84-1.58,1.47-1.14a.65.65,0,0,1,0-1.14c-.54-.6-.85-3.23.41-2.7-.07-.48.15-1.13.71-1.11a9.46,9.46,0,0,1,.78,2.24A8,8,0,0,0,14.92,74a1.43,1.43,0,0,1,2.13.75c.53-.17,1.21-.44,1.75-.1a1.72,1.72,0,0,1,.48,2c-.61,1.44-3.06,2.5-4.11.87a1.33,1.33,0,0,1-1.21,0,.88.88,0,0,1-.55,1.11A1.66,1.66,0,0,1,11.69,78.15Z"/><path class="cls-57" d="M24.22,80.49A1.77,1.77,0,0,1,22,78.94a1,1,0,0,1-1.27-.41c-.21-.63.61-.63,1-.46-.14-.37.2-1.12.66-.81a1.14,1.14,0,0,1,1.87-.78,1.83,1.83,0,0,1,.07,2.58c.35-.21.81-.19.84.3S24.56,80.37,24.22,80.49Z"/><path class="cls-58" d="M73.93,44.35c1.62,1.18,2.56,4.2,4.83,4.29A1.42,1.42,0,0,0,80.05,48c.3-.46-.26-1.38.56-1.14.6.17,1,1.73,1,2.23,0,.84-.57,2.41-1.66,2.33-.21.52-1.15,1.21-1.62.67.24.81-2,.94-2.47.53a.43.43,0,0,1,.06.22,2.25,2.25,0,0,1-2.79-.23c0,.09,0,.05,0,.18a3.41,3.41,0,0,1-2.7-.72c-.37.68-2.22-.32-2.62-.8,0,0,0,0,0,0a1.7,1.7,0,0,0,0,.22,2.78,2.78,0,0,1-2.27-1c.32,1.19-.82.64-1.37.29a13.93,13.93,0,0,0-3.7-1.64c-.73-.19-3.33-.47-3.7.54.93-2.56,3.15-5.73,6.11-6.07.62-1.49,3.37-1.44,4.69-1.42A11.17,11.17,0,0,1,73.93,44.35Z"/><path class="cls-59" d="M74.38,45.7c.72.65,1.41,1.34,2.1,2a3.9,3.9,0,0,0,2.34,1.47,1.67,1.67,0,0,0,1.76-1.68c1.4,1-.18,3.35-1.55,3.19a.72.72,0,0,0,.15.11c-.3.7-1.33.79-2,.53.33.79-1.12.45-1.48.22.16,1.23-2.32,0-2.72-.44.7,1.34-1.72-.28-2.09-.81-.29,1.94-3-.37-3.44-1.1-.25,1.43-2.88-1.07-3.26-1.4A6.41,6.41,0,0,0,60,46.11c.47-1,2-1.56,3-1.9a7.19,7.19,0,0,1,4.33-.05c3.22.87,5.45,3.5,8.52,4.55A21.09,21.09,0,0,1,72,45.64a10.32,10.32,0,0,0-7.92-2.25C67.53,41.24,71.7,43.3,74.38,45.7Z"/><path class="cls-60" d="M29.1,57.85c-1.28.93-2,2.34-3,3.53-.82,1-2.42,2.24-3.78,1.94-.33.81.41,1.63,1.12,2-.22,0-.49.09-.3.41.31.53,1.61.62,2.12.58a1.74,1.74,0,0,0-.12.14c.49.73,1.66.28,2.3,0-.24.1.33.33.34.34a4.75,4.75,0,0,0,2.71-.66c-.63,1,1.83,0,2.18-.29.26.78,1.45-.24,1.79-.64.07.79,1.13-.11,1.33-.5,0,0,0,.19,0,.23,1.62-.22,2.71-1.55,4.34-1.76,1.92-.24,4.39-1.4,6.16,0-1.35-3.69-5-7.29-9.21-7.06a4.28,4.28,0,0,1-.49,0c-.69-.06-1.34-.32-2-.36a5.48,5.48,0,0,0-1.74.26A10.91,10.91,0,0,0,29.1,57.85Z"/><path class="cls-61" d="M43,59.68c-.4-.1-1.07-1-1.44-1.28a14,14,0,0,0-1.46-.95,5.74,5.74,0,0,0-2.88-.81A12.06,12.06,0,0,0,35.1,57,7.72,7.72,0,0,0,32,58.48c-1.36,1-3.08,3.79-4.8,3.94,1.5-.82,2.46-2.41,3.68-3.56a8.83,8.83,0,0,1,4.59-2.48c-.73-.57-2.57-.11-3.36.18a8.8,8.8,0,0,0-2.93,1.84c-1.69,1.5-3.5,6.26-6.48,5.35,0,.86,1.56,1.38,2.26,1.4a1.74,1.74,0,0,0-.58.5c.88.73,2.79,0,3.59-.56-.23.23-.16.39,0,.6.51.53,2-.32,2.44-.57-.49,1.13,2.07-.55,2.3-.7-.22.7.89,0,1.16-.11a11,11,0,0,0,2.36-1.75c.41-.4.71-.87,1.1-1.28A6.18,6.18,0,0,1,43,59.68Z"/><path class="cls-62" d="M46.71,64.25a4.07,4.07,0,0,0-1.14-2.61c-.79-.82-1.74-.7-2.73-1.07-2.83-1-4.93.85-6.05,3.33-.48,1.07-.79,3.59-2.09,4,.1,0,.23.25.33.3-.29.45-.81.46-1.14.8a2.41,2.41,0,0,0,2.4.5c0,.08,0,.14,0,.23.46.41,1.38-.09,1.76-.46.08.88,1.42-.31,1.61-.65.28.73,1.13-.53,1.11-1,.38.83,1-.5,1.14-.9.07.22.11.14.22.29a2.61,2.61,0,0,0,.82-1.24c.06.13.1.13.17.22.71-.53.32-1.54,1-2A6.73,6.73,0,0,1,46.71,64.25Z"/><path class="cls-63" d="M43.3,60.87a4.42,4.42,0,0,0-2.52,1.25c-1.57,1.53-1.85,3.92-3.57,5.35,1.12-.93,1.43-2.77,2-4A4.24,4.24,0,0,1,43.3,60.87Z"/><path class="cls-64" d="M37.73,66.58c1.05-1.71,1.36-4.77,3.42-5.69-3.34-.21-4.3,3.59-4.86,6.08a2.48,2.48,0,0,1-.66,1.39C36.43,68.58,37.4,67.12,37.73,66.58Z"/><path class="cls-65" d="M40.25,63.38a4,4,0,0,1,2.61-2.05,3.35,3.35,0,0,1,2.83,1,2.4,2.4,0,0,0-2.27,1.31c-.13.25-.46,1.84-.93,1,0,.41-.64,2.16-.83,1.17,0,.31-.62,1.93-.93,1.08-.07.41-.39,1.19-.88,1.2,0-.13-.08-.25-.07-.38-.49.32-.76,1.33-1.55,1.16,0-.2,0-.4.05-.61-.25.14-1.64,1.3-1.44.34-.49.11-1,.56-1.49.25.77.44,2.83-1.85,3.17-2.34C39.14,65.61,39.61,64.4,40.25,63.38Z"/><path class="cls-66" d="M21,46.21a9.16,9.16,0,0,1-1.1-.08,38,38,0,0,0-4.24-.39A16,16,0,0,0,10,46.9a6.44,6.44,0,0,0-4.07,5.81c0,.3-1,.41-.8,1.13.13.53.76.7,1.25.82a7,7,0,0,0,3.86-.43c.69-.24,2.07-.71,2.06-1.61s-1.51-.8-1.57-1.08a3,3,0,0,1,2-4,13.36,13.36,0,0,1,5.48-.6,4.51,4.51,0,0,1,3.63,1.78c.43.7.26,1.63,1.1,1.35a1.46,1.46,0,0,0,.75-.59,4.41,4.41,0,0,0,.17-3.94c-.18-.39-.48-.82-1-.7C22.05,45,21.87,46.18,21,46.21Z"/><path class="cls-67" d="M23.51,45.94a3.21,3.21,0,0,1-.14,2.34c-.2.38-.92,1.18-1,.28a10,10,0,0,0-.55-2.67,4.46,4.46,0,0,1-.86.45c.36.68-1.54.41-1.81.38a21,21,0,0,0-4.69-.13c-.68.07-1.34.23-2,.36s-1.26.5-1.93.61c-.4.06-.61-.14-.92-.29,0,.23.17.39.14.65a5.49,5.49,0,0,1-.7,1.81c-.39.78-1.56,2.24-2.59,1.72a.85.85,0,0,0,.22,1.31,2.36,2.36,0,0,0,1.93,0c.46-.14,2.46-1.36,2.43-.12,0,1.06-1.84,1.51-2.58,1.67a4,4,0,0,1-3-.31,1.11,1.11,0,0,1-.35-.5.58.58,0,0,0,0,.32c.13.53.76.7,1.25.82a7,7,0,0,0,3.86-.43c.69-.24,2.07-.71,2.06-1.61s-1.51-.8-1.57-1.08a3,3,0,0,1,2-4,13.36,13.36,0,0,1,5.48-.6,4.51,4.51,0,0,1,3.63,1.78c.43.7.26,1.63,1.1,1.35a1.46,1.46,0,0,0,.75-.59,4.41,4.41,0,0,0,.17-3.94c-.18-.39-.47-.81-.95-.71l.17.17A2,2,0,0,1,23.51,45.94Z"/><path class="cls-4" d="M9,46.9c2.11.67.05,4.64-1.36,5.21s-2.57-.92-2.5-2.33C5.27,48.18,7.42,46.38,9,46.9Z"/><path class="cls-4" d="M10.19,52.36a.82.82,0,0,0-.67-.76,1.17,1.17,0,0,0-1,.55l-.14.19a.9.9,0,0,0-.19.36.6.6,0,0,0,.11.53.75.75,0,0,0,.46.25,1.44,1.44,0,0,0,.93-.2,1.15,1.15,0,0,0,.4-.39.67.67,0,0,0,.1-.21A.88.88,0,0,0,10.19,52.36Z"/><polygon class="cls-4" points="8.87 52.8 8.87 52.8 8.87 52.8 8.86 52.8 8.87 52.8"/><path class="cls-5" d="M9.63,47.28a2.73,2.73,0,0,1-.57,2.49c-.7.94-2.1,2-3.22,1a1.81,1.81,0,0,1-.61-1.37c0,.11,0,.23-.05.34-.07,1.41,1,3,2.5,2.33C8.92,51.61,10.66,48.48,9.63,47.28Z"/><path class="cls-5" d="M10.19,52.36a.94.94,0,0,0-.12-.38.61.61,0,0,1,0,.42,1.09,1.09,0,0,1-1,.64.63.63,0,0,1-.75-.73l0,0a.9.9,0,0,0-.19.36.6.6,0,0,0,.11.53.75.75,0,0,0,.46.25,1.44,1.44,0,0,0,.93-.2,1.15,1.15,0,0,0,.4-.39.67.67,0,0,0,.1-.21A.88.88,0,0,0,10.19,52.36Z"/><path class="cls-6" d="M8,49.13c.49-.27,1.37-1.06,1.22-1.7s-1-.63-1.55-.39c-.76.35-2.42,1.53-1.86,2.56C6.11,50.23,7.51,49.37,8,49.13Z"/><path class="cls-6" d="M9.73,52.37l0,0c.43-.42-.25-.69-.63-.58-.2.06-.72.45-.6.7S9.48,52.53,9.73,52.37Z"/><path class="cls-7" d="M7.71,47.21a2,2,0,0,1,2.21.72,1.23,1.23,0,0,0-.88-1c-1.6-.52-3.71,1.23-3.85,2.81C5.27,48.86,6.34,47.9,7,47.5A2.41,2.41,0,0,1,7.71,47.21Z"/><g class="cls-8"><path class="cls-9" d="M8.82,52A1,1,0,0,1,10,51.89a.75.75,0,0,0-.48-.29,1.17,1.17,0,0,0-1,.55l-.14.19a.9.9,0,0,0-.19.36.68.68,0,0,0,0,.2A2.22,2.22,0,0,1,8.82,52Z"/></g><path class="cls-10" d="M11.72,53.53a5.87,5.87,0,0,1-1.5.7,7,7,0,0,1-3.86.43,5.7,5.7,0,0,1-.55-.16,2.85,2.85,0,0,0,.1,1.56,3.64,3.64,0,0,0,2.87,2.32c2.35,0,3.71-2.79,3-4.79A.14.14,0,0,0,11.72,53.53Z"/><path class="cls-11" d="M11.74,53.59a.14.14,0,0,0,0-.06,5.87,5.87,0,0,1-1.5.7,7,7,0,0,1-3.86.43,5.7,5.7,0,0,1-.55-.16c0,.13,0,.26,0,.38a3.52,3.52,0,0,0,2.64.47c.7-.09,1.57-.29,2,.42a1.78,1.78,0,0,1-.51,2.07,2.74,2.74,0,0,1-.79.53C11.25,58.15,12.45,55.49,11.74,53.59Z"/><path class="cls-12" d="M7.76,56.24c.52-.27,2.32-.64,2.48.29.11.62-.76,1.34-1.27,1.5a1.67,1.67,0,0,1-1.51-.24C6.63,57.23,7.05,56.61,7.76,56.24Z"/><path class="cls-68" d="M12.91,46.58c-.62.13-1.2.34-1.8.52a1.33,1.33,0,0,1-.76.1c0-.44.63-.47,1-.57.82-.23,1.64-.36,2.48-.51A19.27,19.27,0,0,1,17.1,46c-.67,0-1.43.16-2.1.24S13.6,46.44,12.91,46.58Z"/><path class="cls-69" d="M7.79,53.59c.2,0,1.07.07.8.42s-1.12.25-1.42.22-1.23-.14-1.44-.48.38-.61.67-.57C6.88,53.25,7.31,53.5,7.79,53.59Z"/><path class="cls-70" d="M22.71,45.14a.55.55,0,0,0-.26.15.52.52,0,0,0-.14.74,4.61,4.61,0,0,1,.46,1.07,5.94,5.94,0,0,1,.06,1c.34-.09.37-.69.41-1S23.28,45,22.71,45.14Z"/><path class="cls-71" d="M10.51,55.62a3.36,3.36,0,0,0-.29-1.25c-.12-.25-.56-.8-.9-.55s.19.66.29.87a4.72,4.72,0,0,1,.4,2.07c0,.58,0,1.43-.55,1.81-.32.25-.74.26-.82-.21l-.29,0c-.06.39.4.72.75.71a1.17,1.17,0,0,0,1-.65,3.87,3.87,0,0,0,.46-2.09C10.54,56.07,10.53,55.85,10.51,55.62Z"/><path class="cls-72" d="M40.18,13.91c1.81,1.23,4,2.33,5,4.38.73,1.52,1.06,5.86-1.57,5.68A8,8,0,0,1,40,22.22a9.91,9.91,0,0,1-4.53-7.39c-.25-2.72.75-4.48,1.92-6.74a5.44,5.44,0,0,0,2.34,5.52Z"/><g class="cls-73"><path class="cls-74" d="M36.89,11.25c0-.21,0-.43,0-.65C36.87,10.82,36.88,11,36.89,11.25Z"/><path class="cls-75" d="M45.16,18.29a7.53,7.53,0,0,0-3.08-3.12c.36,1.14.84,3.07-1,2.11a8.44,8.44,0,0,1-2.48-2c-1.07-1.34-2.16-4-1.42-5.67a5.58,5.58,0,0,0,0,4.39A9.07,9.07,0,0,0,39,16.57c.16.17,1.51,1.76,1.46,1.78-.74.14-1.92-.52-2.67-.65a11.33,11.33,0,0,0-1.69-.27A10.5,10.5,0,0,0,40,22.22,8,8,0,0,0,43.59,24C46.22,24.15,45.89,19.81,45.16,18.29Z"/></g><path class="cls-76" d="M58.59,19.47c-3.09,4.56-9.35,3.1-13.48,5.91-1.32-3.83,1.65-7.5,4.91-9,2.57-1.21,8.67-2.82,9-6.32,1,1.07,1.16,3.86,1.07,5.3A8.74,8.74,0,0,1,58.59,19.47Z"/><path class="cls-77" d="M58.59,19.47a8.74,8.74,0,0,0,1.51-4.15c0-.07,0-.14,0-.21a9.85,9.85,0,0,1-.71,1.95,6.39,6.39,0,0,1-2.95,3.14c-1.14.53-2.38.23-3.59.32-.5,0-3,.63-3.26,0s1.29-1.76,1.67-2A20.67,20.67,0,0,1,54.61,17,8,8,0,0,0,59,12.45c-1.07,2.5-3.5,3.17-5.8,4.26a21.82,21.82,0,0,0-4.07,2.74c-.37.3-1.23,1-1.75.8s-.32-1.3-.09-2c-1.89,1.84-3,4.42-2.13,7.09C49.24,22.57,55.5,24,58.59,19.47Z"/><path class="cls-78" d="M71.77,24.81c-2.29,1.63-4.52,1.23-7.15.56-3.48-.88-7.43-1.28-10.78.31-1.93.91-4.93,2.9-5.27,5.24,1.12-.38,2.53.12,3.62.39,1.87.46,3.69,1,5.55,1.49a11,11,0,0,0,8.8-1.32A10.63,10.63,0,0,0,71.77,24.81Z"/><path class="cls-79" d="M40.89,28.11c.27-1.67-1-3.94-2.19-5.07a5.92,5.92,0,0,0-4.34-1.61c-2.08-.06-4.13.29-6.21.35-3.41.08-8.65-1.09-8.69-5.41-2.45,4.91.12,10.82,5,13.09,3.91,1.84,8.08,0,12.09-.32C37.79,29,40.64,29.68,40.89,28.11Z"/><g class="cls-73"><path class="cls-80" d="M70.52,25.51c.2.56-.35,1.6-.59,2a9.78,9.78,0,0,1-6,4.34,14,14,0,0,1-8.87-.57c-1.62-.78.9-1.51,1.55-1.75,1.37-.52,2.3-1.78,3.84-2a11,11,0,0,1,2.23-.09c1.66.06,3.72.32,5.27-.44a12.76,12.76,0,0,1-5-.28c-.82-.14-1.66-.23-2.48-.39-.26-.05-2.14-.35-2.18-.63a1.52,1.52,0,0,1,.33-1.05,11.75,11.75,0,0,0-4.81,1.07c-1.93.91-4.93,2.9-5.27,5.24,1.12-.38,2.53.12,3.62.39,1.87.46,3.69,1,5.55,1.49a11,11,0,0,0,8.8-1.32,10.63,10.63,0,0,0,5.23-6.67A6,6,0,0,1,70.52,25.51Z"/></g><path class="cls-81" d="M51.76,4.29a4.46,4.46,0,0,0-2.71,2A23.65,23.65,0,0,0,47.41,10a18.77,18.77,0,0,0-1,6.69c0,2.92.73,6.63-.63,9.37-.25.51-.14.51-.73.55-2,.11-1-3.19-1.18-4.39-.42-3.42-1-7-.65-10.42a26,26,0,0,1,1.88-7.53c.39-.9.82-1.74,1.27-2.59A4.84,4.84,0,0,1,47.17.21c.62-.51,1.72,0,2.48.29a6,6,0,0,1,2.85,2C53.16,3.54,52.74,3.92,51.76,4.29Z"/><g class="cls-73"><path class="cls-82" d="M38.28,24.71c-.37-.09-.76-.17-1.16-.23-4.12-.7-8.38-.3-12.46-1.3a10.67,10.67,0,0,1-2.34-1.11c-1.46-.75-2.73-2-2.64-3.76-.19,3.63,4.19,5.15,7,5.76a21.57,21.57,0,0,0,2.76.39c.42.05,1.82-.08,2.09.26.47.62-.75,1.6-1.11,1.91a19.51,19.51,0,0,1-2.89,1.95c-.32.19-1.92,1.36-2.28,1.23,3.71,1.28,7.6-.36,11.36-.72,1.24-.12,4.1.5,4.34-1.08C41.25,25.84,40,25.11,38.28,24.71Z"/></g><path class="cls-83" d="M45.86,28.53c-.94-1-3.38-1.24-4.31,0,.29-.37,1.26,1.81,1.28,2,.5-.3.44-.74,1-.48s.61.94,1.21.93c.26,0,.44-.26.71-.26s.64.27.89.35a6,6,0,0,0,2,.42A19.92,19.92,0,0,0,45.86,28.53Z"/><path class="cls-84" d="M52.83,3.52c-.52.6-2.16.37-2.77.11a4,4,0,0,1-2.23-1.81c.11.76.66,1.42.73,2.16A2.74,2.74,0,0,1,48,5.64,17.47,17.47,0,0,0,46.42,9a22.29,22.29,0,0,0-1.11,8c0,.93.68,3.74-.22,4.43-.51.39-1,0-1.43-.52l.18,1.39c.14,1.2-.77,4.5,1.18,4.39.59,0,.48,0,.73-.55,1.36-2.74.63-6.45.63-9.37a18.77,18.77,0,0,1,1-6.69,23.65,23.65,0,0,1,1.64-3.76,4.46,4.46,0,0,1,2.71-2A2.31,2.31,0,0,0,52.83,3.52Z"/><path class="cls-85" d="M52.18,21.2c2.64-.51,8.81.75,10-2.62,1.6,3.6-3.41,9.36-6.4,10.69-2.1.93-5.49,1.34-7.66.48a35.52,35.52,0,0,0-3.62-1.36,7.07,7.07,0,0,1,2.23-4.54A10.6,10.6,0,0,1,52.18,21.2Z"/><path class="cls-86" d="M62.25,21.56a7.94,7.94,0,0,1-1,1.77,16.51,16.51,0,0,1-2.4,2.54c-2,1.84-4.48,3.22-7.27,2.68a8.21,8.21,0,0,1-3-1.39c-.4-.28-1.59-.75-1.67-1.3s.83-1.16,1.19-1.44a10.31,10.31,0,0,1,4.43-1.76c2.63-.51,6.11.3,8.15-1.94C59,22.23,56.23,21.8,54.06,21.8a11.28,11.28,0,0,0-4.3.8,16.67,16.67,0,0,0-1.76.84,2.32,2.32,0,0,1-1.1.46.59.59,0,0,1,0-.23l-.2.18a7.07,7.07,0,0,0-2.23,4.54,35.52,35.52,0,0,1,3.62,1.36c2.17.86,5.56.45,7.66-.48A14.09,14.09,0,0,0,62.25,21.56Z"/><g class="cls-73"><path class="cls-87" d="M38.69,23a6,6,0,0,0-4.36-1.57c-.64,0-1.27,0-1.91.06a1.32,1.32,0,0,1-.77,1.14,10,10,0,0,1-4.91.41c-2.62-.34-6.94-1.26-7.06-4.69-.19,3.63,4.19,5.15,7,5.76a21.57,21.57,0,0,0,2.76.39c.42.05,1.82-.08,2.09.26.47.62-.75,1.6-1.11,1.91a19.51,19.51,0,0,1-2.89,1.95c-.32.19-1.92,1.36-2.28,1.23,3.71,1.28,7.6-.36,11.36-.72,1.24-.12,4.1.5,4.34-1.08S39.84,24.08,38.69,23Z"/></g><path class="cls-88" d="M45.69,25.91c.61-2.42-1.33-5.29-3.31-6.5a13.49,13.49,0,0,0-7.46-1.59c-1.84.07-3.52.07-4.68-1.54a5.09,5.09,0,0,1-1.07-3.51c-1.22,4.14-.43,9,2.85,12,.78.7,1.69,1.15,2.51,1.76a12.11,12.11,0,0,0,2.69,1.64c1.86.77,4.23,1.18,6.13.28A4,4,0,0,0,45.69,25.91Z"/><path class="cls-89" d="M52.62,22.66c1.81-.35,4-.08,5.87-.59a16.73,16.73,0,0,1-3.62.09,9.18,9.18,0,0,0-4.44.52A7.18,7.18,0,0,0,48,24.6l.24-.18A10.31,10.31,0,0,1,52.62,22.66Z"/><path class="cls-90" d="M57.49,27.71a8.33,8.33,0,0,1-5.34,1.59A7.76,7.76,0,0,1,49,28.15c-.15-.09-.33-.22-.53-.36a.56.56,0,0,1-.4,0,3.86,3.86,0,0,0-3.62.36,2.46,2.46,0,0,0,0,.26,35.52,35.52,0,0,1,3.62,1.36c2.17.86,5.56.45,7.66-.48a14.34,14.34,0,0,0,5.54-5.48A15.07,15.07,0,0,1,57.49,27.71Z"/><path class="cls-91" d="M43.87,28.19c1.82-3.53,8.33-4.23,11.36-2,1.49,1.1,2.24,2.73,3.4,4.1a12.89,12.89,0,0,0,3.82,3.31,4.15,4.15,0,0,0,4,.07c-.6.36-1.13,1.73-1.68,2.28a6.58,6.58,0,0,1-2.45,1.49,8.21,8.21,0,0,1-6.88-.37,36,36,0,0,1-5.75-4.27,33.91,33.91,0,0,1-2.88-2.87,3.45,3.45,0,0,0-3-1.24C43.67,28.68,43.72,28.47,43.87,28.19Z"/><path class="cls-92" d="M51.78,2A8.55,8.55,0,0,0,49.17.49c-.46-.21-1.52-.69-1.7.06s1,1.73,1.59,2.12a4.14,4.14,0,0,0,3,.93C53,3.38,52.12,2.32,51.78,2Z"/><path class="cls-93" d="M46.5,4.34c.24-.36.47-.71.68-1.09.45-.84,0-1.62,0-2.49a18.5,18.5,0,0,0-2.51,4.93,28.64,28.64,0,0,0-1.2,5.18,39.17,39.17,0,0,0,0,7.1,4.2,4.2,0,0,0,.37-1.89c0-.74-.44-1.44-.49-2.2a8.24,8.24,0,0,1,.32-2.2c.16-.79.34-1.57.55-2.35a15.4,15.4,0,0,1,1.87-4.42C46.24,4.71,46.37,4.53,46.5,4.34Z"/><path class="cls-94" d="M50.3,5a8.29,8.29,0,0,1,1.46-.66,2.51,2.51,0,0,0,.73-.42c-.7.61-2.71,1.14-3.34.16a4.15,4.15,0,0,1-.87,2.29,18.26,18.26,0,0,0-1.92,13.15l.18.76c-.06-1.22-.16-2.42-.16-3.52a18.77,18.77,0,0,1,1-6.69,23.65,23.65,0,0,1,1.64-3.76A3.68,3.68,0,0,1,50.3,5Z"/><path class="cls-95" d="M43.23,22.9a7.57,7.57,0,0,0-4.36-2.17c-1.26-.26-4.19-.37-4.83-1.79a3.12,3.12,0,0,1,1.79-.43,13,13,0,0,1,2.79,0,8.8,8.8,0,0,1,3.18,1c1.55.84,2.53,2.45,3.68,3.72a7.61,7.61,0,0,0-3.1-3.84,13.49,13.49,0,0,0-7.46-1.59c-1.84.07-3.52.07-4.68-1.54a5.05,5.05,0,0,1-1.07-3.46c-.35,3.52,2.41,6.3,5.47,7.54a9.72,9.72,0,0,0,3.32.55A9,9,0,0,1,43.23,22.9Z"/><path class="cls-96" d="M43.63,27.84C41.71,24.72,36.2,25.1,33.25,26c-2.68.78-4.86,2.73-7.39,3.86s-3.92.46-6.29.12c2.73,5.37,9,5.72,14.27,3.95,2.29-.78,4-2.44,6.13-3.59,1-.54,2.91-1.89,4.08-1.54A4.54,4.54,0,0,0,43.63,27.84Z"/><path class="cls-97" d="M44.05,28.76a4.54,4.54,0,0,0-.42-.92A6,6,0,0,0,39,25.42a15.29,15.29,0,0,0-7.44,2.83c-1.87,1.21-4.16,3.31-6.56,3.15,1.23.73,3.84-.53,5-1.09,2.3-1.14,4.34-2.67,6.76-3.57.92-.34,2.83-1,3.79-.45s.23,1.85-.25,2.4a17.41,17.41,0,0,1-4.54,3.55,15.42,15.42,0,0,1-6.26,2.08,11.84,11.84,0,0,1-3.71,0,7.46,7.46,0,0,1-3.12-1.76,1.7,1.7,0,0,1-.69-2.07,5.73,5.73,0,0,0-2.35-.51c2.73,5.37,9,5.72,14.27,3.95,2.29-.78,4-2.44,6.13-3.59C41,29.76,42.88,28.41,44.05,28.76Z"/><path class="cls-98" d="M29.94,30.31c2.3-1.14,4.34-2.67,6.76-3.57a9.8,9.8,0,0,1,2.63-.66v0a0,0,0,0,0,0,0,10.42,10.42,0,0,0-3.57.69,25.57,25.57,0,0,0-5.86,3.12,7.72,7.72,0,0,1-4.68,1.67C26.51,32,28.89,30.84,29.94,30.31Z"/><path class="cls-99" d="M42.24,26.87a2.62,2.62,0,0,1-.5,1.32c-1.31,1.86-3.6,3.13-5.54,4.24-1,.59-2.09,1.19-3.18,1.71l.82-.25c2.29-.78,4-2.44,6.13-3.59.91-.5,2.6-1.67,3.77-1.59A3.67,3.67,0,0,0,42.24,26.87Z"/><g class="cls-73"><path class="cls-100" d="M54.42,29.37A6.88,6.88,0,0,1,53,26.72c0-.78.45-1,1-1.18-3.29-1.38-8.59-.49-10.21,2.65a1.28,1.28,0,0,0-.11.25l0,.22h.05a3.45,3.45,0,0,1,3,1.24,33.91,33.91,0,0,0,2.88,2.87,36,36,0,0,0,5.75,4.27,8,8,0,0,0,4,.94,4.18,4.18,0,0,1-.51,0A7.59,7.59,0,0,1,56,37c-3.49-2.08-5.77-5.64-8.63-8.4-.26-.26-1-.65-1.06-1-.23-1.15,1.45-1.28,2.19-1.37,1.61-.19,2.73.81,3.79,1.94A42.54,42.54,0,0,0,57,32.84a7.34,7.34,0,0,0,2.47,1.42,8.8,8.8,0,0,0,1,.14A12.06,12.06,0,0,1,54.42,29.37Z"/><path class="cls-101" d="M60.45,34.4l.54.15A1.87,1.87,0,0,0,60.45,34.4Z"/></g><g class="cls-73"><path class="cls-102" d="M49.29,32C48.08,30.92,47,29.7,45.9,28.54s1.82-2.21,2.63-2.31c1.61-.19,2.73.81,3.79,1.94A42.54,42.54,0,0,0,57,32.84a7.34,7.34,0,0,0,2.47,1.42,8.8,8.8,0,0,0,1,.14,9.46,9.46,0,0,1-2.17-1A14.36,14.36,0,0,1,55,30.62c-1.63-1.8-2.46-4.91-5.29-5A6.71,6.71,0,0,0,44,28.66a3.48,3.48,0,0,1,2.78,1.25,33.91,33.91,0,0,0,2.88,2.87c.76.61,1.5,1.25,2.26,1.87C51.07,33.76,50.21,32.85,49.29,32Z"/></g><path class="cls-103" d="M49.9,27.25a.72.72,0,0,0-1,.77c.05,1.08,1.66,2.85,2.33,3.62,1.84,2.08,5.43,5,8.43,4.06-2-.91-3.9-1.48-5.24-3.44S52.07,28,49.9,27.25Z"/><path class="cls-104" d="M54.08,26.37c-.21,2.56,2.67,6.37,5.28,6.56C56.84,31.33,57.36,27.56,54.08,26.37Z"/><path class="cls-105" d="M36.67,27.36a10.27,10.27,0,0,0-2.05.85c-1.5.83-2.85,2-4.34,2.79-.44.23-1.12.3-1.37.72a12,12,0,0,0,6.78-1.24c.76-.38,2.59-1.31,2.71-2.36S37.63,27.1,36.67,27.36Z"/><path class="cls-106" d="M28,29.9a2.85,2.85,0,0,1-1.3.15A25,25,0,0,1,29.49,28a25.39,25.39,0,0,1,4.05-1.67C31.74,27,30.32,28.65,28,29.9Z"/><path class="cls-107" d="M39.73,22.88c.18-1.17-4.52-1.38-5.3-1.64-2-.64-4.18-2.12-4.72-4.24-.61,1.49,1,3.57,1.84,4.68a6.45,6.45,0,0,0,5.16,2.72C37.35,24.36,39.6,23.7,39.73,22.88Z"/><path class="cls-108" d="M43,22c-.46-.45-.69-1.11-1.23-1.56a5.82,5.82,0,0,0-1.78-1c-.46-.17-2.93-.88-3.09,0-.09.49,1.06.57,1.36.62A9.61,9.61,0,0,1,43,22Z"/><path class="cls-109" d="M27.82,25.05a19.66,19.66,0,0,1-5.46-2c-1.26-.7-3-2-3-3.64,0,3,1.89,6.28,4.79,7.31,1.41.51,4.15,0,5-1.44A4.27,4.27,0,0,0,27.82,25.05Z"/><path class="cls-110" d="M52,19.78l-.18-.06c-.56-.25-.27-.8.26-1.16A8.53,8.53,0,0,1,54,17.81a11.67,11.67,0,0,0,5-3.76,5.6,5.6,0,0,1-.87,3,4.92,4.92,0,0,1-3.61,2.59A8.29,8.29,0,0,1,52,19.78Z"/><path class="cls-111" d="M49.92,18.28c-.38.17-.69.21-.81-.07-.34-.77.9-1.52,1.43-1.81,1.62-.89,3.69-1.2,5.43-1.84-1.34.92-2.82,1.61-4.21,2.45A16,16,0,0,1,49.92,18.28Z"/><path class="cls-112" d="M57.88,24.32a4.23,4.23,0,0,1-3.7.56c-.36-.11-3.33-1-3.45-.72.46-1.15,2.34-.94,3.33-.94a20.06,20.06,0,0,0,5.84-.42C59.19,23.25,58.6,23.87,57.88,24.32Z"/><path class="cls-113" d="M59.29,29c.24-1.63,5.14-.9,6-.89a5,5,0,0,0,3.15-1c-.63.44-1.11,1.28-1.76,1.78a10.85,10.85,0,0,1-2.78,1.56c-1.14.42-3.81.64-4.47-.7A1.35,1.35,0,0,1,59.29,29Z"/><path class="cls-114" d="M61.42,25.7a.11.11,0,0,1,0-.08c.24-.58,1.68-.29,2.1-.23a12,12,0,0,1,2,.82A4.78,4.78,0,0,0,68.35,26a7.33,7.33,0,0,1-3.23.62C64.87,26.62,61.59,26.18,61.42,25.7Z"/><path class="cls-115" d="M38.47,16.85a10.89,10.89,0,0,1-1.66-2.31,5.06,5.06,0,0,1-.35-2.84,5.38,5.38,0,0,0,.13,3.75,3,3,0,0,0,.93,1.25c.42.32.84.24,1.28.42A.72.72,0,0,1,38.47,16.85Z"/><path class="cls-116" d="M37.58,12a1.43,1.43,0,0,1-.14-.2A6,6,0,0,0,38.65,15a5.16,5.16,0,0,0,2.06,1.23c-.64-.31-1.2-1.49-1.58-2.06C38.64,13.4,38.1,12.72,37.58,12Z"/></g></g></g></svg>