<svg xmlns="http://www.w3.org/2000/svg" xmlns:xlink="http://www.w3.org/1999/xlink" viewBox="0 0 532.37 373.45"><defs><style>.cls-1{isolation:isolate;}.cls-2{fill:#545405;}.cls-10,.cls-23,.cls-24,.cls-3,.cls-8{mix-blend-mode:screen;}.cls-3{opacity:0.68;}.cls-4{fill:#991926;}.cls-5{fill:#8f101b;}.cls-6{fill:#6d0b0c;}.cls-11,.cls-25,.cls-7{mix-blend-mode:multiply;}.cls-7{opacity:0.25;}.cls-8{opacity:0.19;}.cls-9{fill:#a02230;}.cls-10,.cls-11{opacity:0.21;}.cls-12,.cls-25{fill:#ed311a;}.cls-13{fill:#400000;}.cls-14{fill:#fff;}.cls-15{fill:#e3e3e3;}.cls-16{fill:url(#Безымянный_градиент_84);}.cls-17{fill:#450007;}.cls-18{fill:url(#Безымянный_градиент_84-2);}.cls-19{fill:#630007;}.cls-20{fill:#9a1302;}.cls-21{fill:#880e00;}.cls-22{fill:#ba1800;}.cls-23{fill:#ff9351;}.cls-23,.cls-24{opacity:0.46;}.cls-24{fill:#ff6d1a;}.cls-25{opacity:0.39;}.cls-26{fill:#ff5615;}.cls-27{fill:#ff6a15;}.cls-28{fill:#ff7e15;}</style><radialGradient id="Безымянный_градиент_84" cx="333.68" cy="132.63" r="11.61" gradientUnits="userSpaceOnUse"><stop offset="0" stop-color="#6a1926"/><stop offset="1" stop-color="#872e5a"/></radialGradient><radialGradient id="Безымянный_градиент_84-2" cx="391.77" cy="141.72" r="9.93" xlink:href="#Безымянный_градиент_84"/></defs><g class="cls-1"><g id="Слой_2" data-name="Слой 2"><g id="_Layer_" data-name="&lt;Layer&gt;"><path class="cls-2" d="M366.38,20c2.33-1,3.8-3,6.1-5,4.8-4.35,11.76-5.78,16.34-10.36,1.94.68,4.08-.3,5.77-1.49s3.32-2.63,5.35-3c3-.59,6.49,3.12,7.79,5.46A1.58,1.58,0,0,1,408,6.79c-.2.51-.81.69-1.34.82-4.55,1.08-9,4.54-13.53,5-1.57.15-3.44,1.43-2.85,2.88-3.23-1.2-6.94-.3-9.86,1.54s-5.19,4.51-7.42,7.14c-1.23,1.47-2.55,3.19-2.26,5.09a13.54,13.54,0,0,0-8.61,5.38c-1.6,2-14.38,21.37-10.4,23.56-5.65-3.24-8-5.2-4.95-11.54,3.94-8.12,9.59-14.78,15.19-21.88a3.94,3.94,0,0,0,1-4A9.42,9.42,0,0,0,366.38,20Z"/><g class="cls-3"><path class="cls-2" d="M405.81,3c-1.65-1.76-3.89-3.3-5.87-2.9s-3.66,1.86-5.35,3-3.83,2.17-5.77,1.49c-4.58,4.58-11.54,6-16.34,10.36-2.3,2.08-3.77,4-6.1,5a9.42,9.42,0,0,1-3.48.76,3.94,3.94,0,0,1-1,4c-5.6,7.1-11.25,13.76-15.19,21.88a10.92,10.92,0,0,0-1.35,4.79,26.32,26.32,0,0,0,4.22,2.79c-3.19-1.82,2.76-11.23,3.79-13.08,1.48-2.64,3.07-5.23,4.74-7.77a25.72,25.72,0,0,1,2.07-3.1c1.75-1.94,3.84-3.12,4.88-5.68a3.48,3.48,0,0,1,.95-1.62c.51-.38,1.46-.19,1.51.44,4.81-4.8,9.23-11.21,16.51-12a2.63,2.63,0,0,0,1.47-.45,3,3,0,0,0,.68-2c.11-.71.5-1.54,1.21-1.56,0,.92,1.26,1.2,2.18,1.08,5.43-.72,9.72-3.53,14.94-4.77A2,2,0,0,0,405.81,3Z"/></g><path class="cls-4" d="M364,274.3c-58.1,50.19-137.7,49.07-181.35.49s-39.2-131.25,13.23-188C252.11,25.94,341.11,18.15,390.7,73.55S426.32,220.41,364,274.3Z"/><path class="cls-5" d="M311.59,296.6c-3.27,8.38-24.41,9.07-32.22,9.77a121.3,121.3,0,0,1-34.74-1.85,107.35,107.35,0,0,1-58.46-33.17c-42.08-46.84-37.63-126.41,12.93-180.86a153.3,153.3,0,0,1,59.06-39.81A128.27,128.27,0,0,1,290.68,43c3.56-.31,7.52-1.26,10.61,1.19,6.91,5.47-1.55,7.07-6.58,8.89-6.73,2.45-10.93,11.11-8.88,18.24a9.79,9.79,0,0,0-9.91,1.46c2.72,1,5.3,3.34,5.48,6.44s-3.28,6.1-5.67,4.41c2.3,2.2,1.85,6.43-.15,9s-5.05,3.76-8,4.76c-3.67,1.24-8.91,1.46-10-2.47a5.11,5.11,0,0,0-.1,10.2c-3,2.08-6.08,5-6.29,8.83s4.32,7.55,7,5.05c1.54-1.42,2.12-4.34,4.16-4.48,1.16-.08,2.13.87,2.94,1.76l10.92,11.84c.93,5.54-3.44,11.36-8.72,11.65,2.34,1.84.78,6-1.77,7.45s-5.63,1.37-8.24,2.62c-5.41,2.58-7,11.2-2.9,15.84a12,12,0,0,0,4.69-5.61,5.76,5.76,0,0,1,2.35,7.19,5.08,5.08,0,0,1-6.77,2.33,7.3,7.3,0,0,0,2.08,6c-4.09-.08-5.55,8.82-9.11,6.66-.86-.52-1.29-1.56-1.9-2.38-2.61-3.48-7.71-2.35-11.56-.9l-10.25,3.89a2.16,2.16,0,0,0-1.42,1.08,3.54,3.54,0,0,0,.14,1.81c.5,2.85-1.87,5.23-4.24,6.53s-5.11,2.31-6.46,4.72.31,6.65,2.94,6.13a16.52,16.52,0,0,0-3.53,5.34c-3.75-.79-8.52-1.11-10.21,2.36-1.12,2.29-.24,5.14.65,7.63a6.49,6.49,0,0,0,1.32,2.49c2.12,2.11,5.35.1,7.4-1.86s5.47-3.84,7.44-1.57c.29-3.6.57-7.19.86-10.81a51.86,51.86,0,0,1,19.34,1.19c1.69,4.08-1.95,9.16-6.11,8.54A23.15,23.15,0,0,0,243,227.93c-2.1,1.63-4.25,3.32-5.49,5.7s-1.32,5.66.52,7.74c1.44,1.63,4,2.71,4,4.86,0,1.12-.84,2-1.31,3a5.52,5.52,0,0,0,3.32,7.18,4.83,4.83,0,0,0,5.91-4.59,8.12,8.12,0,0,1,6.55,6.09l-5.34,2.28A32.11,32.11,0,0,1,258,277.7c.18,2.34.09,4.74.92,7s3,4.24,5.24,4c2.53-.28,4.3-3.19,6.86-2.84,3.38.47,4.25,5.94,7.59,6.77a17.1,17.1,0,0,0,5.84-3.84c2.77,3,5.73,6.13,9.57,7.42s8.78-.08,9.92-3.87C304.45,290.7,311.15,296,311.59,296.6Z"/><path class="cls-6" d="M269.1,301.74c.18.58-.1,1.46-1,2.74-3.78,5.28-18.44,1.06-23.45,0a107.35,107.35,0,0,1-58.46-33.17c-42.08-46.84-37.63-126.41,12.93-180.86a157.43,157.43,0,0,1,31-25.87C242,57,254,54.88,266.65,49.1c2.37,3,.71,7.94-2.06,10.61s-6.37,4-9.23,6.56c-4.1,3.62-6.21,9.15-8.8,14.09s-6.31,9.8-11.45,10.55c-2.85.41-5.73-.54-8.58-.3s-6,2.4-5.76,5.49c-2.85-.37-5.17,2.94-5.1,6.05s1.78,5.88,3.6,8.29c-1.08,5.39-6.87,9-11.72,7.23a36.05,36.05,0,0,0,4.56,12.39,4.35,4.35,0,0,0,1.47,1.67c1.51.85,3.39-.55,3.84-2.3s-.08-3.62-.61-5.37c1.34-3.39,6.52-2.63,8.43.5s1.52,7.17,1.07,10.82c-.21,1.7-.42,3.39-.64,5.08-.64,5.19-1.38,10.62-4.34,14.69a6,6,0,0,1-3.55,2.63c-1.63.29-3.29-.54-4.94-.45-4.43.26-6,6.36-9.57,9s-9.72,1.85-11.5,6.16c-.89,2.15-.33,5-1.86,6.66-1.36,1.46-3.63,1.15-5.52,1.6-5.35,1.29-6.55,10.46-1.83,13.78a15.56,15.56,0,0,0,9.18-8.53c.48-1.11,1-2.41,2.1-2.73a3.51,3.51,0,0,1,2.74.85,31.07,31.07,0,0,1,9.47,10.32c-10.37,3.08-15.51,15.92-14,27.29,1.11,8.2,6.51,17.16,14.33,17.72,2.44-4.71,9.27-6,13.58-2.6a7.42,7.42,0,0,1,2.36-6.68,38.57,38.57,0,0,1,7.73,10l-10.14,3.39c2.52,6.76,5.81,13.46,11,18.39,2.28,2.15,4.93,4,6.58,6.64s1.89,6.6-.48,8.32-6.45.92-7.47,3.65c-.89,2.41,1.81,4.91,4.32,5.63s5.36.74,7.38,2.51c1.47,1.29,2.28,3.37,4,4.26,2.94,1.52,7.33-1,9.18,1.81,1,1.46.37,3.47,1.27,5C257.44,302.55,268.24,299,269.1,301.74Z"/><path class="cls-6" d="M232.24,149.07a17.56,17.56,0,0,1-3,3.86A22.72,22.72,0,0,1,233,157.7a3.64,3.64,0,0,1,1.71-2.89c.18.25,4,4.58,4,4.54a5.45,5.45,0,0,0,2.81-6.24c-.52-2.57-2.17-4.71-3.71-6.78-.88-1.18-1.76-2.88-.89-4,.24-.32.59-.54.82-.87a2.18,2.18,0,0,0-1-2.88,5.3,5.3,0,0,0-3.18-.31c.94-.1-.24,7.53-.39,8.16A12.11,12.11,0,0,1,232.24,149.07Z"/><path class="cls-6" d="M215.84,173.47c2.09-2.22,5.21-.59,7.41-2.86,1.21-1.25,1.52-3.61.25-4.88a8.78,8.78,0,0,1,5.15-1.68,11.77,11.77,0,0,1-4.59-5.12c-1.73,1.92-2.21,6.44-4.14,7.62-1.18.73-2.69.13-4-.31-1.91-.64-4.12-.89-5.74.27s-2,4.15-.34,5.33S214.51,171.67,215.84,173.47Z"/><path class="cls-6" d="M225,97.8c-.59,1.37.13,3.38,1.52,3.49-.83.84-2.11.71-3.25.8s-2.48.8-2.4,2a2.82,2.82,0,0,0,1.29,1.83l2.92,2.34a4,4,0,0,0,1.73,1,2.15,2.15,0,0,0,2.36-1.91c.11-1-.38-2.39.4-3,1.15-.93,2.49,1.12,3.49.59,1.46-.78,1.14-3.94.79-5.57C233,95.15,227,93.16,225,97.8Z"/><path class="cls-6" d="M251.38,284.18c1.19,1.1-4.77,4.32-6.44,3.45-.79-.41-1.11-1.36-1.49-2.17a17,17,0,0,0-3.11-4.2l5-3.47a.82.82,0,0,1,.56-.21C246.59,277.69,250.58,283.43,251.38,284.18Z"/><g class="cls-7"><path class="cls-5" d="M255.21,298.22c-41-29.53-76.45-76.24-69.62-130.68,6.75-53.77,43.73-99.59,90.75-127.9-29.22,6.43-57.62,22.43-80.51,47.19-52.42,56.71-56.91,139.35-13.23,188,23.81,26.5,57.78,38.78,93,36.73C268.57,307.38,261.76,303,255.21,298.22Z"/></g><g class="cls-7"><path class="cls-5" d="M230.65,299.34c-11-11.16-20.33-23.86-28.88-37a258.09,258.09,0,0,1-20.36-36.83c-11.36-26-16.48-54.35-11.16-82.69,5.37-28.55,21.16-51.75,41.64-71.18a166.31,166.31,0,0,0-16.06,15.22c-52.42,56.71-56.91,139.35-13.23,188a110.32,110.32,0,0,0,58,33.9Q235.46,304.25,230.65,299.34Z"/></g><g class="cls-8"><path class="cls-9" d="M264.34,311.6c2.14-8.24,8.5-15.05,14.32-20.92,9.66-9.77,21.15-17.44,32.17-26.12,18.36-14.46,34.79-34.06,47.64-54.76a144.68,144.68,0,0,0,16.17-35.44c4.25-14.49,5-30.34,5.92-45.59.53-8.72.8-17.49.76-26.29,0-7.72-.77-15.53.17-23.34a37.1,37.1,0,0,1,3.22-11.75,111.24,111.24,0,0,0-60.86-29.56A133.06,133.06,0,0,1,357.79,83.2c12,25.8,16.85,56.24,11.19,84.1-3.3,16.22-11.05,30.88-20.2,44a269.55,269.55,0,0,1-30.49,36.31c-22.78,22.72-51,36.09-80.78,43A134,134,0,0,1,205,293.87a115.66,115.66,0,0,0,59.29,17.82S264.33,311.63,264.34,311.6Z"/></g><g class="cls-8"><path class="cls-9" d="M364.27,181.45C380.37,136.61,381.43,78,345.6,43.28a119.83,119.83,0,0,0-39.78-6.81,181.8,181.8,0,0,1,24.35,25c20.84,25.7,34.66,61.14,28.7,94.93-6,34.08-25.42,63.35-49.38,84.79-24.4,21.82-53.34,33.59-83.71,39.87a220.47,220.47,0,0,1-32.29,4.25A109.35,109.35,0,0,0,225,303.94a199.65,199.65,0,0,0,29.09-8.52C301.88,277.09,345.12,234.77,364.27,181.45Z"/></g><g class="cls-10"><path class="cls-4" d="M359.59,226.28c-4.52,6.06-8.7,13.84-13.74,19.18-2.5,2.65-11.26,4.6-11,8.77.17,2.23,2.85,3.56,5.05,3.22s4-1.8,5.85-3,4-2.38,6.23-1.92c1,.2,1.87.71,2.84,1,4.3,1.18,8.24-2.47,11-5.93,6.24-7.83,16.11-12,22.88-20.09,6.56-7.84,11-17.27,15.34-26.67.84-1.81,8.79-21,7.3-22.08-1.94-1.47-3.61-4.37-1.91-6.19.48-.51,1.22-1,1.18-1.64s-.84-1.18-.69-1.84c.1-.46.61-.69,1-1,1.73-1.34.79-4-.29-5.87a4.73,4.73,0,0,0-1.31-1.62,8.67,8.67,0,0,0-2.32-.77,5.71,5.71,0,0,1-3.63-3.29,10.9,10.9,0,0,0,5.18-7.68c-3.46-1.38-7.5-3.63-7.32-7.43.08-1.63,1-3.12,1.37-4.72s0-3.67-1.56-4.1c-1.83-.52-3.91,1.61-5.56.7-1.37-.75-1.1-2.77-1.3-4.36a4.89,4.89,0,0,0-4.67-4.5c.06,15.35-2.1,30.52-3.78,45.75C383.34,192.06,371.92,209.71,359.59,226.28Z"/></g><g class="cls-10"><path class="cls-4" d="M395,147.19a11,11,0,0,1,3.12,3.21c-3.54,1.81-3.52,7.93,0,9.52a2.29,2.29,0,0,0-1.26,2.67,2.14,2.14,0,0,0,2.53,1.37c1.68-.45,2.56-2.78,4.3-2.8,2,0,2.34,3.06,1.35,4.87a9.71,9.71,0,0,1-3.25,3.46,8.2,8.2,0,0,0-2.18,1.62c-1.63,2.12.36,5,2.24,6.77-2.23,1.26-4.76,3-4.73,5.55,0,2.24,2.06,3.79,3.68,5.32s3,4.05,1.63,5.84c-1,1.34-3,1.42-4.46,2.2s-2.06,3.52-.41,3.72c4.15.5-12.56,19.92-13,16.09a6.53,6.53,0,0,1-4,6.54,1.84,1.84,0,0,1-1.34.13c-.53-.2-.81-.77-1.26-1.12a2.55,2.55,0,0,0-3.18.5,14.77,14.77,0,0,0-1.91,2.93,9.87,9.87,0,0,1-9.73,4.4c5.7-7.87,9.32-16.71,14.4-25,3.25-5.2,6.55-10.49,8.58-16.34,3-8.66,3-17.83,4.42-26.89.79-5.23,1.7-10.27,2.42-15.59A11,11,0,0,1,395,147.19Z"/></g><g class="cls-10"><path class="cls-4" d="M352.76,130.72c-1.06-20.83-7.54-41.39-22.8-55.3-3.68-3.36-7.82-4.68-12-7-2-1.1-5.4-1-5.71,1.44-.36,2.79,3.22,3.18,3.78,5.3.65,2.55-1.3,4.86-.1,8.07,1,2.55,3.95,4.2,5.44,6.38-2.11,3.53-6.85,3.51-8.84,7.08-1.45,2.59-.25,5.78.54,8.63s.65,6.73-2,7.84c-2.44,1-6.27-.7-7.21,1.88a4.31,4.31,0,0,0-.07,2c.21,1.68.43,3.36.64,5a2.21,2.21,0,0,0,.39,1.17c.91,1,2.44-.55,3.76-.42,1.66.16,1.85,2.58,1.63,4.31s.22,4.17,1.88,4.08a10.35,10.35,0,0,0-4.36,6.05c-.48,1.85-1,4.37-2.84,4.4-1.1,0-2.39-1-3.16-.18-3.19,3.36,9.29,20.53,8.77,25.44-.69,6.4-11.54,8.35-10.22,15.21.28,1.46,1.27,2.78,1.23,4.26-.07,2.6-3.23,4.47-2.78,7,.53,3,4.79,2.8,7.52,4.08,3.5,1.65,4.33,7.26,1.47,9.8-4.21-.67-8.77-.46-12.2,2-4,2.84-7.18,18.06-3.87,22.12a4.81,4.81,0,0,1,.85,1.21,3.07,3.07,0,0,1,.07,1.62,9.08,9.08,0,0,1-6.5,7.22c.29,2.41,3.08,3.88,5.42,3.56s4.28-1.88,6.1-3.38c24.11-19.93,46.13-44.35,52.71-77.87A137.46,137.46,0,0,0,352.76,130.72Z"/></g><g class="cls-11"><path class="cls-6" d="M224.83,73.82c-1.82,1.78-3.35,3.88-5.23,5.57a47.85,47.85,0,0,1-5.14,3.75c-11.35,7.85-19.73,19.66-26.47,32a1.91,1.91,0,0,0-.3,1.65,1.69,1.69,0,0,0,1.25.74l5,1.15a32.3,32.3,0,0,0-4,4.79,3.17,3.17,0,0,0-.71,1.78,4,4,0,0,0,1,2.07c1.48,2.12,2.42,4.61,3.75,6.84a19.71,19.71,0,0,0,16.07,9.74c1.85,0,4.17-.71,4.3-2.7.27-4.06-8-3.17-8.18-7.25a25.66,25.66,0,0,1,.44-2.6c.13-1.95-1.47-3.49-2.71-4.95-2.63-3.1-4.14-7.64-2.86-11.55s6-6.38,9.3-4.19c2.81-4.22-.91-11.54,2.74-14.95,1.6-1.5,4-1.5,5.73-2.87,2.43-2,2.77-6.27,5.5-7.74,3.39-1.82,7.95,2.09,11.1-.22,1.91-1.42,2.13-4.32,3.14-6.6,2.3-5.2,8.62-6.76,11.94-11.35,4.29-5.91-7.92-2.07-10-1.41C234.94,67.29,229.19,69.55,224.83,73.82Z"/></g><g class="cls-11"><path class="cls-6" d="M179.28,213.07c-2.81,3.63-.83,9.39-5.27,11.56-3.46,1.69-8.83-1.29-10.22-5.14a15.64,15.64,0,0,1-.7-4.19L162.34,205a3.61,3.61,0,0,1,.12-1.61c.61-1.52,2.68-1.18,4.22-1.51,3.2-.69,4.25-8.68,3.69-11.77a7.53,7.53,0,0,0-1.71-2.79c-2.38-3.26-1.88-7.8-1.1-11.72a157.86,157.86,0,0,1,5.72-21.06c.63-1.79,1.4-3.7,3-4.55s4.1.24,4.05,2.18a11.61,11.61,0,0,1,12.82-4.79c2.41.72,5,3.56,3.6,5.73l5,2c-5.86.93-12.46,2.39-15.28,7.86-1.69,3.27-1.87,7.74-4.77,9.74-2,1.4-4.83,1.13-6.74,2.67-2.62,2.1-2.35,6.47-1.24,9.91s2.82,6.92,2.29,10.41a6.3,6.3,0,0,0-.14,3.16c.62,1.66,2.72,2,4.32,1.65s3.29-1,4.82-.25c2.3,1.12,2.51,4.75,1.14,6.87s-3.67,3.24-5.64,4.7A6.47,6.47,0,0,0,179.28,213.07Z"/></g><g class="cls-11"><path class="cls-6" d="M192.69,240.67a20.33,20.33,0,0,1,3,1.68c2.43,1.66,1.62,5.43,2.33,8.33.94,3.82,5.49,6.38,8.89,5,1.78-.73,3.43-2.38,5.36-1.86a5.39,5.39,0,0,1,2.27,1.53c3,3.06,9.74,12.06,6.11,16.36-1.33,1.57-3.49,2.11-5.56,2.21a53,53,0,0,0-6.19.22c-1.51.26-3,.85-4.52.74s-3.28-1.27-3.35-2.88a10.83,10.83,0,0,0-1.33,6.3c-4-2.06-7.28-5.56-10.15-9.2-7.44-9.44-13-20.28-18.49-31.08-.54-1.07-.57-3,.54-2.72a9.66,9.66,0,0,0,3.38,2.53c6.66,2.36.55-10.69,8.24-7.27,2.43,1.08,3.23,5,4.86,6.79A12.73,12.73,0,0,0,192.69,240.67Z"/></g><g class="cls-10"><path class="cls-4" d="M305.48,191.33c6.73-.08,12.83,6.67,12.23,13.53a8,8,0,0,1-2.68,5.62c-3.86,3-10.24.17-13.9,3.35-5.51,4.79,1.9,16.11-3.49,20.95,32.16-18.88,52.7-58.57,49.92-98.52-.22-3.32-1.68-7.6-4.89-7.28-4,2.67.69,11.34-3.69,13.28-1.55.68-3.29-.13-5,0-3.15.19-5.25,3.48-6.33,6.53s-1.87,6.48-4.35,8.46-7.21.75-7-2.46a4.69,4.69,0,0,0-4,2.21c1.41,5.32,6.56,8.4,5.44,14.36C316.67,177,310.63,189.31,305.48,191.33Z"/></g><g class="cls-8"><path class="cls-9" d="M363.71,217.08A43.39,43.39,0,0,1,348,212.82c-6.88-3.39-12.82-8.44-18.23-13.88A138.81,138.81,0,0,1,295,140.25c-5.51-18.89-6.73-39.69.63-57.94,6.27-15.54,21.28-28.65,38.12-31.71,22.08-4,37.79,13.53,51.2,28.52,22,24.54,30.91,57.82,27.62,90.27C409.91,195.46,392.51,219.4,363.71,217.08Z"/></g><g class="cls-8"><path class="cls-9" d="M370.23,162.23c-10.89-1.93-20.91-8.11-28.62-16.13-8.86-9.21-15-20.73-19.88-32.53-4-9.54-7.28-19.75-6.24-30,1.77-17.56,15.19-25.8,31.67-22.73,14.28,2.65,24.67,14.76,33.87,25,16.26,18.18,39.67,79.5-5.91,77A42.07,42.07,0,0,1,370.23,162.23Z"/></g><path class="cls-5" d="M293.17,60.37s83.6,75.45,126.66,38.56c0,0,8.48,61.66-22.6,78.37s-25-20.59-28.31-21.24-19.14,30.5-50.67,16.34C279.49,155,293.17,60.37,293.17,60.37Z"/><path class="cls-12" d="M297.08,57s83.61,75.44,126.67,38.56c0,0,8.48,61.65-22.6,78.36s-25-20.59-28.31-21.23-19.15,30.49-50.67,16.34C283.41,151.66,297.08,57,297.08,57Z"/><path class="cls-13" d="M368.11,123.49c0,17.81-16.93,35.42-30.84,35.42s-26.33-13.37-26.33-31.18,18.32-30.48,32.24-30.48S368.11,105.68,368.11,123.49Z"/><path class="cls-13" d="M417.73,133.72c0,15.42-11.12,30.67-20.27,30.67s-17.3-11.58-17.3-27,12-26.4,21.19-26.4S417.73,118.3,417.73,133.72Z"/><path class="cls-14" d="M365.74,125.86c0,17.81-16.93,35.43-30.85,35.43s-26.33-13.38-26.33-31.18,18.33-30.49,32.24-30.49S365.74,108.06,365.74,125.86Z"/><path class="cls-14" d="M415.36,136.09c0,15.42-11.13,30.68-20.27,30.68s-17.31-11.58-17.31-27,12-26.4,21.19-26.4S415.36,120.67,415.36,136.09Z"/><path class="cls-15" d="M362.71,121c0,.41,0,.83,0,1.25,0,16.25-15.45,32.33-28.16,32.33-11.09,0-21.12-9.29-23.5-22.45.52,15.67,11.61,27.3,24,27.3,12.7,0,28.16-16.08,28.16-32.33A33.28,33.28,0,0,0,362.71,121Z"/><path class="cls-15" d="M412.68,131.14q0,.78,0,1.59c0,13.66-9.85,27.17-17.95,27.17-6.8,0-13-7.24-14.79-17.65.52,12.87,7.5,22.36,15.29,22.36,8.1,0,17.95-13.51,17.95-27.17A35.79,35.79,0,0,0,412.68,131.14Z"/><path class="cls-16" d="M345.3,132.63A11.62,11.62,0,1,1,333.68,121,11.62,11.62,0,0,1,345.3,132.63Z"/><path class="cls-17" d="M339.53,132.63a5.85,5.85,0,1,1-5.85-5.84A5.84,5.84,0,0,1,339.53,132.63Z"/><path class="cls-14" d="M344.38,126.66a4.54,4.54,0,0,0-1-2.18l-.89-.84a4.51,4.51,0,0,0-2.17-.82,3.33,3.33,0,0,0-1.74.19,3.41,3.41,0,0,0-1.61.8,3.26,3.26,0,0,0-1.11,1.41,3.34,3.34,0,0,0-.55,1.65c0,.39,0,.78,0,1.17a4.54,4.54,0,0,0,1,2.18l.89.84a4.62,4.62,0,0,0,2.17.83,3.42,3.42,0,0,0,1.74-.2,3.27,3.27,0,0,0,1.61-.8,3.36,3.36,0,0,0,1.12-1.41,3.56,3.56,0,0,0,.55-1.65Z"/><path class="cls-14" d="M329.77,134.63c-2.92,0-3.42,4.54-.48,4.54S332.71,134.63,329.77,134.63Z"/><path class="cls-18" d="M401.71,141.72a9.94,9.94,0,1,1-9.94-9.93A9.94,9.94,0,0,1,401.71,141.72Z"/><path class="cls-17" d="M396.77,141.72a5,5,0,1,1-5-5A5,5,0,0,1,396.77,141.72Z"/><path class="cls-14" d="M400.92,136.62a3.9,3.9,0,0,0-.82-1.87l-.76-.71a3.83,3.83,0,0,0-1.87-.71,2.87,2.87,0,0,0-1.48.16,3,3,0,0,0-1.38.68,4.41,4.41,0,0,0-1.42,2.63c0,.33,0,.66,0,1a3.83,3.83,0,0,0,.83,1.86l.76.72a3.93,3.93,0,0,0,1.86.71,3,3,0,0,0,1.48-.17,2.9,2.9,0,0,0,1.38-.68,3,3,0,0,0,1-1.21,3,3,0,0,0,.46-1.42C400.93,137.28,400.93,137,400.92,136.62Z"/><path class="cls-14" d="M388.43,143.43c-2.5,0-2.93,3.89-.42,3.89S390.94,143.43,388.43,143.43Z"/><path class="cls-17" d="M327.52,81.92c10,4.8,33.43,6.06,44-2.37s0-15.89,0-15.89S356.53,77.12,327.52,81.92Z"/><path class="cls-17" d="M423.32,118.49c-8.84,1.49-25.58-4.19-29.63-15s6.17-14.65,6.17-14.65S405,105.59,423.32,118.49Z"/><path class="cls-19" d="M319.48,180.58s45.58,25.26,73.71,10.36c0,0-14,52.78-49.39,49.59S319.48,180.58,319.48,180.58Z"/><path class="cls-14" d="M387.81,193.25c-19.22,6.53-44-1.73-57.81-7.65a106.81,106.81,0,0,0-2.16,11.33c-.29,4.12,9.33,17.5,9.33,17.5-7.37-2.6-12.44-13.41-12.44-13.41L317.94,204c.75,16,6,34.78,25.86,36.57A33,33,0,0,0,366.58,234l3.67-8.93-10.48-3.59s10.86-.38,13.63-2.24C375.5,217.87,383.49,201.55,387.81,193.25Z"/><path class="cls-20" d="M182.6,274.79c-43.68-48.61-39.2-131.25,13.23-188A166,166,0,0,1,224.72,62l-.13-1.47S184.16,58,179.82,66.43s-108.24,208-108.24,208,43.51,31.29,57.77,32.42,63.81,8.83,72.16,10.85c4.89,1.19,19.26-5.65,30.34-11.54A109.27,109.27,0,0,1,182.6,274.79Z"/><path class="cls-21" d="M182.6,274.79c-43.68-48.61-39.2-131.25,13.23-188A165.82,165.82,0,0,1,224.74,62l-.15-1.49s-40.43-2.26-44.77,5.45S71.58,256.77,71.58,256.77s43.51,28.7,57.77,29.74,63.81,8.1,72.16,10c1.47.33,3.79,0,6.61-.79A107.93,107.93,0,0,1,182.6,274.79Z"/><path class="cls-17" d="M478.6,193.15c-5.14-.87-10.28-1.82-15.39-2.89-15-3.1-29.87-6.95-44.69-10.9q-.67,3.9-1.56,7.78c5.45,1.14,10.77,1.48,16.17,2.54L480.5,199a9.49,9.49,0,0,0,2.82.26c2.83-.32,3-3.18,5.56-4C488,195.58,479.85,193.37,478.6,193.15Z"/><path class="cls-17" d="M278.26,311.18q-2.33,5.11-4.95,10.08c-3.3-.74-7.61.91-11,1.05A162.24,162.24,0,0,0,237.89,325a180.81,180.81,0,0,0-45.95,16,.19.19,0,0,0,.15.34,181.39,181.39,0,0,1,46.58-11.79A200.24,200.24,0,0,1,262.14,328c4.64,0,9.19-.19,13.82-.33,1.18-2.2,2.34-4.4,3.5-6.61q2.73-5.22,5.36-10.5C282.63,310.79,280.44,311,278.26,311.18Z"/><path class="cls-12" d="M253.93,317.83a203.14,203.14,0,0,0-39.45,7c-6.26,1.76-12.29,4.25-18.52,6-4.69,1.35-10.42,1.49-14.46,4.52-7.92,5.91-13.56,33.61-1,37.94a1.67,1.67,0,0,0,.88.1c.58-.15.84-.8,1-1.37,3.16-9.75,7.51-19,18.12-21.86a467.42,467.42,0,0,1,58.84-11.81,9.56,9.56,0,0,0,4.9-1.61c2.63-2.18,2.11-6.28,1.35-9.61-.71-3.13-1.63-6.57-4.35-8.28C259.16,317.54,256.45,317.63,253.93,317.83Z"/><path class="cls-22" d="M246.17,339.53a263.78,263.78,0,0,0-30.48,2.58c-8.45,1.15-18.83,2-26.29,6.38-6.19,3.65-9.43,10.16-11.16,16.9a8.29,8.29,0,0,1-2.45,4.18,9.3,9.3,0,0,0,4.74,3.75,1.67,1.67,0,0,0,.88.1c.58-.15.84-.8,1-1.37,3.16-9.75,7.51-19,18.12-21.86a470.51,470.51,0,0,1,51.35-10.75Z"/><path class="cls-23" d="M253.93,317.83a203.14,203.14,0,0,0-39.45,7c-6.26,1.76-12.29,4.25-18.52,6-4.69,1.35-10.42,1.49-14.46,4.52-7.54,5.62-13,30.95-2.67,37.13a29.17,29.17,0,0,1-3.35-14.88c.22-5.21,1.57-10.4,4.89-14.51,4.77-5.91,12-8.24,19.13-10,3.3-.79,5.31-2,8.21-3.53,3.95-2.09,8.86-3.1,13.19-4.1,12.85-2.94,26.09-5.73,39.33-7.17A14.16,14.16,0,0,0,253.93,317.83Z"/><path class="cls-12" d="M443.21,202.58a258.21,258.21,0,0,0,33,9.07c10.1,1.94,20.46,2,30.49,4.06a24,24,0,0,0,1.56,6.61,5.1,5.1,0,0,0,1.79,2.56,5.66,5.66,0,0,0,3.08.57h8.29c1.94,0,4-.06,5.57-1.23,5.26-4,6.38-19.49,4.66-25.23a4.71,4.71,0,0,0-5.74-4.27,220.53,220.53,0,0,1-64.07-9c-2.63-.77-5.35-1.6-8.05-1.19C448.77,185.27,436.39,200.3,443.21,202.58Z"/><path class="cls-22" d="M517.43,223.7c.06.6-3.46-.35-3.75-.44-1.81-.63-3-1.24-4-2.95-1.66-3.07-2.52-9.58.22-12.42-1.32,1.36-2.63,2.73-3.95,4.1a1.87,1.87,0,0,1-.46.38,1.67,1.67,0,0,1-.89.09c-5.28-.33-10.34-.89-15.51-1.62a108.16,108.16,0,0,1-14.73-3.44c-8-2.31-16.09-4.88-23-9.56a12.69,12.69,0,0,1-3.39-3.05c-2-2.8-.82-4.53,1.18-6.77a22.1,22.1,0,0,0-6.89,7.73c-1.17,2.23-2.32,5.75.89,6.83a258.21,258.21,0,0,0,33,9.07c10.1,1.94,20.46,2,30.49,4.06a24,24,0,0,0,1.56,6.61,5.1,5.1,0,0,0,1.79,2.56,5.66,5.66,0,0,0,3.08.57h8.29c1.94,0,4-.06,5.57-1.23,5.09-3.86,5.24-10.83,5.23-16.61-.74,5.17-2.08,11.09-6.94,13.9-2.11,1.21-6.2,2.46-7.14-.83-1.15-4.09,6.78-5.07,7.63-9.23l-4.62,1.41a15.91,15.91,0,0,1,2.26-5,8.16,8.16,0,0,0-4.79,4.44,3.15,3.15,0,0,1-2.39-1.59C516.62,215,517,219.37,517.43,223.7Z"/><path class="cls-24" d="M530.57,200.43c-.31-2.86-2.65-4.45-5.67-4.43a220.87,220.87,0,0,1-64.07-9,28.94,28.94,0,0,0-5.61-1.26c-.57,0-2.54,2.17-2.81,2.75-.92,2,.55,2.8,2.28,3.13,4.45.87,8.92,1.72,13.41,2.38,9.11,1.35,18.41,1,27.44,2.27,11.19,1.62,22,5.1,33.15,6.85a1.78,1.78,0,0,0,1.42-.18,1.51,1.51,0,0,0,.44-1A6.66,6.66,0,0,0,530.57,200.43Z"/><path class="cls-17" d="M289.35,117.33c-20.22-2.83-43.22-6-63.54-3.45-4.14.52,1.3,21,1.81,23.39,1.47,6.87,5.62,12,9.33,17.7,4.26,6.6,8.1,13.64,11.78,20.59a26,26,0,0,1,5.3-3c-.69.29-12.28-34.76-13.76-37.75-1.16-2.37-2.61-4.6-3.72-7-1.78-3.85-5.77-6.14-1-7.85,4-1.43,10.49-.2,14.56.25,12.6,1.38,25.12,3.47,37.56,5.93a3,3,0,0,0,1.73,0,3.11,3.11,0,0,0,1.33-1.42c1.28-2.17,2.57-4.33,3.86-6.5C292.87,117.89,291.12,117.57,289.35,117.33Z"/><path class="cls-12" d="M224.86,140.05a257.49,257.49,0,0,0,14.85,30.81c3.52,6,7.16,10.45,9.09,17.26a54.41,54.41,0,0,0,5.82,13.31,6.12,6.12,0,0,0,4.32,3.43c6.33,1.87,13,2.15,19.61,2.13,2.09,0,4.31-.07,6.08-1.18,5.24-3.18.65-8.24-1.72-11.58a1.74,1.74,0,0,0,1.95-1.46,23.48,23.48,0,0,0-4-2.28,44.73,44.73,0,0,0-3.18-11.8c-3.59-.82-8.85-1.72-11.4-4.67-1.89-2.18-2.78-5.75-4.33-8.27A221.67,221.67,0,0,1,249.79,143c-1.15-2.49-2.31-5.09-4.39-6.85C241.56,132.86,222.09,133.42,224.86,140.05Z"/><path class="cls-24" d="M282.91,203.49c1.87-2.84-2-10.65-2.77-10.17a2.9,2.9,0,0,1,1.45-.47,20.82,20.82,0,0,1-3.27-7c-.41-1.61.28-4.61-1.09-5.78a3.46,3.46,0,0,0-1.44-.59c-3.16-.8-7.4-1.86-9.6-4.35-2.49-2.81-4.1-6.32-6-9.5a217.44,217.44,0,0,1-12-22.51c-1.67-3.63-3.12-6.14-7.26-7a19.16,19.16,0,0,0-13.74,2.35c4.71.33,9.1,2.7,12.64,5.83a55.82,55.82,0,0,1,6.84,7.33c2.7,3.39,4.89,7.11,7.63,10.49a125,125,0,0,1,10.09,14.82c3,4.94,6.66,9.38,9.89,14.14,2.67,3.94,6.55,8.72,4.48,13.72a4.35,4.35,0,0,0,3.8-.86A2.48,2.48,0,0,0,282.91,203.49Z"/><path class="cls-22" d="M261,198c-3.86-4.07-7.06-9-10.68-13.3-1.12-1.33-2.18-2.7-3.23-4.09.59,1,1.14,2,1.58,2.94q4.09,8.46,8.18,16.91a7,7,0,0,0,1.66,2.46,6.69,6.69,0,0,0,3.59,1.19,80.33,80.33,0,0,0,12.3.52A22.11,22.11,0,0,1,261,198Z"/><path class="cls-17" d="M273.46,262.11a47.45,47.45,0,0,0-6.95-5.66,122.37,122.37,0,0,0-13-7.1,209.41,209.41,0,0,0-49.45-17.46c-5.21-1.13-14.4-4.42-19.59-2.43-3.95,1.52-5,9.83,0,10.54,6.82,1,13.76,1.16,20.6,2.14a179.67,179.67,0,0,1,21.65,4.5c11.34,3.11,21.88,7.63,32.38,12.62-3.09,0-6.13.22-8.87.34a161,161,0,0,0-24.38,2.71,180.88,180.88,0,0,0-46,16,.19.19,0,0,0,.16.34,180.88,180.88,0,0,1,46.58-11.79,200.26,200.26,0,0,1,23.47-1.6c4,0,8.07,0,12.11.22a65.46,65.46,0,0,0,10.38-.61c.74-.08,1.67-.33,1.78-1.07C274.46,263.4,274.08,262.8,273.46,262.11Z"/><path class="cls-12" d="M241.92,255.12a203,203,0,0,0-39.45,7c-6.27,1.76-12.29,4.25-18.53,6-4.68,1.34-10.41,1.49-14.45,4.51-7.93,5.92-13.56,33.62-1,37.94a1.57,1.57,0,0,0,.88.11c.58-.15.84-.8,1-1.37,3.15-9.75,7.5-19,18.12-21.86a469.24,469.24,0,0,1,58.84-11.82c1.72-.23,3.55-.49,4.89-1.61,2.63-2.17,2.11-6.27,1.36-9.6-.71-3.13-1.64-6.58-4.35-8.28C247.15,254.82,244.44,254.92,241.92,255.12Z"/><path class="cls-22" d="M234.16,276.82a261.22,261.22,0,0,0-30.48,2.58c-8.45,1.15-18.83,2-26.3,6.38-6.18,3.65-9.42,10.16-11.16,16.9a8.28,8.28,0,0,1-2.44,4.18,9.24,9.24,0,0,0,4.74,3.74,1.57,1.57,0,0,0,.88.11c.58-.15.84-.8,1-1.37,3.15-9.75,7.5-19,18.12-21.86a467.68,467.68,0,0,1,51.35-10.75C238,276.76,236.07,276.78,234.16,276.82Z"/><path class="cls-23" d="M241.92,255.12a203,203,0,0,0-39.45,7c-6.27,1.76-12.29,4.25-18.53,6-4.68,1.34-10.41,1.49-14.45,4.51-7.54,5.63-13,30.95-2.67,37.13a29.22,29.22,0,0,1-3.36-14.87c.22-5.21,1.58-10.41,4.9-14.51,4.77-5.91,12-8.25,19.13-10,3.3-.79,5.3-2,8.2-3.53,4-2.09,8.87-3.11,13.2-4.1,12.84-2.94,26.09-5.73,39.33-7.17A14.16,14.16,0,0,0,241.92,255.12Z"/><path class="cls-12" d="M231,58s-45.11-3.35-57.86,1.3S67.1,225,59.22,227.93s-59-10.7-59-10.7,36.28,62.22,71.4,65.59,114.2-58.7,119.28-65.59.75-140.41,5.32-145.62c5.44-6.21,18.95-6.23,27.14-8.67Z"/><path class="cls-25" d="M190.86,88.17c-9,9.75-12.86,22.25-16.84,34.62-4.33,13.47-7.81,27.19-12,40.71-8,26-20.35,50.51-40.53,69.25-8.72,8.11-19,14.62-30.58,17.73-12,3.22-24.46,2.58-36.58.5-15-2.57-30.65-8.08-43.29-17.26,13.38,18.69,37.2,46.86,60.52,49.1,35.12,3.37,114.2-58.7,119.28-65.59,4.21-5.69,1.94-97.86,3.63-132.63C193.24,85.72,192,86.91,190.86,88.17Z"/><path class="cls-25" d="M168.92,212.16c-13.39,16.17-30.17,31.41-49.32,40.44-18.41,8.68-39.68,11.88-59.91,10.3a107.84,107.84,0,0,1-30.19-6.49c12.38,13.2,27.33,25,42.08,26.41,35.12,3.37,114.2-58.7,119.28-65.59,1.74-2.35,2.37-19.42,2.63-41.12A242.82,242.82,0,0,1,168.92,212.16Z"/><path class="cls-26" d="M64.77,241.56c7.42-2.37,58.21-86.78,72.14-106.76q10.71-15.38,22.29-30.1c7-8.82,14.07-17.74,22.29-25.43,9.6-9,23.06-17.57,34.9-21.81-12.43-1.39-35-1-43.44,2.1C160.2,64.22,66.91,225.31,59,228.22s-59-10.7-59-10.7,3.08,5.27,8.3,12.83C23.83,237.37,53.77,243.06,64.77,241.56Z"/><path class="cls-27" d="M132.51,125a1.41,1.41,0,0,0,1.07.19c3.94-.53,8.61-8.1,11.17-11,4.15-4.64,8.21-9.34,12.29-14,8.16-9.35,16.4-18.67,25.45-27.18,3-2.82,7.16-6.35,7.57-10.7-4-1.29-10.45-1.89-14.5-.21-5.89,2.46-9.41,7.77-13,12.72-4.43,6.06-8.66,12.26-12.94,18.42A175.2,175.2,0,0,0,132.45,123C132.16,123.63,131.92,124.55,132.51,125Z"/><path class="cls-27" d="M116.92,146.12c-.68,1.38-1.15,2.43-1.33,2.86-.31.74-.55,1.73.08,2.24,4.4,3.51,13.13-11.31,13.77-14.36a5.75,5.75,0,0,0-.26-3.78C126.55,127.91,119.85,140.12,116.92,146.12Z"/><path class="cls-28" d="M161.93,77.33a31.58,31.58,0,0,0-4.23,8.19c-.25.77-.3,1.84.43,2.18.54.25,1.16-.09,1.66-.4a152.28,152.28,0,0,0,22.64-17.68,4.25,4.25,0,0,0,1.3-1.77A2.81,2.81,0,0,0,182,64.73c-4.6-2-9.19,1.06-12.31,4.16C167,71.61,164.13,74.16,161.93,77.33Z"/><path class="cls-27" d="M64.45,225.84c.21-.24.42-.49.63-.76A149.12,149.12,0,0,0,76.63,209c5.16-8.34,10.63-16.42,15.78-24.77.45-.73,1.09-1.54,1.93-1.42-1.09,9.2-5.48,20-10,28s-10.17,17.08-16.51,24c-3.7,4.06-8.76,3.62-13.71,2.5-5.41-1.22-10.9-2.47-15.82-5.06-.45-.24-1-.59-1-1.11s.82-1,1.49-1.08c3.26-.39,6.48.64,9.69,1.3C55.05,232.7,60.17,230.87,64.45,225.84Z"/><path class="cls-25" d="M177.5,155.46q.78-1.86,1.53-3.72c2.67-6.56,5.34-13.33,10.12-18.56,4.15,18.24,1.59,36.12-8.07,52.06-10.29,17-21.16,35.53-37.7,47.15-1.49,1-4.19,3.09-6.18,2.77-4.25-.7.33-5.38,1.72-7.33C154.76,205.48,167,180.77,177.5,155.46Z"/></g></g></g></svg>