<svg xmlns="http://www.w3.org/2000/svg" xmlns:xlink="http://www.w3.org/1999/xlink" viewBox="0 0 99.95 71.38"><defs><style>.cls-1{isolation:isolate;}.cls-2{fill:url(#Безымянный_градиент_538);}.cls-12,.cls-13,.cls-15,.cls-16,.cls-17,.cls-18,.cls-19,.cls-20,.cls-25,.cls-26,.cls-3,.cls-34,.cls-37,.cls-43,.cls-45,.cls-48,.cls-5,.cls-50,.cls-54,.cls-55,.cls-59,.cls-61,.cls-65,.cls-72,.cls-76,.cls-8,.cls-9{mix-blend-mode:multiply;}.cls-3,.cls-41,.cls-5{opacity:0.39;}.cls-3{fill:url(#linear-gradient);}.cls-4,.cls-5,.cls-66{fill:#b96007;}.cls-6{fill:url(#linear-gradient-2);}.cls-7{fill:url(#Безымянный_градиент_259);}.cls-8{opacity:0.28;fill:url(#linear-gradient-3);}.cls-43,.cls-55,.cls-9{opacity:0.52;}.cls-9{fill:url(#linear-gradient-4);}.cls-10{fill:url(#Безымянный_градиент_276);}.cls-11{fill:url(#linear-gradient-5);}.cls-12,.cls-17{opacity:0.36;}.cls-12{fill:url(#linear-gradient-6);}.cls-13{opacity:0.31;fill:url(#linear-gradient-7);}.cls-14{fill:url(#Безымянный_градиент_119);}.cls-15,.cls-18,.cls-65{opacity:0.41;}.cls-15{fill:url(#linear-gradient-8);}.cls-16,.cls-19,.cls-20{opacity:0.18;}.cls-16{fill:url(#linear-gradient-9);}.cls-17{fill:url(#linear-gradient-10);}.cls-18{fill:url(#linear-gradient-11);}.cls-19{fill:url(#linear-gradient-12);}.cls-20{fill:url(#linear-gradient-13);}.cls-21{fill:url(#Безымянный_градиент_211);}.cls-22{fill:url(#Безымянный_градиент_211-2);}.cls-23{fill:url(#Безымянный_градиент_259-2);}.cls-24{fill:url(#Безымянный_градиент_119-2);}.cls-25,.cls-26,.cls-76{opacity:0.33;}.cls-25{fill:url(#linear-gradient-14);}.cls-26{fill:url(#linear-gradient-15);}.cls-27{fill:url(#Безымянный_градиент_119-3);}.cls-28,.cls-29,.cls-30,.cls-31,.cls-32,.cls-33,.cls-41,.cls-46,.cls-62,.cls-64,.cls-66,.cls-67,.cls-68,.cls-69,.cls-70,.cls-77,.cls-78,.cls-79,.cls-80{mix-blend-mode:screen;}.cls-28{opacity:0.46;fill:url(#Безымянный_градиент_236);}.cls-29,.cls-30,.cls-31,.cls-32,.cls-33,.cls-64,.cls-67,.cls-68,.cls-69,.cls-70,.cls-77,.cls-78,.cls-79,.cls-80{opacity:0.29;}.cls-29{fill:url(#Безымянный_градиент_236-2);}.cls-30{fill:url(#Безымянный_градиент_238);}.cls-31{fill:url(#Безымянный_градиент_238-2);}.cls-32{fill:url(#Безымянный_градиент_236-3);}.cls-33{fill:url(#Безымянный_градиент_236-4);}.cls-34{opacity:0.34;}.cls-35{fill:url(#linear-gradient-16);}.cls-36{fill:url(#linear-gradient-17);}.cls-37,.cls-54{opacity:0.59;}.cls-37{fill:url(#linear-gradient-18);}.cls-38{fill:#631d00;}.cls-39{fill:#772c00;}.cls-40,.cls-41,.cls-43,.cls-48{fill:#9b4307;}.cls-42{fill:#e08307;}.cls-44,.cls-45,.cls-46{fill:#f9b007;}.cls-45{opacity:0.64;}.cls-46{opacity:0.3;}.cls-47{fill:#da7907;}.cls-48,.cls-61{opacity:0.32;}.cls-49{fill:url(#Безымянный_градиент_119-4);}.cls-50{opacity:0.27;}.cls-51{fill:url(#Безымянный_градиент_38);}.cls-52{fill:url(#Безымянный_градиент_38-2);}.cls-53{fill:url(#linear-gradient-19);}.cls-54{fill:url(#linear-gradient-20);}.cls-55{fill:url(#linear-gradient-21);}.cls-56{fill:#832a00;}.cls-57,.cls-61{fill:#9c4307;}.cls-58,.cls-59{fill:#00a1da;}.cls-59{opacity:0.54;}.cls-60{fill:#4cbde5;}.cls-63{fill:url(#Безымянный_градиент_211-3);}.cls-64{fill:url(#Безымянный_градиент_238-3);}.cls-65{fill:url(#linear-gradient-22);}.cls-66{opacity:0.7;}.cls-67{fill:url(#Безымянный_градиент_236-5);}.cls-68{fill:url(#Безымянный_градиент_236-6);}.cls-69{fill:url(#Безымянный_градиент_236-7);}.cls-70{fill:url(#Безымянный_градиент_236-8);}.cls-71{fill:#fff1bb;}.cls-72{fill:#ffd329;}.cls-73{fill:url(#linear-gradient-23);}.cls-74{fill:url(#Безымянный_градиент_538-2);}.cls-75{fill:url(#Безымянный_градиент_538-3);}.cls-76{fill:url(#linear-gradient-24);}.cls-77{fill:url(#Безымянный_градиент_238-4);}.cls-78{fill:url(#Безымянный_градиент_238-5);}.cls-79{fill:url(#Безымянный_градиент_236-9);}.cls-80{fill:url(#Безымянный_градиент_236-10);}</style><linearGradient id="Безымянный_градиент_538" x1="50.11" y1="58.71" x2="49.37" y2="78.67" gradientUnits="userSpaceOnUse"><stop offset="0" stop-color="#176500"/><stop offset="1" stop-color="#3fac00"/></linearGradient><linearGradient id="linear-gradient" x1="5.85" y1="61.52" x2="93.28" y2="61.52" gradientUnits="userSpaceOnUse"><stop offset="0" stop-color="#47bb00"/><stop offset="1" stop-color="#258e00"/></linearGradient><linearGradient id="linear-gradient-2" x1="-121.54" y1="122.63" x2="-105.88" y2="137.52" gradientTransform="translate(150.94 -63.98) rotate(12.22)" xlink:href="#linear-gradient"/><linearGradient id="Безымянный_градиент_259" x1="-84.36" y1="86.38" x2="-84.03" y2="97.72" gradientTransform="translate(150.94 -63.98) rotate(12.22)" gradientUnits="userSpaceOnUse"><stop offset="0" stop-color="#5a9d00"/><stop offset="1" stop-color="#4e9a00"/></linearGradient><linearGradient id="linear-gradient-3" x1="-99.48" y1="95.85" x2="-67.73" y2="95.85" gradientTransform="translate(150.94 -63.98) rotate(12.22)" xlink:href="#linear-gradient"/><linearGradient id="linear-gradient-4" x1="-101.35" y1="105.31" x2="-85.93" y2="119.98" gradientTransform="translate(122.98 -54.25) rotate(9.98)" xlink:href="#linear-gradient"/><linearGradient id="Безымянный_градиент_276" x1="-81.97" y1="82.96" x2="-78.56" y2="93.53" gradientTransform="translate(122.98 -54.25) rotate(9.98)" gradientUnits="userSpaceOnUse"><stop offset="0" stop-color="#7ad400"/><stop offset="1" stop-color="#4e9a00"/></linearGradient><linearGradient id="linear-gradient-5" x1="-64.24" y1="89.29" x2="-61.27" y2="108.01" gradientTransform="translate(150.94 -63.98) rotate(12.22)" xlink:href="#linear-gradient"/><linearGradient id="linear-gradient-6" x1="-64.03" y1="90.92" x2="-61.23" y2="108.61" gradientTransform="translate(150.94 -63.98) rotate(12.22)" xlink:href="#linear-gradient"/><linearGradient id="linear-gradient-7" x1="-103.79" y1="98.68" x2="-100.38" y2="113.88" gradientTransform="translate(150.94 -63.98) rotate(12.22)" xlink:href="#linear-gradient"/><linearGradient id="Безымянный_градиент_119" x1="-83.29" y1="100.56" x2="-75.12" y2="147.73" gradientTransform="translate(150.94 -63.98) rotate(12.22)" gradientUnits="userSpaceOnUse"><stop offset="0.01" stop-color="#92f000"/><stop offset="1" stop-color="#a9db00"/></linearGradient><linearGradient id="linear-gradient-8" x1="-85.37" y1="105.44" x2="-76.86" y2="138.53" gradientTransform="translate(150.94 -63.98) rotate(12.22)" xlink:href="#linear-gradient"/><linearGradient id="linear-gradient-9" x1="-108.16" y1="125.3" x2="-52.92" y2="125.3" gradientTransform="translate(150.94 -63.98) rotate(12.22)" xlink:href="#linear-gradient"/><linearGradient id="linear-gradient-10" x1="-107.42" y1="119.93" x2="-52.84" y2="119.93" gradientTransform="translate(150.94 -63.98) rotate(12.22)" xlink:href="#linear-gradient"/><linearGradient id="linear-gradient-11" x1="-70.7" y1="98.44" x2="-71.9" y2="113.93" gradientTransform="translate(150.94 -63.98) rotate(12.22)" xlink:href="#linear-gradient"/><linearGradient id="linear-gradient-12" x1="-107.43" y1="98.89" x2="-52.83" y2="98.89" gradientTransform="translate(150.94 -63.98) rotate(12.22)" xlink:href="#linear-gradient"/><linearGradient id="linear-gradient-13" x1="-107.46" y1="126.78" x2="-52.83" y2="126.78" gradientTransform="translate(150.94 -63.98) rotate(12.22)" xlink:href="#linear-gradient"/><linearGradient id="Безымянный_градиент_211" x1="-95.11" y1="106.57" x2="-89.87" y2="154.22" gradientTransform="translate(150.94 -63.98) rotate(12.22)" gradientUnits="userSpaceOnUse"><stop offset="0.01" stop-color="#b6f555"/><stop offset="1" stop-color="#a9db00"/></linearGradient><linearGradient id="Безымянный_градиент_211-2" x1="-74.95" y1="104.57" x2="-69.82" y2="151.24" xlink:href="#Безымянный_градиент_211"/><linearGradient id="Безымянный_градиент_259-2" x1="-45.92" y1="106.54" x2="-66.74" y2="155.93" xlink:href="#Безымянный_градиент_259"/><linearGradient id="Безымянный_градиент_119-2" x1="-31.67" y1="103.11" x2="-53.11" y2="124" xlink:href="#Безымянный_градиент_119"/><linearGradient id="linear-gradient-14" x1="-40.37" y1="105.06" x2="-61.91" y2="139.02" gradientTransform="translate(150.94 -63.98) rotate(12.22)" xlink:href="#linear-gradient"/><linearGradient id="linear-gradient-15" x1="-47.51" y1="116.27" x2="-63.69" y2="141.79" gradientTransform="translate(150.94 -63.98) rotate(12.22)" xlink:href="#linear-gradient"/><linearGradient id="Безымянный_градиент_119-3" x1="-121.73" y1="121.55" x2="-106.9" y2="130.6" xlink:href="#Безымянный_градиент_119"/><linearGradient id="Безымянный_градиент_236" x1="-85.6" y1="96.22" x2="-89.45" y2="111.47" gradientTransform="translate(150.94 -63.98) rotate(12.22)" gradientUnits="userSpaceOnUse"><stop offset="0" stop-color="#f8fcf4"/><stop offset="1" stop-color="#4e9a00"/></linearGradient><linearGradient id="Безымянный_градиент_236-2" x1="-55.48" y1="116.28" x2="-60.65" y2="126.08" xlink:href="#Безымянный_градиент_236"/><linearGradient id="Безымянный_градиент_238" x1="-75.57" y1="95.27" x2="-75.71" y2="104.7" gradientTransform="translate(150.94 -63.98) rotate(12.22)" gradientUnits="userSpaceOnUse"><stop offset="0" stop-color="#fff"/><stop offset="1" stop-color="#4e9a00"/></linearGradient><linearGradient id="Безымянный_градиент_238-2" x1="-103.98" y1="106.19" x2="-97.38" y2="116.1" xlink:href="#Безымянный_градиент_238"/><linearGradient id="Безымянный_градиент_236-3" x1="-41.82" y1="95.17" x2="-43.81" y2="101.12" xlink:href="#Безымянный_градиент_236"/><linearGradient id="Безымянный_градиент_236-4" x1="-42.72" y1="106.34" x2="-45.26" y2="116.36" xlink:href="#Безымянный_градиент_236"/><linearGradient id="linear-gradient-16" x1="16.72" y1="30.55" x2="16.81" y2="30.61" xlink:href="#linear-gradient"/><linearGradient id="linear-gradient-17" x1="3.64" y1="33.07" x2="18.04" y2="41.86" xlink:href="#linear-gradient"/><linearGradient id="linear-gradient-18" x1="32.54" y1="50.49" x2="47.06" y2="50.49" xlink:href="#linear-gradient"/><linearGradient id="Безымянный_градиент_119-4" x1="-220.73" y1="206.62" x2="-191.32" y2="206.62" gradientTransform="translate(294.15 -58.25) rotate(20.7)" xlink:href="#Безымянный_градиент_119"/><linearGradient id="Безымянный_градиент_38" x1="-98.92" y1="147.38" x2="-87.13" y2="147.38" gradientTransform="translate(150.94 -63.98) rotate(12.22)" gradientUnits="userSpaceOnUse"><stop offset="0" stop-color="#90cc40"/><stop offset="1" stop-color="#68ae25"/></linearGradient><linearGradient id="Безымянный_градиент_38-2" x1="-97.16" y1="150.8" x2="-82.33" y2="150.8" xlink:href="#Безымянный_градиент_38"/><linearGradient id="linear-gradient-19" x1="-223.24" y1="208.23" x2="-196.08" y2="208.23" gradientTransform="translate(294.15 -58.25) rotate(20.7)" xlink:href="#linear-gradient"/><linearGradient id="linear-gradient-20" x1="50.51" y1="43.71" x2="66.78" y2="43.71" xlink:href="#linear-gradient"/><linearGradient id="linear-gradient-21" x1="-223.24" y1="209.27" x2="-196.08" y2="209.27" gradientTransform="translate(294.15 -58.25) rotate(20.7)" xlink:href="#linear-gradient"/><linearGradient id="Безымянный_градиент_211-3" x1="-70.66" y1="103.44" x2="-65.34" y2="151.71" xlink:href="#Безымянный_градиент_211"/><linearGradient id="Безымянный_градиент_238-3" x1="-60.92" y1="104.31" x2="-66.7" y2="116.29" xlink:href="#Безымянный_градиент_238"/><linearGradient id="linear-gradient-22" x1="29.26" y1="43.39" x2="31.83" y2="43.39" xlink:href="#linear-gradient"/><linearGradient id="Безымянный_градиент_236-5" x1="69.25" y1="6.85" x2="66.45" y2="12.77" gradientTransform="matrix(1, 0, 0, 1, 0, 0)" xlink:href="#Безымянный_градиент_236"/><linearGradient id="Безымянный_градиент_236-6" x1="48.51" y1="-1.61" x2="44.84" y2="5" gradientTransform="matrix(1, 0, 0, 1, 0, 0)" xlink:href="#Безымянный_градиент_236"/><linearGradient id="Безымянный_градиент_236-7" x1="58.37" y1="3.87" x2="54.7" y2="10.47" gradientTransform="matrix(1, 0, 0, 1, 0, 0)" xlink:href="#Безымянный_градиент_236"/><linearGradient id="Безымянный_градиент_236-8" x1="73.39" y1="18.13" x2="78.95" y2="18.13" gradientTransform="matrix(1, 0, 0, 1, 0, 0)" xlink:href="#Безымянный_градиент_236"/><linearGradient id="linear-gradient-23" x1="-2.59" y1="30.07" x2="13.4" y2="39.83" xlink:href="#linear-gradient"/><linearGradient id="Безымянный_градиент_538-2" x1="8.89" y1="57.66" x2="5.97" y2="50.88" xlink:href="#Безымянный_градиент_538"/><linearGradient id="Безымянный_градиент_538-3" x1="93" y1="62.63" x2="95.31" y2="58.11" xlink:href="#Безымянный_градиент_538"/><linearGradient id="linear-gradient-24" x1="59.53" y1="55.57" x2="91.89" y2="55.57" xlink:href="#linear-gradient"/><linearGradient id="Безымянный_градиент_238-4" x1="29.59" y1="58.8" x2="33.66" y2="76.53" gradientTransform="matrix(1, 0, 0, 1, 0, 0)" xlink:href="#Безымянный_градиент_238"/><linearGradient id="Безымянный_градиент_238-5" x1="37.78" y1="56.92" x2="41.86" y2="74.65" gradientTransform="matrix(1, 0, 0, 1, 0, 0)" xlink:href="#Безымянный_градиент_238"/><linearGradient id="Безымянный_градиент_236-9" x1="70.87" y1="52.53" x2="83.04" y2="52.53" gradientTransform="matrix(1, 0, 0, 1, 0, 0)" xlink:href="#Безымянный_градиент_236"/><linearGradient id="Безымянный_градиент_236-10" x1="56.23" y1="63.63" x2="64.35" y2="63.63" gradientTransform="matrix(1, 0, 0, 1, 0, 0)" xlink:href="#Безымянный_градиент_236"/></defs><g class="cls-1"><g id="Слой_2" data-name="Слой 2"><g id="Layer_1" data-name="Layer 1"><path class="cls-2" d="M90.5,60.11c-.43-.07-.83-.12-1.16-.16a11.72,11.72,0,0,1,1.48-.86c-.66-.49-1.84,0-2.66.25.83-1,2.19-1.54,3.06-2.57-1.39-.09-3.17,1.36-4,2.44-.09-.85.93-2.17,1.38-3-1.26.53-1.79,2-2.24,3.15-.31-1-.15-2.25-.4-3.31a14.47,14.47,0,0,0-.62,2.89c-1.75,0-3.79-.81-5.55-1.09q-3.17-.51-6.35-.88c-5.61-.65-11.26-.92-16.88-1.38-12.26-1-24.65-1.77-36.94-.82-3.25.25-6.5.48-9.71,1.05-2,.37-10,1.48-9.92,4.52,0,1.42,2.59,1.57,3.6,1.77A9.08,9.08,0,0,1,6,62.61c.35.19.58.73.82.83,1.76.72,3.93.31,5.78.27a53.09,53.09,0,0,1,6.13.49c3.56.34,7.09.68,10.63,1.21a8.24,8.24,0,0,1,3.64,1c.72.49.83,1.1,1.4,1.53,1.57,1.19,4.48.82,6.35,1,1.7.12,4,.6,5.74.11.83-.24,1.4-.75,2.32-1,1.88-.5,3,0,4.72.3,3.23.63,7.51-.61,10.81-.72a79.28,79.28,0,0,1,11.54.47c2.08.24,6.08,1.33,7.83-.25.13-.12-.5-.57-.23-.74a10.18,10.18,0,0,1,1.08-.44c1.39-.65,3.77-.48,5.29-.62,1.19-.11,9.84-.33,10.07-1.76C100.34,61.81,92.16,60.38,90.5,60.11Z"/><path class="cls-3" d="M90.5,60.11c-.43-.07-.83-.12-1.16-.16a11.72,11.72,0,0,1,1.48-.86c-.66-.49-1.84,0-2.66.25.83-1,2.19-1.54,3.06-2.57-1.39-.09-3.17,1.36-4,2.44-.09-.85.93-2.17,1.38-3-1.26.53-1.79,2-2.24,3.15-.31-1-.15-2.25-.4-3.31a14.47,14.47,0,0,0-.62,2.89c-1.75,0-3.79-.81-5.55-1.09q-3.17-.51-6.35-.88c-5.61-.65-11.26-.92-16.88-1.38-12.26-1-24.65-1.77-36.94-.82-1.44.11-9.15.49-13.78,2a6.65,6.65,0,0,1,5.61,2.53,4.65,4.65,0,0,1,1,4.31l6.33.57c3.56.34,7.09.68,10.63,1.21a8.24,8.24,0,0,1,3.64,1c.72.49.83,1.1,1.4,1.53a3.11,3.11,0,0,0,.78.43c.53-.24,1-.48,1.52-.72,2.44-1.21,4.85-1.72,7.25-.44a25.58,25.58,0,0,0,3.35,1.47,7,7,0,0,1,1.51-.66c1.88-.5,3,0,4.72.3,3.23.63,7.51-.61,10.81-.72s6.35.18,9.53.25a1,1,0,0,1,0-.72c.23-.68,1.38-.89,2-1.06a34.87,34.87,0,0,1,4.78-.59c.43-.06,1.8-.12,2.13-.46.66-.67-.21-.32,0-.9.77-2,2.39-1.34,4.4-1.64,1.77-.26,4.4-.56,6.13-1.75A16.66,16.66,0,0,0,90.5,60.11Z"/><path class="cls-4" d="M80.55,64.55c.38,0,2.39-7.49,2.68-8.28.77-2.1,1.53-5,2.92-6.8-1.4.36-2.78.77-4.13,1.23-.13,1.08-3,13.53-3.39,13.43A5.7,5.7,0,0,0,80.55,64.55Z"/><path class="cls-5" d="M80.5,59.46C81,57.22,81.92,55,84,53.91a15.48,15.48,0,0,1,2.11-4.44c-1.4.36-2.78.77-4.13,1.23-.13,1.08-3,13.53-3.39,13.43a5.7,5.7,0,0,0,1.92.42c.07,0,.19-.24.34-.63C79.38,63.36,80.26,60.57,80.5,59.46Z"/><path class="cls-6" d="M31,59.15h-.21l-.16,0h-.05l-.14,0h-.06l-.15,0h-.06L30,59a9.9,9.9,0,0,1-5.64-4.4,26.6,26.6,0,0,0-5.38-5.32c-2.07-1.73-3.69-3.52-3.73-6.33,0-1.27.45-2.22-1.1-2.58-.64-.15-1,.33-1.4-.33a.22.22,0,0,1-.05-.08.66.66,0,0,1-.06-.2,1.35,1.35,0,0,1,0-.35,6.44,6.44,0,0,1,.17-1.08s0-.07,0-.1c0-.19.07-.39.1-.59l0-.31.06-.61c0-.31,0-.62,0-.94a12.37,12.37,0,0,0-.22-2.5,8.23,8.23,0,0,0-.3-1.21c-.06-.2-.13-.39-.2-.59l-.12-.28a8.67,8.67,0,0,0-.57-1.09,7.26,7.26,0,0,0-1-1.2c-.2-.21-.45-.36-.66-.57a3.43,3.43,0,0,1,1.28-.12,5.18,5.18,0,0,1,2.26.54l1.19.55c.38.17.69.48,1.08.61-.14-.05-.14-.45-.18-.57a3,3,0,0,0-.37-.68,8.68,8.68,0,0,0-1-1.19,7.88,7.88,0,0,0-1.69-1.36C10.48,24.93,7.64,24,5.33,25c-1.33.59-4,3.78-1.38,4.61C5.29,30,7,29.85,8,31,7.72,33,7.41,35,7,37c-.41,1.78-1.27,3.52-1.13,5.39a9.05,9.05,0,0,0,2.16,5c1.21,1.41,3,1.79,3.78,3.55a16,16,0,0,0,2.78,4.29A14.67,14.67,0,0,0,23.19,60a21.9,21.9,0,0,0,4.41.43A18.18,18.18,0,0,0,30.45,60c.69-.16,2-.9,2.68-.82C32.41,59.1,31.72,59.18,31,59.15Z"/><path class="cls-7" d="M61.15,18.41H61a10.51,10.51,0,0,0-5.38,1.86c-1.8,1.13-3.88.69-5.9.66-2.75,0-5.5,0-8.25-.1s-5.32-.32-7.52-2.39C31.5,16.16,29,12.62,31,9.23c.87-1.5,1.85-1.14,3.26-1.27,1.85-.18,3.12-1.55,4.41-2.76C41.41,2.61,44.41.1,48.43,0c2.65-.06,2.17,2.54,4.71,2.85,2.82.35,5.31-.05,7.71,1.77C64.29,7.24,67.9,12.55,65.48,17A2,2,0,0,1,64,18.29,12.8,12.8,0,0,1,61.15,18.41Z"/><path class="cls-8" d="M34.16,8.22a8.6,8.6,0,0,0,2.47-.84c1.27-.81,2.1-2,3.3-2.94-3.71,4.45,6.34,4.82,8.52,4.77C52,9.14,52.2,5.42,51.31,2.6a7.39,7.39,0,0,0,4.53,1.07c-2,1.11-5.17,5.69-1.07,5.63A8.06,8.06,0,0,1,58,9.78c.65.25,1.3.78,2,.7,1.65-.16,2.53-2.38,4.46-1.87a4.84,4.84,0,0,0-.56,3.26c.31,1.52,1.14,3.5-.11,4.83-1.64,1.73-6.16,2.25-8.28,2.65A62.68,62.68,0,0,1,42.48,20c-3.3-.1-7.2-.43-9.31-3.35-1-1.38-1.63-2.69.13-3.65,1.24-.68,3.91-.79,4.34-2.59C38,9,36.14,8.23,34.16,8.22Z"/><path class="cls-9" d="M32.86,59.16c-.62,0-1.23,0-1.86,0h-.21l-.16,0h-.05l-.14,0h-.06l-.15,0h-.06L30,59a9.9,9.9,0,0,1-5.64-4.4,19.67,19.67,0,0,0-3.6-3.83c.51,1.53,4.35,6.2,2.59,7.05-1.4.67-4-1.3-4.88-2.08-1.45-1.26-2.66-2.8-4-4.18-.47-.49-1.15-.93-1.38-1.52-.36-1,0-2.63.27-3.57a19,19,0,0,1,1.88-3.71c0-1.17.38-2-1.1-2.39-.64-.15-1,.33-1.4-.33a.22.22,0,0,1-.05-.08.66.66,0,0,1-.06-.2,1.35,1.35,0,0,1,0-.35,6.44,6.44,0,0,1,.17-1.08s0-.07,0-.1c0-.19.07-.39.1-.59l0-.31.06-.61c0-.31,0-.62,0-.94a12.37,12.37,0,0,0-.22-2.5,8.23,8.23,0,0,0-.3-1.21c-.06-.2-.13-.39-.2-.59l-.12-.28a8.67,8.67,0,0,0-.57-1.09,7.26,7.26,0,0,0-1-1.2c-.2-.21-.45-.36-.66-.57a2.37,2.37,0,0,1,.6-.12C9,26.71,6.68,25.51,4.5,26.4c-.62.26-1.85,1.52-1.62,2.26A1.52,1.52,0,0,0,4,29.59c.88.28,1.93.31,2.84.61,1.91.64,3.06,2.88,3.57,4.69.67,2.34,0,4.8-.12,7.17a12.78,12.78,0,0,1-.54,3.58c-.15.44-.4,1-.91,1.14-.67.15-1.32-.6-1.67-1.05A6.94,6.94,0,0,1,6,41.45a7.59,7.59,0,0,0,2,5.94c1.21,1.41,3,1.79,3.78,3.55a16,16,0,0,0,2.78,4.29A14.67,14.67,0,0,0,23.19,60a21.9,21.9,0,0,0,4.41.43A18.18,18.18,0,0,0,30.45,60a24.9,24.9,0,0,1,2.44-.82Z"/><path class="cls-10" d="M43.05,13.74a1.14,1.14,0,0,1,.1.19c-.14.09-.56.18-.64.25a16,16,0,0,1-1.76.83,39.57,39.57,0,0,1-4.1,2.3,16.67,16.67,0,0,0-4.77,3.25c-2,1.86-3.88,3.8-5.76,5.74s-4.52,3.63-5.78,5.93c-.28.52-.33,1.13-.75,1.51-1.9-1.93-1.88-4.92-3.37-7.12-.44-.64-1.63-1.23-1.91-1.86-.39-.89.55-2.07,1.18-2.63.86-.77,2.59-1.11,3.09-2.22.39-.86-.09-2.22-.15-3.11-.22-3,3.14-4.78,5.71-5.35,1.54-.35,3,0,4.49,0a13.62,13.62,0,0,0,4.47-1.13,7.24,7.24,0,0,1,3.47-.3C39.16,10.32,41.76,11.35,43.05,13.74Z"/><path class="cls-11" d="M78.51,34.66c-2.81,1.08-4.86,1.68-7,4-.44.46-.69,1.11-1.46.93-1.45-.33-1.24-3.54-1.52-4.66a42.15,42.15,0,0,0-2.61-7.2c-1.37-3.05-3.95-5.31-6-7.86-.95-1.16-5.34-6.4-2.56-7.62.35-.16.9.08,1.3,0C60.3,11.88,61,10,62.29,9.09A10.37,10.37,0,0,1,66.2,7.62a11.55,11.55,0,0,1,8,1.18c3.11,1.91,0,2.07.12,4.27.09,1.43,1.76,3.11,2.8,4,1.35,1.12,3,2.09,3.58,3.87.77,2.39-1.16,4.66-.78,7.1C80.32,30.73,81.81,33.39,78.51,34.66Z"/><path class="cls-12" d="M80.07,24.25a5.18,5.18,0,0,0-.21-4.4c-.37,2-1.32,4.4-3.45,5.35-1.82.81-2.74-2.19-3.55-3.47-1.06-1.7-.17-3.82.37-5.58.39-1.26.32-2.65.74-3.81.32-.89,1.86-1.92.84-2.85.21,1.73-1.68,2.61-2.28,4.15s-.22,3.86-1.92,4.73c-1.37.7-2.42-1.24-3.51-2-2.27-1.56-4.95-1.55-7.52-2.19a6.56,6.56,0,0,0-2.65,1.26,23.09,23.09,0,0,0,3,4.4c2.08,2.55,4.66,4.81,6,7.86a42.15,42.15,0,0,1,2.61,7.2c.28,1.12.07,4.33,1.52,4.66.77.18,1-.47,1.46-.93a13.28,13.28,0,0,1,5.74-3.5,16.09,16.09,0,0,0,2.17-4.48c.38-1.44-.09-2.51-.09-3.88A8,8,0,0,1,80.07,24.25Z"/><path class="cls-13" d="M43.05,13.74a6.78,6.78,0,0,0-3.9-3.14,19.17,19.17,0,0,1-1.71,1.16,7.61,7.61,0,0,1-1.75.44c-1.09.17-2.61.41-3.56-.32-.31-.24-.53-.67-.19-1a22.73,22.73,0,0,1-4.78.72c1.56,2.36-1,4.84-2.76,6.19a5.82,5.82,0,0,1-2.89,1.23A6.22,6.22,0,0,1,20,19c-.19,0-1.31-.38-1.29-.64,0,.44.22,1,.1,1.42a2.27,2.27,0,0,1-1.18,1.1,13.68,13.68,0,0,0,2.24.83c.63.22,1.33.6,1.13,1.39a3.6,3.6,0,0,1-1.19,1.66,3.31,3.31,0,0,1-3,.28,6.92,6.92,0,0,1-1.38-.57c-.2-.12-1.1-.88-.93-1.19a1.72,1.72,0,0,0-.24,1.5c.28.63,1.47,1.22,1.91,1.86,1.49,2.2,1.47,5.19,3.37,7.12.42-.38.47-1,.75-1.51,1.26-2.3,4-4.06,5.78-5.93s3.8-3.88,5.76-5.74a16.67,16.67,0,0,1,4.77-3.25,39.57,39.57,0,0,0,4.1-2.3,16,16,0,0,0,1.76-.83c.08-.07.5-.16.64-.25A1.14,1.14,0,0,0,43.05,13.74Z"/><path class="cls-14" d="M40.08,60.91l-1.43-.43a27.3,27.3,0,0,1-8.75-4c-3.47-2.58-6.28-7.26-7.81-11.25a44.59,44.59,0,0,1-2.15-7.67A23,23,0,0,1,21,25a17.33,17.33,0,0,1,3.56-5.56c1.77-1.85,4.71-3,6.53-.61a4.87,4.87,0,0,1,1.05-1.67,25.73,25.73,0,0,1,3.44-2.81c4.38-3.12,12.26-5.25,17.28-2.4A2,2,0,0,1,55,10.3c-.15,2.08,3.56,3.66,5.1,4.09a18,18,0,0,1,5.35,2.5c2.37,1.54,2.76,4.2,4.6,6.08.55-.71,1.27-1.52,2.27-1.06-.06,1.57,1,3.11,1.6,4.53a20.37,20.37,0,0,1,1.53,10.35c-.54,4.45-1.06,9.71-3,13.8-2.08,4.33-6.29,7.33-10.6,9.17a35.21,35.21,0,0,1-14.41,2.66A29.92,29.92,0,0,1,40.08,60.91Z"/><path class="cls-15" d="M30.74,24c.36.84,2,5.58-.55,5-.78-.18-1.5-1.11-1.94-1.72a20.58,20.58,0,0,1-1.49-2.68c-.24-.49-1.37-1.86-1.36-2.33,0,.62.21,1.22.25,1.83a5,5,0,0,0,.13,1.49,18.16,18.16,0,0,1,1.39,2.87,11.2,11.2,0,0,1,.29,3.36,1.73,1.73,0,0,1-.38,1c-.28.35-.62.37-1,.59-.06,0-.14,0-.2,0s-.23.65-.3.83a17,17,0,0,0-1.39,4.43c0,.45-.08.48.33.57a5.24,5.24,0,0,0,1.37.08c.11-1.59.4-3.66,1.51-4.9A7.92,7.92,0,0,0,28.3,36,8.11,8.11,0,0,0,30,37.48a8.46,8.46,0,0,0,5.4,1.09c1.53-.14,2.35-.09,2.61,1.55.23,1.38.33,2.47,1.73,3.12A5.59,5.59,0,0,1,42.25,45a7,7,0,0,1,1.28,3.82c.13,1.33-1.14,6.1.52,6.73a7.62,7.62,0,0,1,.27-4.81c.34-.89.69-1.78,1-2.68,1.19-3.51-.57-6.74-2.23-9.73-.38-.7-1.36-2-1.19-2.86.43-2.21,3.85-3,5.73-3.27.38-.06,3.68-.34,3.51.54,0,.24-1.16.51-1.39.59.76.2,1.69,0,2.49.17a14.72,14.72,0,0,1,3.81,1c1.21.55,2.07,1.63,3.27,2.19a7.27,7.27,0,0,0,4,.7,13.6,13.6,0,0,0,4.16-2.06,9.4,9.4,0,0,1-3.82,1.46,8.5,8.5,0,0,1-3.93-1.25c-1.83-1-3.63-2-5.45-3a11.41,11.41,0,0,0-10.87.57c-1.78,1.09-2.28,3.81-4.78,2.59C37,35,35,34.57,33.85,33.07a5.38,5.38,0,0,1-.52-4.78,4.59,4.59,0,0,1,1.43-1.8c.69-.62,1.1-1.39,2.09-1.59.8-.16,1.64-.17,2.46-.26a20.29,20.29,0,0,0,3-.48,8.85,8.85,0,0,1,1.94-.47,8.41,8.41,0,0,0-1.84.3c-1,.13-1.92.2-2.88.26-.79.05-3,.29-2.29-1a4.22,4.22,0,0,1,2.65-2.34,41.94,41.94,0,0,1,4.85-.69c-1-.21-2.09,0-3-.26a5.17,5.17,0,0,1,1-1.19c1.31-1.3,3.25-1.84,5-2.42-1,.47-2.19.56-3.21,1A13.77,13.77,0,0,0,41.77,19c-1,.78-2.07,1.42-3.08,2.19A30.61,30.61,0,0,0,36,23.71c-.66.63-1.32,1.28-2,1.9A8.15,8.15,0,0,1,32.54,27,5.28,5.28,0,0,0,32,25.07a6.91,6.91,0,0,1-.91-2.37,9.72,9.72,0,0,1,.35-4.57c-.44,0-.52,0-.81-.37h0a6.78,6.78,0,0,1-.08,3A4.15,4.15,0,0,0,30.74,24Z"/><path class="cls-16" d="M28.82,40.94a11.38,11.38,0,0,1,3.47,5.14c.16.56.94,4.5-.16,4.72l-.33.07c-.37-.59-.12-1.85-.28-2.34a6.38,6.38,0,0,1-.83,2.19c-3.07-1.92-1.53-5.38-1.92-8.25-.4,1.45-.17,3.05-.93,4.37-.8-.38-1.62-3.06-1.55-3.87a11,11,0,0,0,.76,4.71A6.91,6.91,0,0,1,25,47.12c1.31.7,5.69,4.93,5.06,6.64-.26.7-2.07.65-2.24-.11a6.25,6.25,0,0,0,2,2.53c.56.53,1.08,1.22,1.69,1.69,1.67,1.29,5,2.05,7.08,2.21a7.24,7.24,0,0,1-1.11-2.6A24.32,24.32,0,0,1,38.29,50c.33-1.56,2.23-7.38,4.27-3.93,1,1.65.7,4.34.44,6.16a13.12,13.12,0,0,1-3.16,6.32c.95-.48,2.36-2.48,3.46-1.48.77.7.36,2.28.53,3.15a2.57,2.57,0,0,0,2.31,2.08c2.81.58,6.54-.17,9.22-1l6.32-2c2.07-.66,4.91-1.46,6.32-3.3,1-1.31,1.07-3.18,1.59-4.7.78-2.23,1.7-4.55,3.55-6.09-3.22,1.14-4.13,4-5.72,6.69a9.68,9.68,0,0,1-6.58,4.35c-.77.16-6.22,1.06-6.52,0-.2-.75,3.51-4,4.08-4.65a10.09,10.09,0,0,1,5.34-2.59,11.28,11.28,0,0,0-2.38.22,12.38,12.38,0,0,0-3.57,2.46c-1.12,1-2.27,2.51-3.66,3.11s-.44-.59-.11-1.44c-1.48,1.82-3.8,6.41-6.76,5.9a9.66,9.66,0,0,1,1-2.66c-.39.45-1.3,1.84-1.88,1.93-1.55.24-2-3.45-1.92-4.42a25.39,25.39,0,0,1,1.35-5.43,12.93,12.93,0,0,0,.24-5.67,16.73,16.73,0,0,0-1.86-4.46c-.71-1.49-1.23-2.51.2-3.55,2.55-1.84,6.55-2,9.38-.88,3.53,1.39,6.36,4.25,10.51,3.28,2.23-.52,4.79-2.85,7.16-2.52,1.49.2,2.37,2,2.77,3.19a7.8,7.8,0,0,0,1.12-5.41,15.28,15.28,0,0,0-.7-3.15C74.51,29,73.4,27,73.53,26.7A9.4,9.4,0,0,1,70.07,31a22.8,22.8,0,0,1-5.95,2.9,6.53,6.53,0,0,1-4.21,0c-4.2-1.46-13.18-5.09-16.93-.74a20,20,0,0,0-2.27,3.57c-1,1.79-3.8-.26-5.41-.36-1.42-.09-2.76.22-3.87-.94a6.17,6.17,0,0,1-1.1-2.62,35.24,35.24,0,0,0-2.17-5.2c-.82-1.63-2.14-2.88-2.69-4.69-.4-1.34-.36-3.8,1.17-4.55a9.9,9.9,0,0,0-4.46,4.78c.4-1,1.78-.22,2.17.26a4.68,4.68,0,0,1,.83,2.41c.14,1.29-.42,6.65-2.37,6.48-1.16-.11-.79-2.93-.6-3.69-.22.7-.34,5-1.51,2.82-.56-1,0-3.19.25-4.24a20.91,20.91,0,0,0-.43,15.44c1.28,3.42,3,7.39,5.72,9.91-.93-.87-1.53-2.9-2-4.06-.92-2.34-2.38-9.71,2.57-8.51A5.23,5.23,0,0,1,28.82,40.94Z"/><path class="cls-17" d="M66,47.44a4.51,4.51,0,0,1-2.71,1c-2.07.13.23-2,.51-2.55a10.42,10.42,0,0,0,.82-4.34c-1.18,2.07-1.78,4.47-4,5.7-.18.1-2.44.95-2.44.75a5,5,0,0,1-.7,2.69c-.27.43-1.52,2.17-2.16,1.83-.8-.42.44-2.51.71-2.94a7.11,7.11,0,0,1,1.73-1.73c-1.72-.12-4.47-.23-6,.41a3,3,0,0,1,2,1.44c.9,1.39-.43,3.66-1.28,4.76a14.74,14.74,0,0,1-4.11,3.64,14.72,14.72,0,0,0,1.19-4,19.89,19.89,0,0,0,.35-4.92,15.93,15.93,0,0,1-3,8.63c-.14-2.56-.85-5.07.17-7.56a11.67,11.67,0,0,1,3.12-4.45c1.14-.76,1.91,1.07,2.88-.7.59-1.07.62-3.28,2.22-3.55.73-.13.93.54,1.58.84.93-.9,1.12-1.78,2.54-1.47a4.39,4.39,0,0,1,2.37,1.65,13.39,13.39,0,0,0,1.56-2c1.67-2,5.95-5.14,8.7-4.53.32.07,2.22,1.44,1.52,1.84.64-.37,1-2.42,1.12-3.14.56-3.43.07-7.35-2.38-10a5.6,5.6,0,0,1-5.49,2.6A5,5,0,0,1,64.39,26c-.13-.1-2.31-2.26-1.86-2.23a.27.27,0,0,0-.19.06c1-1.69,3-4.83,1.44-6.68a4.25,4.25,0,0,1-2.08,3.28,9.46,9.46,0,0,0,1.19-4.13c-1,1.22-2.79.05-3.47-.92-1.27-1.77-2.55-3.52-5.06-3.75-.4.92.14,1.79.18,2.73a6.21,6.21,0,0,1-.88,3.19c-.43.82-1.84,1.83-1.93,2.73s.79,1.82.81,2.75c0,2.13-1.43,4.61-3,6s-3.8,1.64-5.5,2.85S41.63,35,40.71,36.66c-.64,1.13-2,.67-3,.35a19,19,0,0,0-2.42-.6c-.44-.07-.88-.13-1.37-.18-2.9-.33-2.12-4.9-1.4-6.91.87-2.42,2.63-4.55,5.31-4.85a59.65,59.65,0,0,0,6.94-.78c-1.18,0-7,.63-7.11-.52-.36-2.78,7-3.1,8.54-2.77-1.29-.28-2.61-.51-3.88-.85.16,0,1.32-1.33,1.56-1.5a15.66,15.66,0,0,1,2.25-1.11,23,23,0,0,1,3.57-1.35,23.42,23.42,0,0,0-7,2.2,10.93,10.93,0,0,1,2.07-4.66,9.34,9.34,0,0,0-2.49,3.59c-.33.89-.32,1.54-1,2.15-.85.73-2.14,1.21-3.06,1.91A6,6,0,0,1,36,22.13c-.9-2.13,1-4.94,2-6.67-2.14,1.93-2.6,4.29-3.16,7a8.37,8.37,0,0,1-4.13,4.82c-2.11.84-4.8-2.66-5.32-4.38-.4-1.34-.36-3.8,1.17-4.55a9.9,9.9,0,0,0-4.46,4.78c1.95-1.83,3.16,1.92,3.43,3.28.38,1.87,1.15,9.21-1.77,9.63-1.05.15-2.09-1-2.91-1.44a7.35,7.35,0,0,1,.8,2c.08,1-.39,2.12-.41,3.15a14,14,0,0,0,2.24,8.45c-.88-2.13-1.79-4.6-1.16-7,.51-1.94,2.6-2.67,4.41-2.67a11.84,11.84,0,0,1,3.37.75c1.69.49,6.78-.37,6.36,2.75-.12.95-.61,1.45-.42,2.47s1.12,2.08,1.23,3.21a5.9,5.9,0,0,1-.87,2.87c-.55,1.27-.89,2.66-1.51,3.89s-2.28,2.73-3.65,1.92a13.78,13.78,0,0,0,7.26,3.7,7.24,7.24,0,0,1-1.11-2.6A24.32,24.32,0,0,1,38.29,50c.21-1,1.7-5.62,3.48-3.92.94.9.72,3,.6,4.11a20.44,20.44,0,0,1-1.17,4.88c-.39,1.07-1.1,2.15-1.38,3.24.82-.46,3-3.08,3.64-.84.38,1.3-1.29,2.4-1.6,3.53,2.28.5,4.16,1.51,6.57,1.5a23.44,23.44,0,0,0,6.93-1.23l6.32-2c2-.63,4.81-1.22,5.84-3.26a16.22,16.22,0,0,0,.7-2,19.39,19.39,0,0,1,4.22-7,1.93,1.93,0,0,0,.65-1.11c.23-1-.28-2-.19-3.05A6.83,6.83,0,0,1,74,39.52c-.78.7-1.75,1.1-1.89,2.13-.19,1.36.32,2.48-.7,3.67-.8.92-2,1.22-2.75,2.27-.92,1.33-1.42,2.91-2.58,4.08A7.91,7.91,0,0,1,62.4,53.8a24.84,24.84,0,0,1-6.23.63c1.72-1.9,3.11-4.33,5.73-4.93C63.3,49.18,65.08,48.61,66,47.44Zm-18.17-5.6a20.67,20.67,0,0,1-1.44-2.34A3,3,0,0,1,46,36.84c1.2-2.34,5.47-.23,7.12.32,1.07.37.81-.51,1.76-.7,1.42-.28,2,2.7,1.92,3.67-.88.18-1.67-.8-2.3-.68-1.22.23-1,3.67-2.23,4.35C50.37,44.81,48.86,43.3,47.82,41.84Z"/><path class="cls-18" d="M56.89,16.29c-.37-.71-1-1.29-1.39-2a6.46,6.46,0,0,0-1.89-1.83,2.15,2.15,0,0,1-.84-.77c.08.79.91,1.38,1.31,2a6.89,6.89,0,0,1,1,4.62c-.14.83-.88,1.72-.8,2.59.1,1,1,1.85,1.28,2.84a7.5,7.5,0,0,1,.24,3c-.35,2-2.66,2.32-4.36,2.42a9.7,9.7,0,0,0-3.64.69c-.4.18-2.63,1.39-2.09-.12a6.38,6.38,0,0,0-1.57,2.66c.11-.32,1.73-1,2.1-1.12a8.09,8.09,0,0,1,3.05-.43,26,26,0,0,1,7.83,1.46,9.7,9.7,0,0,0,4.26.72c1.3-.23,2.32-.7,3.66-.84,3.14-.33,4.31-2.39,5-5.2.39-1.7,0-4,1.93-5-1.23-.38-1.88.93-2,1.81-.21,2.37-.68,6.27-3.84,6.37.09-.66.53-1.26.22-2A5.07,5.07,0,0,1,63.84,31c-.68.33-2.28.8-2.39-.39s2.2-1.64.48-2.69c-.7,1.74-1.1,3.12-3.24,3.45-1.14.17-4.33-.13-4.91-1.39a11.83,11.83,0,0,1,1.83-.71c2.47-1.06,2.94-3.39,2-5.8S58.09,18.57,56.89,16.29Z"/><path class="cls-19" d="M49.69,15.59l1.51-.31A12.62,12.62,0,0,0,49.69,15.59Z"/><path class="cls-20" d="M66.23,47.59l.56-.29Z"/><path class="cls-21" d="M31.07,16.91c-1-1.83-3.18-1.54-4.79-.79-1.26.59-3.63,2.16-3,3.82.13.38.44.44.77.67A2.47,2.47,0,0,1,24.87,22c.33.88.62,1.79,1,2.65a6.35,6.35,0,0,0,1,1.77,8.69,8.69,0,0,1,1.49,1.76c.89,1.7.34,3.37.56,5.18s2,4.52,4.08,3.8a5.08,5.08,0,0,1,4.56.71c1,1,1.32,2.28,2,3.44s2,1.47,3,2.45A6.55,6.55,0,0,1,44,49.61c1.89-2,.71-5.19-.36-7.33-1.21-2.44-2.17-4.75-4.86-5.82a13.25,13.25,0,0,0-2.33-.77c-1.12-.21-1.81,0-2.76-.79-1.78-1.56-1.47-4.63-1.87-6.76-.24-1.24-.85-2.34-1.09-3.57-.37-1.86-.64-4,.34-5.72A1.74,1.74,0,0,0,31.07,16.91Z"/><path class="cls-22" d="M58.57,23.49c.21,1.42.5,3.79-.76,4.86A10.59,10.59,0,0,1,53.67,30c.59-.63,1.58-.55,2.24-1.08a5.57,5.57,0,0,0,1.53-2.17c.62-1.57.17-2.46-.42-3.92-.7-1.71-.08-3.25-.26-5a5.62,5.62,0,0,0-1.14-2.58,12.42,12.42,0,0,0-1.81-2.39c-.14-.13-1.33-.9-1.24-1.12a3.6,3.6,0,0,1,2.54-1.88,5.13,5.13,0,0,1,2.73.78c-.57-.24-.94.35-.87.85.18,1.17,1.41,2.13,2,3.06s1.59,2.53.94,3.63a6.35,6.35,0,0,1-.81.91,4,4,0,0,0-.94,2.17A10.06,10.06,0,0,0,58.57,23.49Z"/><path class="cls-23" d="M89.62,43.42a6,6,0,0,1-1.46,2.95,5.72,5.72,0,0,1-3.93,1.55,9.84,9.84,0,0,0-3.63.86c-2.52,1.06-4.9,2.51-5.77,5.26s-1.43,5.18-4.07,6.74c-4.07,2.4-9.18,2.67-13.62,4-3,.92-6,1.91-9.16,1.19A13.08,13.08,0,0,1,41,61.68c.2,1.39,1.93,3.15,3,3.9a14.85,14.85,0,0,0,8.38,2.58c2.81.09,5.31-1.22,8.12-1.36a70.24,70.24,0,0,1,8.82.26c4,.32,5.54-2.45,6.37-5.84a11.26,11.26,0,0,1,5-6.91c2.63-1.63,6-1.67,8.46-3.51A8.42,8.42,0,0,0,92,41.05a18.46,18.46,0,0,1-1.34-4.11c-.66-5.59,6.42-8.85,4.62-14.57A2.69,2.69,0,0,0,94,20.66c-1.28-.85-3.47-.79-4.91-.54,1.81-.27,4,1.78,3.68,3.6-.33,2.15-2,4.2-2.8,6.21a13.63,13.63,0,0,0-.6,8.18A14.9,14.9,0,0,1,89.62,43.42Z"/><path class="cls-24" d="M47.05,66l.14.06a22.9,22.9,0,0,0,4.23.8,15.85,15.85,0,0,0,1.67-.13,102.53,102.53,0,0,0,10.57-2.15,6,6,0,0,1,3.68.1,5.63,5.63,0,0,0,5.54-1.92,8.17,8.17,0,0,0,1.56-2.38c.63-1.74.53-3.42,1.39-5.14A9.2,9.2,0,0,1,79,51.41a3.18,3.18,0,0,1,2.41-.36c2.63.36,4.31.34,6.35-1.35s4-4.05,3.73-7.1a21.78,21.78,0,0,0-1-4.27,7.41,7.41,0,0,1,.57-6.5c1.32-2.36,4-4.55,4.79-7.13.64-2.2-.86-3.95-2.94-4.55a10.6,10.6,0,0,0-4.72-.1A15.58,15.58,0,0,0,82,23.21a31.74,31.74,0,0,0-3.81,3.88,35.72,35.72,0,0,0-3,4,7.76,7.76,0,0,0,.24,1.46c.06.59.1,1.21.1,1.81a5.87,5.87,0,0,1-.86,3.1,19,19,0,0,0-1.89,3.19c-.62,1.67.37,3.6-.2,5.17A7.14,7.14,0,0,1,71,47.69a15.08,15.08,0,0,0-2.82,4.84c-.36.86-.59,2.44-1.14,3.15a.75.75,0,0,1-.12.14A12.23,12.23,0,0,1,63.53,58a33.72,33.72,0,0,1-5.22,1.47c-3.27.88-6.24,2.86-9.75,2.52-1.34-.14-2.63-.56-4-.8a21.3,21.3,0,0,0-3.91,0A6.64,6.64,0,0,0,43.33,64,29.46,29.46,0,0,0,47.05,66Z"/><path class="cls-25" d="M89,39.37c.68,1.15,1,3.17-.48,3.93-1.12.56-2.76.38-4,.46s-4.3.49-5.33-.39c-.53-.45-.46-.75.32-1a9.24,9.24,0,0,1-3.08-.77c-4.83-3.28,11.14-10.9,12.85-11.77.42-.22,4.36-2.12,3.29-.05.29-.57,1.12-1.1,1.5-1.68.88-1.36,2-3.63,1.42-5.29-.22,1.33-1.84,2.1-2.92,2.61a43.23,43.23,0,0,1-4.37,1.88c-.86.3-2.5,1.06-3.42.69-.09-.54.64-1.06.94-1.34-1.23.64-2.46,1.34-3.74,1.86-.76.31-1.9.87-2.73.54-1.63-.65.21-3.28,1-4a11.28,11.28,0,0,0-2.63,2.62,19.67,19.67,0,0,0-1.46,1.94c-.3.48-1,1.27-1.1,1.81-.12,1,.31,2,.25,3.06a8.13,8.13,0,0,1-1,3.44,24.34,24.34,0,0,0-1.66,2.94c-.62,1.68.37,3.6-.2,5.17a6.7,6.7,0,0,1-1.6,1.85,15.38,15.38,0,0,0-2.82,4.84c-.36.87-.58,2.45-1.13,3.16L66.8,56a12.62,12.62,0,0,1-3.36,2.17,33.72,33.72,0,0,1-5.22,1.47c-3.27.87-6.24,2.85-9.75,2.51a29.8,29.8,0,0,1-3.74-.86,9.47,9.47,0,0,0-2-.29c-.15,0-1.58.29-1.59.28.92,2.12,3.62,3.49,5.6,4.39a11.13,11.13,0,0,0,4.36,1c.26,0,3.71-.23,3.71-.48,0-3.27,3.9-5.26,6.74-5.5,2.22-.18,3.47.79,4.69,2.41-.54-.72-4,1.29-4.45,1.66,1.35-1.18,4.49-.26,6-.13a5.84,5.84,0,0,0,4.52-1.35c1.38-1.17,2.74-3.92,2.39-5.53.15.71-1.22,1.42-1.73,1.51a2.75,2.75,0,0,1-2.19-.68c-2.25-1.82-2.33-4.51.77-5.18-.41-.31-1.07-.62-1.18-1.14-.37-1.81,2.86-4.7,4.34-5.29a15.93,15.93,0,0,1,7.51-.72l.94.11c1.07.14,3.39.56,3.39,2,0,1.13-1.54,1.8-2.36,2.31,4.31.05,7.24-5.1,6.42-8.95-.5-2.3-1.77-4.61-1.24-7a12.85,12.85,0,0,1,2.26-4.2c-1.53,1.63-3.47,2.78-4.12,5.14C87,37.23,88.23,38.08,89,39.37Z"/><path class="cls-26" d="M78.14,45.5h-.81c-.77,0-2.11.39-2.85.07-1.65-.71-.9-3.08-.8-4.41.17-2,1.32-3.11,2.92-4.37a23.86,23.86,0,0,1,3.6-2.38,13.88,13.88,0,0,0,3-1.7c-.81.35-1.71.72-2.58,1s-2.55,1.16-3.57,1.07c-1.93-.16-1.34-3.92-1-5.1-.34.45-.66.92-1,1.4a7.76,7.76,0,0,0,.24,1.46c.06.59.1,1.21.1,1.81a5.87,5.87,0,0,1-.86,3.1,19,19,0,0,0-1.89,3.19c-.62,1.67.37,3.6-.2,5.17A7.14,7.14,0,0,1,71,47.69a15.08,15.08,0,0,0-2.82,4.84c-.36.86-.59,2.44-1.14,3.15a.75.75,0,0,1-.12.14A12.23,12.23,0,0,1,63.53,58a33.72,33.72,0,0,1-5.22,1.47c-3.27.88-6.24,2.86-9.75,2.52-1.54-.15-5.7-2-6.9-.69,1.17.47,2.52.22,3.72.65a36.6,36.6,0,0,0,5.28,1.92c2.15.41,2.76-2,4.56-3a17.73,17.73,0,0,1,4.19-1.49c1.64-.44,3.49-1.27,5.21-1.27,2.71,0,4.06,1.72,5.15,4a2.39,2.39,0,0,1,0,2.36,6.09,6.09,0,0,0,3.79-3c-1.13,1.63-3.41-1.49-4-2.22a10,10,0,0,1-1.55-2.07c-.42-1.21.47-3,.88-4.07a13.83,13.83,0,0,1,3.51-5.55c2.15-2,6.24-1.47,9-1.41a21.11,21.11,0,0,1,4.35.34c.8.18,1.58.43,1.63,1.34a2.64,2.64,0,0,1-.83,1.93c1.77-1.22,4.24-4.47,3.84-6.7A3.94,3.94,0,0,1,87,45.89c-2.14.26-4.25-.26-6.37-.34C79.81,45.52,79,45.5,78.14,45.5Z"/><path class="cls-27" d="M19.85,33.74a2.86,2.86,0,0,1-.28-1.4c-2.45-.48-3.35-2.84-4.86-4.52a10.37,10.37,0,0,0-3.51-2.44c-1.39-.63-2.8-1.3-4.38-1A5.59,5.59,0,0,0,5.19,25c-1.13.65-4.46,3.81-1.31,3.91,1.15,0,2.27-.44,3.42-.22a4.84,4.84,0,0,1,2.91,2.19,11.23,11.23,0,0,1,2,6.14c0,.9-.38,2-.15,2.84.32,1.17.77.74,1.65.95,1.55.36,1.08,1.31,1.1,2.57,0,2.82,1.66,4.61,3.73,6.34A26.6,26.6,0,0,1,24,55c2.18,3.14,6.88,5.89,10.48,3.28-.93.67-4.46-2-5.09-2.5A16.21,16.21,0,0,1,25,50.72a51.75,51.75,0,0,1-2.18-5.08,13.31,13.31,0,0,1-1.3-4.78c0-1.6.37-3.21-.27-4.74C20.88,35.23,20.22,34.56,19.85,33.74Z"/><path class="cls-28" d="M52.69,13.57a3.6,3.6,0,0,0-.83-.94c-1.52-1.24-4.24-1.23-6.11-1.18a16.24,16.24,0,0,0-4.24.87,16.53,16.53,0,0,0-7.37,4.58,2.81,2.81,0,0,0-1,2,13.14,13.14,0,0,1,0,1.78c-.07.57-.49,1.44.12,1.88.89.65,1-.94,1.1-1.46.8-3.16,2.66-4.75,5-6.58-1.23,1.07-2.87,4-2.26,5.68,1.23,0,3.4-.7,4.09-1.72,1.19-1.75,1.71-5.05,4-5.83-.71,1.22-2.21,2.78-1.92,4.39,1.58-.61,2.23-1.65,3.49-2.69-1.18,1,1.4.94,1.67.89a8.46,8.46,0,0,1,3.91-.15c-2.36.9-5.19,1.2-7.31,2.63-2.39,1.62.53,1.83,1.87,2.69-1.53,0-6.11.39-5.94,2.61,1.75.11,3.9-.2,5.54.5-2.27,1.15-5,1.14-7.49,1.91-3.06,1-2.11,2.48.68,3.27,3.94,1.12,9,.8,11.09-3.35a4.31,4.31,0,0,0,0-3.63C49.65,18.39,54.93,17.26,52.69,13.57Z"/><path class="cls-29" d="M70.53,37.79a6.28,6.28,0,0,0-2.53.62c-1.27.59-2.55,1.2-2,2.57.42,1,1,2.15,1.36,3.33.22.68.34,2.14,1,2.51,1.34-1.07,3-1.77,3.23-3.71a20,20,0,0,0-.27-2.18,10.64,10.64,0,0,1,.85-2.17A1.69,1.69,0,0,0,70.53,37.79Z"/><path class="cls-30" d="M58,18.61a.74.74,0,0,1,0-.14,5.24,5.24,0,0,0,.3-1.75c-.21-2.14-2.41-3.57-4-4.63-.36-.24-.85-.47-.77-1s.53-.71.87-.85a2.53,2.53,0,0,1,2.53.32c-.23-.24-.38.81-.36.9a3.12,3.12,0,0,0,.49,1.12c.42.68,1,1.25,1.41,1.9.64.93,1.71,2.57.92,3.72-.25.36-.64.64-.93,1a2.55,2.55,0,0,0-.69,2.23C57.24,20.49,57.73,19.55,58,18.61Z"/><path class="cls-31" d="M29.84,22.66c-.5-1.78-.08-3.09.26-4.8.22-1.07,0-1.59-1.15-1.68a5.34,5.34,0,0,0-3.59,1c-.61.46-2.14,1.54-1.39,2.42s2.29.91,2.64,2.09c.21.74-.38,1.43-.25,2.23.33,2.09,3,2.48,3.1,4.33.07,1.66-.12,6.06,2.07,6.49a6.87,6.87,0,0,0-.33-2.91,33.7,33.7,0,0,1-.34-4.71A22.8,22.8,0,0,0,29.84,22.66Z"/><path class="cls-32" d="M90.89,20.23C88.76,20,86.61,21,84.83,22c-.89.55-3.64,2.72-1.17,3.12-.23.29-2.42,1.59-1.85,2.21.39.42,2.29-1,2.65-1.14,2.16-.84,4.61-.75,6.79-1.66s3.32-3.4.34-4.2A5.78,5.78,0,0,0,90.89,20.23Z"/><path class="cls-33" d="M86.45,39a4.12,4.12,0,0,1,0-3.7c.22-.44,1.62-3,2.06-3-1.63.17-11.73,4.16-10.21,6.34.77,1.09,3.34-.22,3.75.68.29.65-.72.68-.45,1.27.35.78,4.67.5,5.16,0S86.78,39.61,86.45,39Z"/><g class="cls-34"><path class="cls-35" d="M16.91,30.73a2.7,2.7,0,0,0-.18-.25Z"/><path class="cls-36" d="M29.34,55.8a17.07,17.07,0,0,1-5.7-7.49,44.4,44.4,0,0,1-2-5.34c-.48-1.87.11-3.74-.22-5.62-.23-1.37-1.08-4.15-2.28-5a9.14,9.14,0,0,1-2.26-1.62,4.78,4.78,0,0,1,.84,2.73,2.29,2.29,0,0,1-1.46-1.09,5.78,5.78,0,0,1-.32-.94,3,3,0,0,0-1.07-1.92,11.91,11.91,0,0,0-2.05-1.42,7.93,7.93,0,0,0,.83.91,8.4,8.4,0,0,1,1.08,1.5c.43.7,1.18,1.74,1,2.62a1.24,1.24,0,0,1-1.74.82A8.46,8.46,0,0,1,12,32c-1.45-1.57-2.7-3.5-5-3.83-.37-.05-2.06.34-2.2-.09-.19-.61,1.46-1.11,1.8-1.18a3.63,3.63,0,0,1,1.23,0c.16,0,.24.1.34,0a4.09,4.09,0,0,0-2.36-.46,5.9,5.9,0,0,0-1.42.35c-.12,0-.42.21-.55.14-.52-.28.94-1.59,1.17-1.76A4.71,4.71,0,0,0,3,27.11a1.82,1.82,0,0,0-.29,1.3c.15.45.8.46,1.21.48,1.15,0,2.27-.44,3.42-.22a4.84,4.84,0,0,1,2.91,2.19,11.23,11.23,0,0,1,2,6.14c0,.9-.38,2-.15,2.84.32,1.17.77.74,1.65.95s1.12.62,1.15,1.17c.41-.77,1.56-.55,2.77,0,.62.56,1.29,1.1,1.87,1.69a11.81,11.81,0,0,1,2.34,3.78c.28.72,1.19,2.73.6,3.47-.88,1.1-3.88-1.6-4.59-2.19a8.47,8.47,0,0,1-3-4.64c.27,2.43,1.79,4.06,3.69,5.65A26.6,26.6,0,0,1,24,55c2.18,3.14,6.88,5.89,10.48,3.28C33.5,59,30,56.3,29.34,55.8ZM14.43,39.92c-.66-.5-.58-1.89-.35-2.6a5.8,5.8,0,0,1,1.2-2,2,2,0,0,1,2.16-.78l.35.11A5,5,0,0,1,20.19,37a6.77,6.77,0,0,1,0,2.87,4.58,4.58,0,0,1-.35,1.89,1,1,0,0,1-.83.31,26.63,26.63,0,0,0-2.64-1.43A10.62,10.62,0,0,1,14.43,39.92Z"/></g><path class="cls-37" d="M47.05,42.26c-.09-.78-3.09-1.5-5.74-1.89h0l-.67-.11-.21,0-.4-.06-.46-.07L38,39.93h0c-.27,0-.51,0-.73,0h-.13a2.53,2.53,0,0,0-.7,0,2,2,0,0,0-.48.2,1.14,1.14,0,0,0-.23.15l0,0a3.42,3.42,0,0,0-.59.61l-.14.22a9.64,9.64,0,0,0-1.13,3.11,2,2,0,0,0,0,.24.13.13,0,0,0,0,.06,2.21,2.21,0,0,0-.05.25.13.13,0,0,0,0,.06c0,.08,0,.16,0,.24a.07.07,0,0,1,0,0c0,.09,0,.17,0,.25v0l-.06.38s0,0,0,0c0,.26-.08.52-.11.76v0q-.08.55-.15,1l-.15.88,0,.23c0,.24-.07.49-.1.74l0,.14c0,.3-.07.6-.11.89v.15c0,.27-.05.53-.07.8a.61.61,0,0,0,0,.14c0,.62-.09,1.24-.11,1.87a.25.25,0,0,0,0,.08c0,.65,0,1.29,0,1.93h0c0,1.09,0,2.17.1,3.26a36.2,36.2,0,0,0,4.23,1.43l.41.13a18.2,18.2,0,0,0,2,.48h.1l.13,0,.1,0h.87l.31,0c1.63.24,3.3,0,4.86.17C44.51,61,47.17,43.17,47.05,42.26Zm-5.31-1.81h0Zm.22,0h0Zm.21,0,.08,0Zm.21,0,.08,0Zm.21,0,.08,0Zm.2,0,.09,0Zm.2.05.09,0Zm.2,0,.09,0Zm.2.05.09,0Zm.38.1.08,0ZM44,41,44,41Zm.18,0,.08,0Zm.17.05.08,0Zm.17.06.07,0Zm.16.05.07,0Zm.15,0,.07,0Zm.15.06.06,0Zm.14.06.06,0Zm.13,0,0,0Zm.12.06,0,0Zm.11.06,0,0Zm.11.06,0,0Zm.09.06,0,0Zm.09.06,0,0Zm.08.06,0,0ZM46,42v0Zm0-.06v0Zm0-.07,0,0ZM44.31,59.48v.12h0Zm0,.69v0h0v0Zm0-.26v0h0v0Zm0-.13v0h0v0Zm0,1.13h0Zm-.3,0h0Zm-.3,0h0Zm.85,0Zm0,0h0Zm-.12-.25h0Zm0-.28ZM46,42.18v0h0Zm0,0h0s0,0,0,0h0S46,42.11,46,42.13Zm-.13-.29,0,0Zm-2.22-1-.09,0Zm-2.09-.46h0Z"/><path class="cls-4" d="M45.12,42c.11.92-2.55,18.74-1.44,18.85-1.56-.15-3.22.07-4.86-.17a30.94,30.94,0,0,1-7.08-2,48,48,0,0,1,.55-11.1c.35-1.94.73-7,3.18-7.71C36.51,39.52,45,40.65,45.12,42Z"/><path class="cls-38" d="M43.36,43.19c.2.57-.7,4.52-.84,5.81-.22,2-.41,4.07-.56,6.11,0,.48-.62,5.62.07,5.7-1.18-.14-2.44.06-3.67-.15A20.43,20.43,0,0,1,33,58.82a51,51,0,0,1,.41-10c.32-2.09.64-7,2.84-7.38C36.78,41.33,43,42,43.36,43.19Z"/><path class="cls-39" d="M41.94,60.77h-.82a9.08,9.08,0,0,1,.91.05A.18.18,0,0,1,41.94,60.77Z"/><path class="cls-39" d="M38.89,60.66a20.36,20.36,0,0,1-5.34-1.84,51,51,0,0,1,.41-10c.31-2.08.63-7,2.79-7.37a2.82,2.82,0,0,0-.49,0c-2.2.35-2.52,5.29-2.84,7.38a51,51,0,0,0-.41,10,20.43,20.43,0,0,0,5.35,1.84,10.55,10.55,0,0,0,1.86.1A8.6,8.6,0,0,1,38.89,60.66Z"/><path class="cls-40" d="M43.36,43.4c.18.57-.63,4.47-.75,5.75-.19,2-.37,4-.51,6,0,.47-.55,5.55.07,5.63-1.06-.14-2.18.06-3.3-.15a17.63,17.63,0,0,1-4.79-1.81,55.61,55.61,0,0,1,.37-9.91C34.73,46.87,35,42,37,41.65,37.46,41.57,43,42.26,43.36,43.4Z"/><path class="cls-41" d="M43.36,43.4c.18.57-.63,4.47-.75,5.75-.19,2-.37,4-.51,6,0,.47-.55,5.55.07,5.63-.61-.08-1.22,0-1.83-.05s-.66-.32-.73-.95a21.44,21.44,0,0,1,.13-3.1,13.4,13.4,0,0,0-.35,2.53c0,.42.11,1.26-.4,1.42s-1.54-.36-2-.51c-.63-.23-.72-.4-.82-1.07a8.6,8.6,0,0,1,0-1.83,8.88,8.88,0,0,1,0-1.72c-.48,1.36,0,2.89-.43,4.19a7.43,7.43,0,0,1-1.74-.87,55.61,55.61,0,0,1,.37-9.91C34.73,46.87,35,42,37,41.65a2,2,0,0,1,1.08.09c.31.28-.06,1.08-.14,1.39A66.62,66.62,0,0,0,36.72,50a23.43,23.43,0,0,0-.41,3.53,32.55,32.55,0,0,0,.9-5.22c.1-.72.22-1.43.37-2.13A21.24,21.24,0,0,1,38.29,43a1.45,1.45,0,0,1,1.92-1c.48.09.84.1.94.63a5,5,0,0,1-.2,1.42c-.21,1.44-.39,2.87-.58,4.31a66.16,66.16,0,0,0-.59,7,12.18,12.18,0,0,0,.44-3.16c.16-1.39.3-2.78.52-4.16s.16-2.76.4-4.13c.11-.58.14-1.44.81-1.47A1.59,1.59,0,0,1,43.36,43.4Z"/><path class="cls-42" d="M34.52,50a4,4,0,0,1,.69.22.57.57,0,0,1,.19.59.64.64,0,0,1-.22.45h-.8Z"/><path class="cls-43" d="M34.08,56.55c.06-1.18,0-2.37.08-3.55A28.47,28.47,0,0,1,35,47.27c.24-.86.83-2.85,2-2.85s.35,2.91.18,3.52a4.76,4.76,0,0,0-.19,2.5,31.42,31.42,0,0,1,.53-3.72,3.9,3.9,0,0,1,1.11-2.57,2.11,2.11,0,0,1,1.49-.5c.53.14.45.7.47,1.16a16.74,16.74,0,0,1-.38,4.74,6.41,6.41,0,0,0-.28,2.34,4.85,4.85,0,0,0,.19,1.16,44.2,44.2,0,0,0,.58-4.88,13.84,13.84,0,0,1,.25-2.23c.11-.57.23-1.71.74-2,.69-.46,1.3.4,1.62.93a5.17,5.17,0,0,0,.08-1.42c-.36-1.14-5.9-1.83-6.37-1.75-2,.34-2.26,5.22-2.54,7.29A53.47,53.47,0,0,0,34,57.71C34,57.32,34.06,56.94,34.08,56.55Z"/><path class="cls-44" d="M35,50.45a1.14,1.14,0,1,1-1.14-1.14A1.14,1.14,0,0,1,35,50.45Z"/><path class="cls-45" d="M34.58,49.61a1,1,0,0,1-.11,1.09,1,1,0,0,1-1.76-.5,1,1,0,0,0,0,.25,1.14,1.14,0,0,0,2.28,0A1.13,1.13,0,0,0,34.58,49.61Z"/><path class="cls-46" d="M33.4,49.48c-.3.18-.69.59-.38.79a.91.91,0,0,0,1-.16c.34-.35,0-.78-.4-.7Z"/><path class="cls-45" d="M34.84,50a1.18,1.18,0,0,1-.57,1.27,1.21,1.21,0,0,1-1.58-.65A1.14,1.14,0,0,0,35,50.45,1,1,0,0,0,34.84,50Z"/><path class="cls-47" d="M32.29,47.83c.35-1.95.73-7,3.18-7.72,1-.28,9.39.84,9.64,2.14,0-.14,0-.24,0-.29-.16-1.31-8.61-2.44-9.65-2.16-2.45.66-2.83,5.77-3.18,7.71a44.88,44.88,0,0,0-.65,7.85A45.21,45.21,0,0,1,32.29,47.83Z"/><path class="cls-47" d="M43.41,59.49a7.22,7.22,0,0,0,.08,1.31h.19C43.5,60.79,43.42,60.3,43.41,59.49Z"/><path class="cls-39" d="M46.16,42.13c-.1-.77-3.1-1.49-5.74-1.88,2.33.41,4.62,1,4.7,1.71.11.92-2.55,18.74-1.44,18.85-1.52-.15-3.13.06-4.73-.15l.91.15c1.64.24,3.3,0,4.86.17C43.61,60.87,46.27,43.05,46.16,42.13Z"/><path class="cls-48" d="M38.1,48a29.8,29.8,0,0,0-.94,3.75,13.46,13.46,0,0,0-.23,1.91l-.06,1.92c0,.74,0,1.47,0,2.21,0,0,.05,0,.05,0A27.4,27.4,0,0,1,37.19,54c.2-1.27.34-2.55.54-3.82.12-.72.26-1.42.4-2.13C38.14,48,38.1,48,38.1,48Z"/><path class="cls-48" d="M38.52,46.24s-.06,0-.06,0,0,.12,0,.18,0,0,0,0v.1c0,.1,0,.2,0,.3l0,.3c0,.1,0,.2,0,.3a0,0,0,0,0,.07,0,1,1,0,0,0,.07-.3c0-.1,0-.2,0-.3s0-.2,0-.3A1.09,1.09,0,0,0,38.52,46.24Z"/><path class="cls-48" d="M37.93,51.32c.06-.62.11-1.24.2-1.86a0,0,0,1,0,0,0,32.53,32.53,0,0,0-.45,3.27c-.09,1.1-.12,2.2-.1,3.31,0,.3,0,.61,0,.91s.06.63.1.94c0,0,.07,0,.07,0,0-.55,0-1.09,0-1.63s0-1.1,0-1.64C37.77,53.51,37.83,52.41,37.93,51.32Z"/><path class="cls-48" d="M38.8,49.45a33.22,33.22,0,0,0-.54,4c-.15,1.35-.26,2.7-.38,4l-.09,1.11a7,7,0,0,0,0,1.12,0,0,0,0,0,0,0,7.4,7.4,0,0,0,.17-.94c0-.34.09-.68.13-1,.08-.67.17-1.34.25-2,.16-1.33.28-2.65.41-4a22,22,0,0,0,.12-2.29S38.81,49.4,38.8,49.45Z"/><path class="cls-48" d="M39,48.69h0c0,.13,0,.25,0,.38s0,.25,0,.38,0,.55,0,.83c0,.55-.07,1.11-.1,1.67s-.09,1.09-.13,1.64-.07,1.08,0,1.62c0,0,.07,0,.07,0a12.79,12.79,0,0,0,.12-1.64c0-.56,0-1.12.06-1.67s0-1.1.07-1.65c0-.27.06-.54.07-.82s0-.25,0-.38A2.2,2.2,0,0,0,39,48.69Z"/><path class="cls-48" d="M41.1,54.25a22.47,22.47,0,0,0-.45,2.45,6.62,6.62,0,0,0,.06,2.51,0,0,0,0,0,0,0c0-.42,0-.84,0-1.26s.06-.82.11-1.23c.1-.82.22-1.64.28-2.46A0,0,0,0,0,41.1,54.25Z"/><path class="cls-48" d="M42.06,44.2a.05.05,0,0,0-.07-.05h0a.06.06,0,0,0,0,.06s0,.07,0,.11a23.14,23.14,0,0,0-.68,3.49,33.83,33.83,0,0,0-.31,3.76c0,.71,0,1.42,0,2.12,0,0,.05.05.06,0,0-1.25.12-2.49.22-3.74s.26-2.48.46-3.71l.21-1.35V45c0,.28,0,.56,0,.84,0,.54,0,1.08-.09,1.61-.09,1.1-.2,2.19-.38,3.28,0,0,0,0,0,0A33.08,33.08,0,0,0,42,47.48c0-.54.08-1.09.11-1.64q0-.41,0-.81a2.67,2.67,0,0,0,0-.4A3,3,0,0,0,42.06,44.2Z"/><path class="cls-48" d="M36.39,46.33c-.22,1.11-.41,2.23-.56,3.35-.11.87-.22,1.74-.32,2.61l-.09-.92c0-.1-.15-.08-.17,0A17.77,17.77,0,0,0,34.84,54,8,8,0,0,0,35,56.63a0,0,0,0,0,.08,0c.08-.86,0-1.74.07-2.61,0-.43.06-.87.07-1.3a5.69,5.69,0,0,1,.07-.71c0,.36.07.72.1,1.08,0,.11.16.09.17,0,.19-1.11.36-2.24.52-3.36s.29-2.24.38-3.37C36.49,46.27,36.41,46.27,36.39,46.33Z"/><path class="cls-49" d="M16.62,54.68c1.17,2.7,4,4.14,6.73,4.78,2.35.55,7.19,1.63,8.34-1.3a2.45,2.45,0,0,0,1.57.86c.86.13,1.32-.52,2.12-.51s1.54.84,2.16,1.27a4.57,4.57,0,0,0,3.73.86,4.77,4.77,0,0,1,2-.29,2.09,2.09,0,0,1,.81.23s.51.4.46.42a15.47,15.47,0,0,0-1.65.5A9.66,9.66,0,0,0,39.73,64c-1,1.21-1.83,2.57-2.81,3.81a5.73,5.73,0,0,1-2.85,1.72,6.29,6.29,0,0,1-4.54,0c-.75-.29-1.5-.64-2.26-.85-1-.26-2-.21-2.94-.48a12.69,12.69,0,0,1-4.94-3.45c-1.74-1.82-3.69-3.85-4.27-6.33C14.73,56.75,14.83,54.64,16.62,54.68Z"/><g class="cls-50"><path class="cls-51" d="M22.49,61.78c2,1.31,6.2.46,8.36-.25a16.16,16.16,0,0,0,4.36-2.8,13.49,13.49,0,0,0-1.66.36,18.13,18.13,0,0,1-2.22,1.2,15.89,15.89,0,0,1-2.88.69C26.47,61.3,24.46,61.4,22.49,61.78Z"/><path class="cls-52" d="M38.25,61.81A6,6,0,0,1,39.63,61a8.62,8.62,0,0,1-2.1-.87A19.37,19.37,0,0,1,29.71,67c-2.13,1-4.3.47-6.53-.06a3.69,3.69,0,0,0,1.65,1.4c.81.15,1.64.16,2.44.37s1.51.56,2.26.85a7.82,7.82,0,0,0,2.26.52,3.93,3.93,0,0,0,.48-.06c-.12-1.3.45-2,1.34-3C35,65.48,36.45,63.17,38.25,61.81Z"/></g><path class="cls-53" d="M31.33,68.84A8.36,8.36,0,0,1,25,66.69c-1.44-1.52-2-3.56-2.71-5.48-.35-.93-.89-2.64-2-2.91-.87-.22-1.88,1.09-2.57.64s-.3-2.09-.26-2.79c.05-1.08.22-2.38-.41-3.33-1.2-1.82-2.25-.71-3.27.65a6.84,6.84,0,0,0-1.76,4.12,10.85,10.85,0,0,0,2.2,5.48,16.86,16.86,0,0,0,5.17,4.51A16.11,16.11,0,0,0,25,69.67c1.82.37,3.93,0,5.62.83,1.3.65,2.17,1.48,3.36.25a4.84,4.84,0,0,1,2.28-1.17c.19-1.64-3.61-.86-4.41-.78Z"/><path class="cls-54" d="M66.67,44.55c0-.13,0-.26,0-.39h0c.47-4.91-1.55-7.53-3.75-8.85h0l-.16-.1h0l-.16-.08h0a.8.8,0,0,0-.16-.08h0l-.15-.08h0l-.14-.07h0l-.15-.07h0l-.14-.06h0l-.14-.05,0,0-.13-.05h0l-.13,0,0,0-.12,0h0l-.12,0h0l-.11,0,0,0-.11,0-.06,0-.1,0h-.06l-.09,0-.06,0h-.16l-.08,0h-.89l-.57,0c-2.42,0-6.63,1.08-7.78,8.79S53,53.3,53,53.3l.49,0,.06.06,9-.25s3.08-2,4-7.86c0-.24.06-.46.09-.68Z"/><path class="cls-55" d="M33.86,70.33c-1.45-.07-2.78-.74-4.2-1s-8.82.21-8.37-2.77c.17-1.13,1.57-1.19,1.87-1.94s-.57-2-.7-2.73c-.17,1.31-1.46,3.25-2.86,3.51-4,.75-2-8-2.25-9.55-.09.41-1.46,5.87-1.79,5.72-1.42-.6-2.35-2.88-2.51-4.3a6.3,6.3,0,0,1,.87-4l-.1.14a6.84,6.84,0,0,0-1.76,4.12,10.85,10.85,0,0,0,2.2,5.48,16.86,16.86,0,0,0,5.17,4.51A16.11,16.11,0,0,0,25,69.67c1.82.37,3.93,0,5.62.83,1.3.65,2.17,1.48,3.36.25a3.2,3.2,0,0,1,.55-.45A3.39,3.39,0,0,1,33.86,70.33Z"/><path class="cls-56" d="M59,33.35c-2.42,0-6.63,1.08-7.78,8.79s2.26,10.43,2.26,10.43l9-.25s3.09-2,4-7.86C68,35.41,61.47,33.4,59,33.35Zm6.18,10.88c-.78,4.88-3.33,6.48-3.33,6.48l-7.42.21s-2.81-2.24-1.87-8.6S57,35,59,35.07,66.41,36.77,65.22,44.23Z"/><path class="cls-57" d="M55,51s-2.81-2.24-1.86-8.6,4.41-7.29,6.42-7.25S67,36.8,65.76,44.27c-.78,4.88-3.33,6.48-3.33,6.48Z"/><path class="cls-56" d="M59.57,35.11c-2,0-5.47.89-6.42,7.25-.61,4.09.33,6.47,1.09,7.66l7.06-.2s2.64-1.67,3.45-6.73a9.26,9.26,0,0,0-.73-6A6.85,6.85,0,0,0,59.57,35.11Z"/><path class="cls-58" d="M57.72,41.16c.05-1.87.06-3.74,0-5.61a.41.41,0,0,0-.51-.39c-1.6.41-3.5,1.84-4.13,6.13h0a.41.41,0,0,0,.43.48c1.27-.08,2.55-.14,3.82-.19A.43.43,0,0,0,57.72,41.16Z"/><path class="cls-58" d="M52.9,43c-.13,3.52,1.14,5.17,1.56,5.62a.46.46,0,0,0,.31.13L57,48.64a.43.43,0,0,0,.4-.42c.08-1.81.18-3.62.25-5.43a.43.43,0,0,0-.43-.45q-2,.07-3.93.21A.42.42,0,0,0,52.9,43Z"/><path class="cls-58" d="M63.74,41.05c0-4.42-3.14-5.77-4.83-6l-.47.45c.07,1.87.06,3.73,0,5.59a.42.42,0,0,0,.43.44c1.48,0,3-.05,4.45-.05A.41.41,0,0,0,63.74,41.05Z"/><path class="cls-58" d="M58.4,42.71c-.07,1.81-.17,3.62-.24,5.43a.42.42,0,0,0,.42.45l2.1-.07a.38.38,0,0,0,.24-.09c.45-.35,2.11-1.89,2.68-5.52l0-.17a.43.43,0,0,0-.41-.5c-1.47,0-2.93,0-4.4.06A.43.43,0,0,0,58.4,42.71Z"/><path class="cls-59" d="M57.76,38.06c0-.84,0-1.67-.06-2.51a.41.41,0,0,0-.51-.39c-1.6.41-3.5,1.84-4.13,6.13a.41.41,0,0,0,.43.48l.82-.05A7.18,7.18,0,0,1,57.76,38.06Z"/><path class="cls-59" d="M53.47,44.2A11.32,11.32,0,0,1,54,42.5l-.68,0a.42.42,0,0,0-.4.41,10.57,10.57,0,0,0,.33,3.22A10.93,10.93,0,0,1,53.47,44.2Z"/><path class="cls-59" d="M59.43,37.68a5.29,5.29,0,0,1,4.12,1.66,5.47,5.47,0,0,0-4.64-4.29l-.47.45c0,.77,0,1.54.05,2.31A4.84,4.84,0,0,1,59.43,37.68Z"/><path class="cls-4" d="M59.59,33.39c-2.43,0-6.63,1.08-7.78,8.79s2.26,10.43,2.26,10.43l9-.25s3.08-2,4-7.86C68.54,35.45,62,33.44,59.59,33.39Zm6.17,10.88c-.78,4.88-3.33,6.48-3.33,6.48L55,51s-2.81-2.24-1.86-8.6,4.41-7.29,6.42-7.25S67,36.8,65.76,44.27Z"/><path class="cls-60" d="M54.09,47.93a.43.43,0,0,1,.24-.11l2.18-2,1.06-.93.09-2.13a.45.45,0,0,0-.16-.36l-1.34.88L53.05,45.4A7.06,7.06,0,0,0,54,48Z"/><path class="cls-60" d="M63.62,39.71a6,6,0,0,0-.36-1.3,46.89,46.89,0,0,1-4.38,3.12l2.63,0Z"/><path class="cls-60" d="M59.18,47.29l-1,1a.42.42,0,0,0,.41.34l2.1-.07a.38.38,0,0,0,.24-.09,8.25,8.25,0,0,0,2.58-5C62,44.7,60.59,46,59.18,47.29Z"/><path class="cls-60" d="M60.61,42.26l-1.8,0a.43.43,0,0,0-.41.41l-.06,1.53Z"/><path class="cls-59" d="M57.76,38.55A6.88,6.88,0,0,1,57.21,40a3.85,3.85,0,0,1-1.76,1.65l1.86-.08a.43.43,0,0,0,.41-.42C57.74,40.29,57.76,39.42,57.76,38.55Z"/><path class="cls-59" d="M57.08,43.54a3.93,3.93,0,0,1,.28,1.36c0,.43.09.87.1,1.31l0,0c.05-1.15.11-2.3.15-3.45a.43.43,0,0,0-.43-.45l-1.64.08A2.27,2.27,0,0,1,57.08,43.54Z"/><path class="cls-59" d="M60.8,35.67a6.2,6.2,0,0,1,1.9,2.86,4.86,4.86,0,0,1,.26.72,2.18,2.18,0,0,1-.12,1.53,1.91,1.91,0,0,1-1,.71h1.47a.41.41,0,0,0,.41-.43A5.69,5.69,0,0,0,60.8,35.67Z"/><path class="cls-59" d="M63.21,42.24c-1.47,0-2.93,0-4.4.06a.43.43,0,0,0-.41.41c-.06,1.42-.12,2.83-.19,4.25.14-.71.42-1.43.57-2a3.35,3.35,0,0,1,1-1.81,2.08,2.08,0,0,1,2-.37c1.54.6,1.09,2.76.63,3.93a11,11,0,0,0,1.27-3.79l0-.17A.43.43,0,0,0,63.21,42.24Z"/><polygon class="cls-61" points="61.3 49.82 62.44 50.75 55.01 50.96 54.24 50.02 61.3 49.82"/><g class="cls-62"><path class="cls-4" d="M51.78,42.44c1.15-7.71,5.35-8.84,7.78-8.79s8.5,1.92,7.63,10.17c1-8.47-5.24-10.38-7.6-10.43S53,34.47,51.81,42.18c-.05.31-.09.61-.12.91Z"/><path class="cls-4" d="M55,51.21l7.43-.2S65,49.4,65.73,44.52c0-.27.08-.53.1-.78,0,.17,0,.35-.07.53-.78,4.88-3.33,6.48-3.33,6.48L55,51s-2.59-2.07-2-7.86C52.32,49.09,55,51.21,55,51.21Z"/></g><path class="cls-63" d="M58.47,34.85c-3.22-1.88-6.8-3.79-10.67-3.27a33.2,33.2,0,0,0-4.14,1.13c3.21-3.25,8.8-1.73,12.65-.65,1.46.41,3.32,1.08,4.85.86,1.18-.16,2.31-.68,3.49-.8a4.26,4.26,0,0,0,2.46-.65A7.16,7.16,0,0,0,70,26.24c.26-2.22.69-5.4,3.71-5.07.66.07,1,.47,1.49.78-1-.09-.33,2.72-.35,3.24-.06,1.52-.52,3.74-1.6,4.85a1.71,1.71,0,0,0-.58,1.12,5.34,5.34,0,0,1-1.16,2.06,8,8,0,0,1-3.88,2.21,15.55,15.55,0,0,0-2,.71,6,6,0,0,1-2.36.71C61.47,36.91,59.92,35.69,58.47,34.85Z"/><path class="cls-64" d="M73.33,21.78a1.9,1.9,0,0,0-2,1.42,34.49,34.49,0,0,1-1.76,6.3,5.63,5.63,0,0,1-3.4,2.92,14.65,14.65,0,0,1-5.83,1c-1.28-.18-3.48-1.6-4.67-1a43.81,43.81,0,0,1,4.67,2.51c1.46,1,1.6.65,3.11.07s2.93-.16,4.4-.31a7,7,0,0,0,3.61-2.07c-.55-1.38-2-1.85,0-2.68.8-.32,2.15-.4,1.71-1.62-.21-.57-.8-.6-.78-1.37C72.36,25.91,75.34,22.29,73.33,21.78Z"/><path class="cls-65" d="M31.39,39.92a.4.4,0,0,1,.44.45c0,.4-.34.76-.48,1.12a10.35,10.35,0,0,0-.48,3.18,5.87,5.87,0,0,1-.19,1.87c-.17.39-.37.34-.76.3s-.65-.1-.66-.6a12.44,12.44,0,0,1,.55-4.42A3.25,3.25,0,0,1,31.05,40,.84.84,0,0,1,31.39,39.92Z"/><path class="cls-4" d="M27.35,32.62S19.29,29.78,19,30.13s-1.3,2-.34,3.25c0,0,8.24,1.51,8.7,1.08S27.66,32.73,27.35,32.62Z"/><path class="cls-66" d="M19,33.26h0c.33.05.63-.41.74-.65a2.42,2.42,0,0,0-.16-2.45c-.31-.06-.51-.08-.56,0a3.09,3.09,0,0,0-.69,2.28,2.49,2.49,0,0,1,.22-1.23c.11-.27.44-.66.75-.68s.45.64.44.91a2.24,2.24,0,0,1-.41,1.28c-.18.21-.41.22-.54,0A1.45,1.45,0,0,1,19,31.33c.39-.3.2.49.1.67,0-.79-.33.21-.11.36s.79-1.09.33-1.35-.78,1.09-.76,1.41S18.65,33.21,19,33.26Z"/><path class="cls-5" d="M27.16,33.93a4.54,4.54,0,0,1-.82-.07,5.56,5.56,0,0,1-.92-.19c-.09,0-1.58-.29-1.45-.49s.46,0,.54,0a11.78,11.78,0,0,1,1.55.3c-.48-.22-1-.37-1.49-.58,0-.28,1.08,0,1.25,0a5.31,5.31,0,0,0-1.17-.37,6.79,6.79,0,0,0-1.08-.26,2.51,2.51,0,0,1,.75.47,3.24,3.24,0,0,1-1.15-.2,17.29,17.29,0,0,0-2.09-.53,6.48,6.48,0,0,1,.84.51,3.87,3.87,0,0,1,.7.37,2.42,2.42,0,0,1-.64-.17,3.71,3.71,0,0,1-2-.86l0,0a1.63,1.63,0,0,1-.81,1.4.9.9,0,0,1-.32.1c1.12.2,8.12,1.45,8.54,1.05a1.12,1.12,0,0,0,.28-.73A.75.75,0,0,1,27.16,33.93Z"/><path class="cls-5" d="M24.08,34c-.76-.19-1.51-.36-2.26-.53a5.6,5.6,0,0,1-2.08-.76,1.26,1.26,0,0,1-.61.62.9.9,0,0,1-.32.1c1.12.2,8.12,1.45,8.54,1.05a.88.88,0,0,0,.24-.47C26.85,34.78,24.9,34.18,24.08,34Z"/><path class="cls-4" d="M31.46,39.14s-7.67-1.21-7.88-.85-.84,2,.23,3c0,0,7.61,0,8-.47S31.75,39.18,31.46,39.14Z"/><path class="cls-66" d="M24.07,41.09h0c.3,0,.49-.47.55-.71a2.19,2.19,0,0,0-.54-2.16c-.29,0-.48,0-.51.07a2.78,2.78,0,0,0-.24,2.15,2.2,2.2,0,0,1,0-1.14,1,1,0,0,1,.56-.73c.36-.09.51.5.54.74a2,2,0,0,1-.15,1.22c-.13.21-.33.26-.49.06a1.32,1.32,0,0,1-.05-1.22c.3-.34.26.4.2.58-.12-.71-.26.24,0,.34s.52-1.11.06-1.26-.52,1.11-.44,1.39S23.78,41.09,24.07,41.09Z"/><path class="cls-5" d="M31.51,40.34a6.34,6.34,0,0,1-.75.07,4.94,4.94,0,0,1-.86,0c-.08,0-1.45,0-1.37-.2s.41-.07.48-.07a11.52,11.52,0,0,1,1.44,0C30,40,29.5,40,29,39.86c-.05-.25,1-.15,1.12-.17A4.61,4.61,0,0,0,29,39.56a6.71,6.71,0,0,0-1-.06,2.32,2.32,0,0,1,.74.31,2.91,2.91,0,0,1-1.06,0,14.18,14.18,0,0,0-1.95-.12,6.39,6.39,0,0,1,.83.31,4.64,4.64,0,0,1,.69.22,2,2,0,0,1-.6,0,3.46,3.46,0,0,1-2-.43s0,0,0,0a1.51,1.51,0,0,1-.49,1.39,1.17,1.17,0,0,1-.27.14c1,0,7.49,0,7.8-.47a1,1,0,0,0,.13-.71A.7.7,0,0,1,31.51,40.34Z"/><path class="cls-5" d="M28.76,40.89l-2.11-.11a4.88,4.88,0,0,1-2-.33,1.11,1.11,0,0,1-.71.8c1,0,7.49,0,7.8-.47a.84.84,0,0,0,.14-.46C31.37,41.15,29.53,40.93,28.76,40.89Z"/><path class="cls-4" d="M20.84,25.38c-2-1.08-4.08-2.17-4.27-2-.35.29-1.64,1.7-.92,3.13,0,0,2.23.85,4.39,1.6A9.14,9.14,0,0,1,20.84,25.38Z"/><path class="cls-66" d="M16,26.43h0c.32.11.69-.29.85-.51a2.45,2.45,0,0,0,.29-2.44c-.3-.12-.5-.17-.55-.13a3.13,3.13,0,0,0-1.1,2.12,2.54,2.54,0,0,1,.44-1.18,1.18,1.18,0,0,1,.86-.53c.42.05.33.71.27,1a2.23,2.23,0,0,1-.63,1.19c-.22.17-.44.14-.53-.13a1.44,1.44,0,0,1,.43-1.28c.44-.23.11.52,0,.68.15-.78-.36.14-.17.33s1-.93.56-1.27-1,.94-1,1.26S15.67,26.32,16,26.43Z"/><path class="cls-5" d="M20.36,26.62l-.13-.06a16.46,16.46,0,0,0-2-.9,7.53,7.53,0,0,1,.73.65,5.27,5.27,0,0,1,.63.49,2.4,2.4,0,0,1-.61-.28c-.63-.31-1.45-.55-1.83-1.21v0a1.65,1.65,0,0,1-1.05,1.24,1,1,0,0,1-.34,0c.53.2,2.41.91,4.25,1.54A14.81,14.81,0,0,1,20.36,26.62Z"/><path class="cls-5" d="M20.1,27.73l-1.36-.59A5.69,5.69,0,0,1,16.84,26a1.28,1.28,0,0,1-.71.51,1,1,0,0,1-.34,0c.53.2,2.41.91,4.25,1.54Z"/><path class="cls-67" d="M71,13.84a20.43,20.43,0,0,0,1.87-2.65c.36-.52.94-1.11.65-1.78C73,8.4,71.16,8.13,70.22,8a10.71,10.71,0,0,0-5.87.64c-.7.31-4.35,2.48-2.12,3a22.25,22.25,0,0,1,3.68,1.12c1.06.47,2.08,1.4,3.17,1.75A1.83,1.83,0,0,0,71,13.84Z"/><path class="cls-68" d="M50.13,3.84C51,2,50,.07,48,.09A9.92,9.92,0,0,0,44.35,1,8.18,8.18,0,0,0,41,3.62c-1.45,2.21,2.92,1.06,3.75,1,1.23,0,2.46.25,3.7.12A1.87,1.87,0,0,0,50.13,3.84Z"/><path class="cls-69" d="M58,3.43a3.53,3.53,0,0,0-2.87.89c-.44.46-1.46,1.4-1,2.09.61.93,2.41-.1,3.26-.06s2.37.79,3-.19c.54-.81-.33-1.82-1-2.25A3.34,3.34,0,0,0,58,3.43Z"/><path class="cls-70" d="M77.89,21.6c1.49-.38,1.21-1.94.33-2.76A24.67,24.67,0,0,1,75.6,16c-.17-.21-.89-1.35-1.23-1.33s-.51,1-.58,1.36a6.06,6.06,0,0,0-.32,2.66c.33,1.15,1.35,1,2.22,1.54C76.38,20.59,77,21.83,77.89,21.6Z"/><path class="cls-71" d="M22.7,31.88c-.08-.49-.17-1.09-.69-1.33-.07,0-.24-.09-.29,0-.17-.13-.45-.19-.57,0,.14.1.28.08.39.25a1.09,1.09,0,0,1,.19.5,3,3,0,0,1-.11,1.25,1.54,1.54,0,0,1-.55.91c-.16.12-.58.38-.77.21,0,.4.55.34.83.24a1,1,0,0,0,.74,0,1.27,1.27,0,0,0,.75-.8A2.64,2.64,0,0,0,22.7,31.88ZM22,33.4a.91.91,0,0,1-.48.28,1.86,1.86,0,0,0,.5-.87,3.54,3.54,0,0,0,.16-1.19,3.5,3.5,0,0,1,.11.66A1.55,1.55,0,0,1,22,33.4Z"/><path class="cls-71" d="M24.15,31.57a1,1,0,0,0-.49-.42.92.92,0,0,0-.28,0s-.26.11-.28.1a1.48,1.48,0,0,1,.72.61,2,2,0,0,1,.21,1,1.33,1.33,0,0,1-.22.83.86.86,0,0,1-.34.26l-.23.08a1.89,1.89,0,0,0-.21.09,0,0,0,0,0,0,0,.43.43,0,0,0,.19.14,1.06,1.06,0,0,0,.31,0,.93.93,0,0,0,.53-.29,1.67,1.67,0,0,0,.39-1.11A2.14,2.14,0,0,0,24.15,31.57Z"/><path class="cls-71" d="M27.67,39.7a1.78,1.78,0,0,0-.46-1.24,1,1,0,0,0-.51-.23h-.16l-.13-.06a.66.66,0,0,0-.5,0l-.07,0-.52-.23a4.78,4.78,0,0,1-.93-.67,6,6,0,0,1-1.45-2.55c0-.13-.14-.61-.14-.61l-.38,0c0,.14.07.28.1.43a7.69,7.69,0,0,0,.73,1.92,4,4,0,0,0,1.8,1.77,2.86,2.86,0,0,0,.76.21c.35,0,.57.08.76.4a1.47,1.47,0,0,1,.14,1,4.07,4.07,0,0,1-.25,1c-.07.19-.36.55-.6.52.13.3.56.13.75,0,.07.21.44.12.59.05C27.73,41,27.71,40.2,27.67,39.7Zm-.47,1a.65.65,0,0,1-.48.36l.06-.11a3.81,3.81,0,0,0,.32-1.2,2,2,0,0,0-.09-.94,1.71,1.71,0,0,1,.26.89A2.11,2.11,0,0,1,27.2,40.7Z"/><path class="cls-71" d="M19.6,30.13h.09c-.14,0-.31-.25-.38-.35a3.5,3.5,0,0,1-.55-1.94c0-.52,0-1.05,0-1.57a6.09,6.09,0,0,0,0-1.35,1.75,1.75,0,0,0-.38-.94c-.14-.14-.46-.42-.63-.18a1,1,0,0,1,.35.27c.5.6.34,1.58.29,2.31C18.35,27.54,18.25,29,19,30,19.15,30.14,19.37,30.13,19.6,30.13Z"/><path class="cls-71" d="M26.49,44.67c-.41.15-.7-.19-.8-.54a4,4,0,0,1-.1-1.09c0-.33,0-.65,0-1a1.71,1.71,0,0,1,0-.39,3.4,3.4,0,0,0,.08-.46h-.44c0,.35-.07.69-.08,1a4.92,4.92,0,0,0,.11,1.33,1.66,1.66,0,0,0,.43,1,.67.67,0,0,0,.77.13S26.5,44.66,26.49,44.67Z"/><path class="cls-72" d="M24.46,37.62a3.2,3.2,0,0,1-1.31-2.34l-.21-.6c0-.13-.14-.61-.14-.61l-.38,0c0,.14.07.28.1.43a7.69,7.69,0,0,0,.73,1.92,4,4,0,0,0,1.8,1.77l.12,0A4.92,4.92,0,0,1,24.46,37.62Z"/><path class="cls-72" d="M27.42,40.32l-.13-.07a1,1,0,0,1-.09.45.65.65,0,0,1-.48.36l.06-.11a3.33,3.33,0,0,0,.27-.88,2.83,2.83,0,0,1-.34-.35v0a4.07,4.07,0,0,1-.25,1c-.07.19-.36.55-.6.52.13.3.56.13.75,0,.07.21.44.12.59.05a1,1,0,0,0,.47-.88A.66.66,0,0,1,27.42,40.32Z"/><path class="cls-72" d="M19.31,29.78a2.67,2.67,0,0,1-.46-1.11,5.5,5.5,0,0,1-.44-1.89A4.68,4.68,0,0,0,19,30c.14.19.36.18.59.18h.09C19.55,30.13,19.38,29.88,19.31,29.78Z"/><path class="cls-72" d="M22,33.3a.61.61,0,0,1-.07.1.91.91,0,0,1-.48.28,1.84,1.84,0,0,0,.43-.66,10.55,10.55,0,0,1-.12-1.13c0-.08,0-.16,0-.25a3.93,3.93,0,0,1-.14.91,1.54,1.54,0,0,1-.55.91c-.16.12-.58.38-.77.21,0,.4.55.34.83.24a1,1,0,0,0,.74,0,1.16,1.16,0,0,0,.51-.37A.71.71,0,0,1,22,33.3Z"/><path class="cls-72" d="M24,33.37a1.3,1.3,0,0,1-.14.26.86.86,0,0,1-.34.26l-.23.08a1.89,1.89,0,0,0-.21.09,0,0,0,0,0,0,0,.43.43,0,0,0,.19.14,1.06,1.06,0,0,0,.31,0,.93.93,0,0,0,.53-.29,1.21,1.21,0,0,0,.2-.3A.59.59,0,0,1,24,33.37Z"/><path class="cls-72" d="M25.59,42.33a2.44,2.44,0,0,0,0-.27,1.71,1.71,0,0,1,0-.39,3.4,3.4,0,0,0,.08-.46h-.44c0,.35-.07.69-.08,1a4.92,4.92,0,0,0,.1,1.27A1.57,1.57,0,0,1,25.59,42.33Z"/><g class="cls-34"><path class="cls-73" d="M29.34,55.8a17.07,17.07,0,0,1-5.7-7.49,44.4,44.4,0,0,1-2-5.34c-.48-1.87.11-3.74-.22-5.62a14,14,0,0,0-1-3.14c.34.74.29,1.83-.73,1.29-.48-.26-.75-.76-1.32-1a2.74,2.74,0,0,0-1.89-.16c2.12-.05,3,2.48,3,4.21,0,.38-.28,3.06-.59,3.12-.59.11-1.21-.34-1.75-.53-2.22-.75-4.95-.68-4.77-3.77-.15.77-.57,2.08-.16,2.81s1,.38,1.56.53c.12,0,1.44.76,1.09,1,1.86-1.06,3.84,3,4.37,4.22.32.73.84,2.46-.49,2.58-1.88.16-3.73-2.88-3.9-4.43.27,2.43,1.79,4.06,3.69,5.65A26.6,26.6,0,0,1,24,55c1.24,1.79,6.27,6.59,7.73,2.82C30.9,57.15,30.17,56.46,29.34,55.8Z"/></g><path class="cls-74" d="M11.17,51.88l.15-.1a7.22,7.22,0,0,0-1,3.13,2.91,2.91,0,0,1,1.5-.94c-.55.57-2.76,3.84-2.35,4.66a12.59,12.59,0,0,1-.58-1.55A16,16,0,0,0,8.25,59c-.26-1-3.59-2.1-4.46-1.64.64-.33,1.74-1,2.38-.78-.88-1.15-1.37-3-2.72-3.73,1.12.61,2.57,1,3.32,2.06-.94-1.45-.73-3.56-2.4-4.62,1.37-.19,3.11,2.42,3.75,3.52-.54-1.3-.4-2.93-.84-4.28a26.13,26.13,0,0,1,1.41,3.76c.48-.94.4-2.45,1.31-3.25a9.16,9.16,0,0,0-.43,4.13A5.55,5.55,0,0,1,11.17,51.88Z"/><path class="cls-75" d="M92,63c.22-1.73.57-3.88-.19-5.48a6.75,6.75,0,0,1,1.11,2.91,7.52,7.52,0,0,0-.52-5.34c1.12,1.35,2.12,2.78,2,4.59a8.75,8.75,0,0,1,2.23-3.81A40,40,0,0,0,95,60c1.07-1,2.29-2.21,3.91-2.2a7.38,7.38,0,0,0-3.58,3.28c.82-.52,2.34-1,3.17-.43A5.47,5.47,0,0,0,95.36,62a2.46,2.46,0,0,1,2,.77c-.6-.72-4,.27-4.57.67a9.29,9.29,0,0,1,0-1.18,3.7,3.7,0,0,1-.87,1.18C92,63.27,92,63.13,92,63Z"/><path class="cls-76" d="M91.23,47.68c-1,2.19-3.36,3.5-5.49,4.36-3.23,1.3-7.31,1.56-9.06,5-1.19,2.37-1.13,5.48-2.79,7.61a5.47,5.47,0,0,1-3.34,1.93c-2.47.39-5-.34-7.42-.23a13.48,13.48,0,0,0-3.6.26,26,26,0,0,1,3.71-1.42A6.68,6.68,0,0,1,66,64.77c1.33.26,2.58.86,3.93,1a3.61,3.61,0,0,0,3.45-1.61c1.76-2.09,2.09-5.32,3-7.83a9.24,9.24,0,0,1,1.18-2.45c.68-.92,1.77-2.19,3-2.27.3,0,.46.13.73.24a4,4,0,0,0,1.58.2,8.73,8.73,0,0,0,6.84-3.22,10.43,10.43,0,0,0,1.41-2.1,12.23,12.23,0,0,0,.58-2.35C92.23,45.19,91.58,46.93,91.23,47.68Z"/><path class="cls-77" d="M34.67,59.93c-2.73,2.25-5.42,3-8.8,3.69C28.38,65.75,33.72,63.5,34.67,59.93Z"/><path class="cls-78" d="M39.52,61.63a4.57,4.57,0,0,0-2.88,5.05c0-.67,2.11-2.94,2.57-3.51s1.89-2.1,2.93-2.07A5.8,5.8,0,0,0,39.52,61.63Z"/><path class="cls-79" d="M83,50.52a6.25,6.25,0,0,0-5.63,1.09,5.63,5.63,0,0,0-1.89,2.27c-.15.35-.8,3.12-.93,3.13a7,7,0,0,1-3.19-.86c-1.11-.78-.29-1.8.69-2.21a12.1,12.1,0,0,1,2.84-.68c-.68-.55-1.86-1.19-1.93-2.18-.1-1.53,1.87-2.39,3-2.71C78.26,47.77,82.25,47.77,83,50.52Z"/><path class="cls-80" d="M61.09,61.61a5.5,5.5,0,0,0-1.56.42,7.53,7.53,0,0,0-3.3,3.68c1-.17,2.24-.37,3.31-.65.52-.13,4.46-3.07,4.81-2.44C63.8,61.62,62.35,61.44,61.09,61.61Z"/></g></g></g></svg>